<svg width="40" height="40" viewBox="0 0 40 40" fill="none" xmlns="http://www.w3.org/2000/svg">
<path d="M20.036 0.149902C9.01223 0.149902 0.0730591 9.23982 0.0730591 20.4537C0.0730591 29.4246 5.79306 37.0354 13.725 39.7202C14.7226 39.9082 15.0889 39.2798 15.0889 38.7435C15.0889 38.2593 15.0704 36.6599 15.0618 34.9633C9.5081 36.1915 8.3362 32.5676 8.3362 32.5676C7.4281 30.2208 6.11967 29.5967 6.11967 29.5967C4.30843 28.3366 6.2562 28.3624 6.2562 28.3624C8.26083 28.5053 9.31637 30.4548 9.31637 30.4548C11.0969 33.5588 13.9864 32.6615 15.1256 32.1427C15.3048 30.8307 15.8222 29.9343 16.3931 29.4276C11.959 28.9142 7.29785 27.1732 7.29785 19.3932C7.29785 17.1765 8.07769 15.3652 9.35471 13.9433C9.14744 13.4316 8.46413 11.3668 9.5481 8.57006C9.5481 8.57006 11.2245 8.02436 15.0393 10.6513C16.6317 10.2014 18.3395 9.97582 20.036 9.96809C21.7326 9.97582 23.4417 10.2014 25.037 10.6513C28.8473 8.02436 30.5213 8.57006 30.5213 8.57006C31.6079 11.3668 30.9243 13.4316 30.717 13.9433C31.997 15.3652 32.7716 17.1765 32.7716 19.3932C32.7716 27.1917 28.1015 28.9088 23.6562 29.4115C24.3722 30.0416 25.0103 31.2772 25.0103 33.1715C25.0103 35.8879 24.9871 38.0744 24.9871 38.7435C24.9871 39.2838 25.3464 39.9169 26.3583 39.7175C34.286 37.0297 39.9987 29.4216 39.9987 20.4537C39.9987 9.23982 31.0608 0.149902 20.036 0.149902Z" fill="white"/>
<path d="M7.63406 29.3017C7.59009 29.403 7.43406 29.4329 7.29191 29.3636C7.14712 29.2974 7.0658 29.1599 7.11274 29.0587C7.15571 28.9548 7.31208 28.9262 7.45654 28.9951C7.60166 29.0617 7.68431 29.2005 7.63406 29.3017Z" fill="white"/>
<path d="M8.44264 30.219C8.34743 30.3088 8.16132 30.2671 8.03504 30.1252C7.90446 29.9836 7.88 29.7943 7.97653 29.7032C8.07471 29.6135 8.2552 29.6555 8.38611 29.797C8.51669 29.9403 8.54215 30.1282 8.44264 30.219Z" fill="white"/>
<path d="M9.22974 31.3886C9.10743 31.475 8.90743 31.394 8.78379 31.2134C8.66148 31.0329 8.66148 30.8164 8.78644 30.7296C8.9104 30.6429 9.10743 30.7209 9.23272 30.9001C9.3547 31.0833 9.3547 31.3002 9.22974 31.3886Z" fill="white"/>
<path d="M10.3081 32.5183C10.1987 32.641 9.96561 32.608 9.79504 32.4406C9.62049 32.2769 9.5719 32.0445 9.68165 31.9218C9.79239 31.7987 10.0268 31.8334 10.1987 31.9995C10.3719 32.1629 10.4248 32.3969 10.3081 32.5183Z" fill="white"/>
<path d="M11.7957 33.1742C11.7474 33.3332 11.523 33.4055 11.2968 33.3379C11.0711 33.2683 10.9233 33.0821 10.9689 32.9213C11.0158 32.7613 11.2413 32.686 11.4691 32.7583C11.6945 32.8275 11.8426 33.0125 11.7957 33.1742Z" fill="white"/>
<path d="M13.4294 33.2958C13.4351 33.4633 13.2433 33.6022 13.006 33.6048C12.7673 33.6106 12.5742 33.4751 12.5716 33.3103C12.5716 33.1412 12.759 33.0037 12.9977 32.9996C13.2351 32.9949 13.4294 33.1294 13.4294 33.2958Z" fill="white"/>
<path d="M14.9498 33.0327C14.9782 33.1961 14.8132 33.3639 14.5775 33.4083C14.3458 33.4516 14.1313 33.3508 14.1018 33.1887C14.0731 33.0213 14.241 32.8535 14.4724 32.8101C14.7085 32.7684 14.9197 32.8666 14.9498 33.0327Z" fill="white"/>
</svg>
