<svg width="40" height="40" viewBox="0 0 40 40" fill="none" xmlns="http://www.w3.org/2000/svg">
<g clip-path="url(#clip0_31_43)">
<path d="M40 0H0V40H40V0Z" fill="white" fill-opacity="0.01"/>
<path d="M17.4217 5.05216L18.6132 4.25777C19.453 3.69793 20.547 3.69793 21.3868 4.25777L22.5783 5.05216C27.215 8.14326 30 13.3471 30 18.9197V27.4999H10V18.9197C10 13.3471 12.785 8.14326 17.4217 5.05216Z" stroke="white" stroke-width="2" stroke-linecap="round" stroke-linejoin="round"/>
<path d="M20 21.6667C22.7614 21.6667 25 19.4282 25 16.6667C25 13.9053 22.7614 11.6667 20 11.6667C17.2386 11.6667 15 13.9053 15 16.6667C15 19.4282 17.2386 21.6667 20 21.6667Z" stroke="white" stroke-width="2"/>
<path d="M10 18.3333L5 23.5144V27.4999H35V23.5144L30 18.3333" stroke="white" stroke-width="2" stroke-linecap="round" stroke-linejoin="round"/>
<path d="M20 31.6667V36.6667" stroke="white" stroke-width="2" stroke-linecap="round" stroke-linejoin="round"/>
<path d="M13.3333 33.3333V34.9999" stroke="white" stroke-width="2" stroke-linecap="round" stroke-linejoin="round"/>
<path d="M26.6667 33.3333V34.9999" stroke="white" stroke-width="2" stroke-linecap="round" stroke-linejoin="round"/>
</g>
<defs>
<clipPath id="clip0_31_43">
<rect width="40" height="40" fill="white"/>
</clipPath>
</defs>
</svg>
