<svg width="40" height="40" viewBox="0 0 40 40" fill="none" xmlns="http://www.w3.org/2000/svg">
<path fill-rule="evenodd" clip-rule="evenodd" d="M40 20C40 31.0457 31.0457 40 20 40C8.95431 40 0 31.0457 0 20C0 8.95431 8.95431 0 20 0C31.0457 0 40 8.95431 40 20ZM13.3929 18.1679C11.3894 19.0427 9.33089 19.9415 7.44854 20.9783L7.44841 20.9785C6.46551 21.6981 7.77199 22.2071 8.99755 22.6846C9.19239 22.7605 9.38518 22.8356 9.56641 22.9106C9.71721 22.957 9.87058 23.0058 10.026 23.0553C11.389 23.4896 12.9089 23.9738 14.2322 23.2454C16.4061 21.9967 18.4575 20.553 20.5074 19.1104C21.179 18.6377 21.8504 18.1652 22.5259 17.6997C22.5575 17.6795 22.5933 17.6563 22.6323 17.631C23.2078 17.258 24.502 16.4191 24.0233 17.5751C22.8912 18.8131 21.6787 19.909 20.4595 21.0108C19.6379 21.7534 18.8133 22.4987 18.0083 23.292C17.3071 23.8617 16.5791 25.0073 17.3642 25.805C19.1725 27.071 21.009 28.3062 22.8445 29.5407C23.4417 29.9424 24.0388 30.344 24.6349 30.7466C25.645 31.5531 27.2238 30.9007 27.4459 29.6404C27.5446 29.0606 27.6438 28.4808 27.743 27.901C28.2909 24.6972 28.8391 21.4922 29.3234 18.2779C29.3892 17.7737 29.4638 17.2695 29.5384 16.7651C29.7193 15.5425 29.9005 14.3184 29.957 13.0892C29.8112 11.8626 28.3239 12.1323 27.4962 12.4081C23.2419 14.027 19.03 15.7658 14.8349 17.5353C14.3596 17.7458 13.8779 17.9562 13.3929 18.1679Z" fill="white"/>
</svg>
