<svg xmlns="http://www.w3.org/2000/svg" width="999" height="896" fill="none"><g filter="url(#a)" opacity=".29"><path fill="url(#b)" d="M288.16 434.436c-17.298-9.713-25.946-14.569-28.89-20.917a21.656 21.656 0 0 1 0-18.226c2.944-6.348 11.592-11.204 28.889-20.916l322.89-181.306c6.188-3.474 9.281-5.211 12.554-5.893 3.02-.629 6.14-.606 9.15.068 3.262.731 6.33 2.514 12.465 6.08l311.91 181.305c16.644 9.675 24.966 14.512 27.828 20.782a21.666 21.666 0 0 1 0 17.986c-2.862 6.27-11.184 11.107-27.828 20.782l-311.91 181.305c-6.135 3.567-9.203 5.35-12.465 6.08-3.01.674-6.13.697-9.15.068-3.273-.681-6.366-2.419-12.554-5.893L288.16 434.436Z"/></g><g filter="url(#c)"><path fill="#C4C4C4" d="M388.616 434.518c-17.313-9.713-25.969-14.57-28.915-20.919a21.662 21.662 0 0 1 0-18.232c2.946-6.349 11.602-11.206 28.915-20.919l221.28-124.149c6.184-3.47 9.276-5.205 12.546-5.885a21.635 21.635 0 0 1 9.144.068c3.26.729 6.326 2.51 12.458 6.071l213.755 124.149c16.659 9.676 24.989 14.514 27.852 20.785a21.658 21.658 0 0 1 0 17.992c-2.863 6.272-11.193 11.109-27.852 20.785L644.044 558.413c-6.132 3.562-9.198 5.342-12.458 6.072a21.667 21.667 0 0 1-9.144.068c-3.27-.681-6.362-2.416-12.546-5.885l-221.28-124.15Z"/></g><mask id="d" width="531" height="323" x="357" y="243" maskUnits="userSpaceOnUse" style="mask-type:alpha"><path fill="#C4C4C4" d="M388.616 434.518c-17.313-9.713-25.969-14.57-28.915-20.919a21.662 21.662 0 0 1 0-18.232c2.946-6.349 11.602-11.206 28.915-20.919l221.28-124.149c6.184-3.47 9.276-5.205 12.546-5.885a21.635 21.635 0 0 1 9.144.068c3.26.729 6.326 2.51 12.458 6.071l213.755 124.149c16.659 9.676 24.989 14.514 27.852 20.785a21.658 21.658 0 0 1 0 17.992c-2.863 6.272-11.193 11.109-27.852 20.785L644.044 558.413c-6.132 3.562-9.198 5.342-12.458 6.072a21.667 21.667 0 0 1-9.144.068c-3.27-.681-6.362-2.416-12.546-5.885l-221.28-124.15Z"/></mask><g mask="url(#d)"><path fill="url(#e)" d="M335.082 237.971h286.997v354.684H335.082z"/><path fill="url(#f)" d="M621.176 237.971h286.997v354.684H621.176z"/><path fill="url(#g)" d="M669.83 204.43h286.997v354.684H669.83z"/><path fill="url(#h)" d="M357.645 237.971h286.997v354.684H357.645z"/><g filter="url(#i)"><path fill="url(#j)" d="m471.359 419.685 152.628 86.172v99.433H471.359V419.685Z"/><path fill="url(#k)" d="m471.359 419.685 152.628 86.172v99.433H471.359V419.685Z"/></g><mask id="m" width="156" height="192" x="623" y="413" maskUnits="userSpaceOnUse" style="mask-type:alpha"><path fill="url(#l)" d="m623.199 504.472 155.693-90.734v190.429H623.199v-99.695Z"/></mask><g mask="url(#m)"><g filter="url(#n)"><path fill="url(#o)" d="m623.695 505.851 155.694-90.733v190.428H623.695v-99.695Z"/><path fill="url(#p)" d="m623.695 505.851 155.694-90.733v190.428H623.695v-99.695Z"/></g><g filter="url(#q)" style="mix-blend-mode:multiply"><path fill="url(#r)" d="m785.561 464.404-161.338 42.624L782.26 406.406l3.301 57.998Z"/></g></g><g filter="url(#s)"><path fill="url(#t)" d="m325.764 407.78 309.243-172.614v25.864L325.764 433.644V407.78Z"/></g><g filter="url(#u)"><path fill="url(#v)" d="M922.887 407.78 613.643 235.166v25.864l309.244 172.614V407.78Z"/><path fill="url(#w)" d="M922.887 407.78 613.643 235.166v25.864l309.244 172.614V407.78Z"/></g></g><mask id="x" width="348" height="200" x="449" y="307" maskUnits="userSpaceOnUse" style="mask-type:alpha"><path fill="#C4C4C4" fill-rule="evenodd" d="M453.527 411.737a7.115 7.115 0 0 1-3.295-4.094h-.334v-44.904h68.937l94.795-52.95a21.662 21.662 0 0 1 21.218.052l93.615 52.898h68.092v41.608a7.345 7.345 0 0 1 0 2.264v1.032h-.238a7.12 7.12 0 0 1-3.264 4.076l-147.914 86.05-2.668-1.378v2.93l-7.388 4.298a21.659 21.659 0 0 1-21.69.055l-159.866-91.937Z" clip-rule="evenodd"/></mask><g mask="url(#x)"><g filter="url(#y)"><path fill="url(#z)" d="m449.898 362.066 174.161 99.9v49.2l-174.16-99.9-.001-49.2Z"/></g><path fill="url(#A)" d="m449.898 362.066 174.161 99.9v49.2l-174.16-99.9-.001-49.2Z"/><g filter="url(#B)"><path fill="url(#C)" d="M796.643 362.066 624.332 462.851v47.588l168.748-99.143a7.22 7.22 0 0 0 3.563-6.225v-43.005Z"/></g><path fill="url(#D)" d="M638.109 456.066h4.296v47.093h-4.296z"/><path fill="url(#E)" d="M645.59 423.922h42.374v75.037H645.59z"/><path fill="url(#F)" d="M606.736 453.644h32.715v68.266h-32.715z"/></g><g filter="url(#G)" opacity=".3"><ellipse cx="790.228" cy="512.581" fill="url(#H)" rx="39.534" ry="11.027" transform="rotate(30 790.228 512.581)"/></g><g filter="url(#I)" opacity=".3"><ellipse cx="825.369" cy="484.889" fill="url(#J)" rx="39.534" ry="11.027" transform="rotate(30 825.369 484.889)"/></g><g filter="url(#K)" opacity=".3"><ellipse cx="855.406" cy="462.696" fill="url(#L)" rx="39.534" ry="11.027" transform="rotate(30 855.406 462.696)"/></g><path fill="url(#M)" fill-rule="evenodd" d="M758.143 492.243v-.379l44.916 28.664c8.216 5.243 14.18 9.052 18.431 12.348 4.263 3.305 6.363 5.771 7.316 8.159a18.285 18.285 0 0 1-.527 14.75c-1.12 2.313-3.391 4.623-7.879 7.615-4.476 2.985-10.696 6.359-19.265 11.002l-66.15 35.846c-8.789 4.763-15.594 8.45-20.564 11.764-4.98 3.321-8.612 6.574-10.526 10.673a25.036 25.036 0 0 0-.247 20.638c1.816 4.144 5.369 7.483 10.268 10.922 4.89 3.432 11.606 7.281 20.279 12.253l380.775 218.265c1.62.927 3.68.368 4.61-1.249a3.376 3.376 0 0 0-1.25-4.604L737.71 670.736c-8.867-5.083-15.312-8.781-19.918-12.014-4.626-3.247-6.911-5.705-7.964-8.106a18.29 18.29 0 0 1 .18-15.076c1.11-2.376 3.453-4.778 8.156-7.914 4.682-3.122 11.213-6.665 20.199-11.534l66.147-35.844c8.375-4.539 14.869-8.057 19.633-11.234 4.783-3.189 8.288-6.324 10.209-10.288a25.036 25.036 0 0 0 .721-20.192c-1.633-4.091-4.905-7.468-9.449-10.99-4.525-3.508-10.751-7.481-18.78-12.605l-47.57-30.357c-.38-.243-.837-.535-1.251-.748-.417-.216-1.315-.643-2.46-.559a4.495 4.495 0 0 0-3.272 1.794c-.688.92-.81 1.907-.853 2.374-.043.464-.042 1.006-.042 1.457v7.238l6.747-3.895Z" clip-rule="evenodd"/><path fill="url(#N)" fill-rule="evenodd" d="M799.484 468.252v-.606l82.046 47.839c8.656 5.023 14.943 8.675 19.442 11.868 4.515 3.205 6.756 5.633 7.801 8.013a18.285 18.285 0 0 1-.102 14.937c-1.077 2.366-3.351 4.763-7.909 7.905-4.542 3.132-10.879 6.698-19.603 11.603l-75.634 42.521h-.001c-8.552 4.808-15.176 8.532-20.014 11.867-4.851 3.345-8.382 6.607-10.236 10.683a25.036 25.036 0 0 0-.114 20.472c1.808 4.096 5.303 7.398 10.116 10.796 4.8 3.389 11.383 7.187 19.88 12.09l354.934 204.786a3.374 3.374 0 1 0 3.37-5.844L808.688 672.488c-8.69-5.014-15.003-8.66-19.52-11.849-4.534-3.202-6.784-5.629-7.835-8.01a18.285 18.285 0 0 1 .083-14.954c1.077-2.368 3.355-4.77 7.924-7.921 4.552-3.139 10.906-6.714 19.651-11.631l75.635-42.521c8.53-4.795 15.139-8.511 19.966-11.839 4.84-3.338 8.365-6.593 10.219-10.662a25.038 25.038 0 0 0 .14-20.449c-1.799-4.094-5.279-7.397-10.074-10.801-4.781-3.393-11.338-7.198-19.802-12.11l-84.646-49.348-.001-.001c-.373-.216-.827-.48-1.238-.671-.425-.197-1.31-.57-2.418-.455a4.501 4.501 0 0 0-3.174 1.828c-.655.901-.777 1.854-.82 2.32-.041.452-.041.978-.041 1.409v7.325l6.747-3.896Z" clip-rule="evenodd"/><path fill="url(#O)" fill-rule="evenodd" d="M835.899 447.02v-1.225l117.32 65.703c8.81 4.933 15.211 8.522 19.796 11.672 4.603 3.163 6.894 5.573 7.973 7.949a18.282 18.282 0 0 1 .061 14.996c-1.06 2.384-3.332 4.814-7.909 8.013-4.559 3.188-10.931 6.828-19.7 11.833l-76.47 43.643c-8.444 4.819-14.987 8.553-19.764 11.893-4.793 3.35-8.28 6.613-10.109 10.675a25.035 25.035 0 0 0-.073 20.391c1.8 4.075 5.264 7.362 10.033 10.747 4.754 3.374 11.27 7.154 19.678 12.033h.001l367.284 213.094c1.61.935 3.67.387 4.61-1.225a3.381 3.381 0 0 0-1.23-4.611L880.281 669.6c-8.601-4.991-14.848-8.619-19.319-11.792-4.487-3.185-6.719-5.6-7.766-7.971a18.288 18.288 0 0 1 .053-14.895c1.064-2.364 3.313-4.763 7.822-7.915 4.494-3.142 10.767-6.726 19.403-11.655l76.471-43.643c8.575-4.894 15.218-8.685 20.061-12.071 4.855-3.394 8.382-6.695 10.208-10.801a25.035 25.035 0 0 0-.083-20.53c-1.859-4.091-5.413-7.363-10.295-10.718-4.871-3.347-11.544-7.083-20.159-11.908l-119.902-67.148-.001-.001a16.226 16.226 0 0 0-1.234-.645c-.427-.19-1.307-.544-2.402-.418a4.498 4.498 0 0 0-3.138 1.839c-.644.894-.765 1.835-.808 2.3-.041.448-.041.969-.041 1.393v7.894l6.748-3.895Z" clip-rule="evenodd"/><path fill="url(#P)" fill-rule="evenodd" d="M490.941 492.243v-.379l-44.916 28.664c-8.216 5.243-14.18 9.052-18.431 12.349-4.263 3.304-6.363 5.771-7.316 8.158a18.285 18.285 0 0 0 .527 14.75c1.12 2.313 3.391 4.623 7.879 7.615 4.476 2.985 10.696 6.359 19.265 11.003l66.15 35.845c8.789 4.763 15.594 8.45 20.564 11.764 4.98 3.321 8.612 6.574 10.526 10.673a25.036 25.036 0 0 1 .247 20.638c-1.816 4.144-5.369 7.484-10.268 10.922-4.89 3.432-11.606 7.281-20.279 12.253h-.001L134.11 894.764a3.373 3.373 0 0 1-3.355-5.854l380.619-218.174c8.867-5.083 15.312-8.781 19.918-12.014 4.626-3.247 6.911-5.705 7.964-8.106a18.29 18.29 0 0 0-.18-15.076c-1.11-2.376-3.453-4.778-8.156-7.914-4.682-3.122-11.213-6.665-20.199-11.534l-66.147-35.844c-8.375-4.538-14.869-8.057-19.633-11.234-4.783-3.189-8.288-6.323-10.208-10.288a25.032 25.032 0 0 1-.722-20.192c1.633-4.091 4.905-7.467 9.449-10.99 4.525-3.508 10.751-7.481 18.78-12.605h.001l47.569-30.357c.38-.243.837-.535 1.251-.748.417-.215 1.315-.643 2.46-.559a4.495 4.495 0 0 1 3.272 1.794c.688.92.81 1.907.853 2.374.043.464.042 1.006.042 1.458v7.237l-6.747-3.895Z" clip-rule="evenodd"/><path fill="url(#Q)" fill-rule="evenodd" d="M449.6 468.252v-.607l-82.046 47.84c-8.656 5.022-14.943 8.675-19.442 11.868-4.515 3.205-6.756 5.633-7.801 8.013a18.285 18.285 0 0 0 .102 14.937c1.077 2.365 3.351 4.763 7.909 7.905 4.542 3.132 10.879 6.698 19.603 11.603l75.634 42.521h.001c8.552 4.808 15.176 8.532 20.014 11.867 4.851 3.345 8.382 6.607 10.236 10.683a25.036 25.036 0 0 1 .114 20.472c-1.808 4.096-5.303 7.397-10.116 10.796-4.8 3.389-11.383 7.187-19.88 12.09L88.992 883.026a3.374 3.374 0 0 1-3.372-5.844l354.776-204.694c8.69-5.014 15.003-8.66 19.52-11.85 4.534-3.201 6.784-5.628 7.835-8.009a18.285 18.285 0 0 0-.083-14.954c-1.077-2.368-3.355-4.771-7.924-7.921-4.552-3.139-10.906-6.714-19.651-11.631l-75.635-42.521c-8.53-4.795-15.139-8.511-19.966-11.839-4.84-3.338-8.365-6.594-10.219-10.663a25.035 25.035 0 0 1-.14-20.448c1.799-4.094 5.279-7.398 10.074-10.801 4.781-3.393 11.338-7.198 19.802-12.11l84.646-49.348.001-.001c.373-.216.827-.48 1.238-.671.425-.197 1.31-.57 2.418-.455a4.498 4.498 0 0 1 3.174 1.828c.655.901.777 1.854.82 2.32.041.452.041.978.041 1.409v7.324l-6.747-3.895Z" clip-rule="evenodd"/><path fill="url(#R)" fill-rule="evenodd" d="M413.185 447.019v-1.224l-117.32 65.702c-8.81 4.934-15.211 8.523-19.796 11.673-4.603 3.162-6.894 5.573-7.973 7.949a18.282 18.282 0 0 0-.061 14.996c1.06 2.384 3.332 4.813 7.909 8.013 4.559 3.188 10.931 6.828 19.7 11.833l76.47 43.642v.001c8.444 4.818 14.987 8.553 19.764 11.893 4.793 3.35 8.28 6.612 10.109 10.675a25.033 25.033 0 0 1 .073 20.39c-1.8 4.076-5.264 7.363-10.033 10.748-4.754 3.374-11.27 7.154-19.678 12.033h-.001L5.068 888.437a3.373 3.373 0 1 1-3.387-5.836L368.803 669.6c8.601-4.991 14.848-8.619 19.319-11.793 4.487-3.184 6.718-5.599 7.766-7.97a18.288 18.288 0 0 0-.053-14.895c-1.064-2.364-3.313-4.763-7.822-7.915-4.494-3.142-10.767-6.726-19.403-11.655l-76.471-43.643c-8.575-4.894-15.218-8.685-20.061-12.071-4.855-3.394-8.382-6.695-10.208-10.801a25.035 25.035 0 0 1 .083-20.53c1.859-4.091 5.413-7.363 10.295-10.718 4.871-3.347 11.544-7.084 20.159-11.908l119.902-67.148.001-.001c.369-.207.823-.462 1.234-.645.427-.19 1.307-.544 2.402-.419a4.5 4.5 0 0 1 3.138 1.84c.644.894.765 1.835.808 2.3.041.448.041.969.041 1.393v7.894l-6.748-3.896Z" clip-rule="evenodd"/><path fill="url(#S)" d="M597.715 464.529c0-2.406 2.616-3.901 4.689-2.678l11.38 6.711a3.11 3.11 0 0 1 1.53 2.678c0 2.407-2.617 3.901-4.689 2.679l-11.38-6.711a3.111 3.111 0 0 1-1.53-2.679Z"/><g filter="url(#T)" opacity=".3"><ellipse cx="39.534" cy="11.027" fill="url(#U)" rx="39.534" ry="11.027" transform="scale(-1 1) rotate(30 -1140.64 -658.182)"/></g><g filter="url(#V)" opacity=".3"><ellipse cx="39.534" cy="11.027" fill="url(#W)" rx="39.534" ry="11.027" transform="scale(-1 1) rotate(30 -1071.397 -606.46)"/></g><g filter="url(#X)" opacity=".3"><ellipse cx="39.534" cy="11.027" fill="url(#Y)" rx="39.534" ry="11.027" transform="scale(-1 1) rotate(30 -1014.964 -561.501)"/></g><path fill="url(#Z)" d="M575.148 450.908c0-2.406 2.617-3.901 4.69-2.678l11.379 6.711a3.11 3.11 0 0 1 1.53 2.678c0 2.407-2.616 3.901-4.689 2.679l-11.38-6.711a3.11 3.11 0 0 1-1.53-2.679Z"/><path fill="url(#aa)" d="M575.148 463.627c0-2.406 2.617-3.901 4.69-2.678l11.379 6.711a3.11 3.11 0 0 1 1.53 2.678c0 2.407-2.616 3.901-4.689 2.679l-11.38-6.711a3.11 3.11 0 0 1-1.53-2.679Z"/><path fill="url(#ab)" d="M575.148 475.36c0-2.407 2.617-3.901 4.69-2.679l11.379 6.711a3.11 3.11 0 0 1 1.53 2.679c0 2.406-2.616 3.901-4.689 2.678l-11.38-6.711a3.11 3.11 0 0 1-1.53-2.678Z"/><path fill="url(#ac)" d="M597.715 476.263c0-2.407 2.616-3.901 4.689-2.679l11.38 6.711a3.111 3.111 0 0 1 1.53 2.679c0 2.406-2.617 3.901-4.689 2.678l-11.38-6.711a3.11 3.11 0 0 1-1.53-2.678Z"/><path fill="url(#ad)" d="M597.715 487.995c0-2.407 2.616-3.901 4.689-2.679l11.38 6.712a3.108 3.108 0 0 1 1.53 2.678c0 2.407-2.617 3.901-4.689 2.678l-11.38-6.711a3.108 3.108 0 0 1-1.53-2.678Z"/><g filter="url(#ae)"><circle cx="579.664" cy="451.866" r="1.805" fill="#81FF02"/></g><g filter="url(#af)"><circle cx="602.225" cy="465.403" r="1.805" fill="#81FF02"/></g><g filter="url(#ag)"><circle cx="579.664" cy="464.501" r="1.805" fill="#81FF02"/></g><g filter="url(#ah)"><circle cx="602.225" cy="477.136" r="1.805" fill="#81FF02"/></g><g filter="url(#ai)"><circle cx="579.664" cy="476.234" r="1.805" fill="#81FF02"/></g><g filter="url(#aj)"><circle cx="602.225" cy="488.869" r="1.805" fill="#81FF02"/></g><mask id="ak" width="348" height="201" x="449" y="263" maskUnits="userSpaceOnUse" style="mask-type:alpha"><path fill="#5A5996" fill-rule="evenodd" d="M453.666 355.854c-4.897 2.735-4.941 9.766-.079 12.562l159.866 91.937a21.659 21.659 0 0 0 21.69-.055l7.266-4.227-179.647-105.295.769-.433-9.865 5.511Zm11.445-6.393 180.433 104.787 147.57-85.85c4.82-2.805 4.777-9.783-.079-12.527L634.908 266.52a21.662 21.662 0 0 0-21.218-.052l-148.579 82.993Z" clip-rule="evenodd"/></mask><g mask="url(#ak)"><g filter="url(#al)"><path fill="url(#am)" d="M453.585 368.416c-4.862-2.796-4.818-9.827.079-12.562l160.024-89.386a21.662 21.662 0 0 1 21.218.052l158.127 89.351c4.856 2.744 4.899 9.722.079 12.527l-157.971 91.9a21.659 21.659 0 0 1-21.69.055l-159.866-91.937Z"/><path fill="url(#an)" d="M453.585 368.416c-4.862-2.796-4.818-9.827.079-12.562l160.024-89.386a21.662 21.662 0 0 1 21.218.052l158.127 89.351c4.856 2.744 4.899 9.722.079 12.527l-157.971 91.9a21.659 21.659 0 0 1-21.69.055l-159.866-91.937Z"/></g><path fill="url(#ao)" stroke="url(#ap)" stroke-width=".632" d="M645.489 453.862 465.684 349.464 645.913 248.26l179.049 101.174-179.473 104.428Z"/><g filter="url(#aq)"><path fill="url(#ar)" d="M659.306 376.166c-22.294 4.716-37.987-3.303-48.884-6.34-37.26-25.723-25.202-38.244-28.239-50.927l41.266-47.161 198.287 71.813c-40.55 7.681-140.136 27.899-162.43 32.615Z"/></g><ellipse cx="625.415" cy="372.321" fill="url(#as)" rx="68.124" ry="27.65"/><g filter="url(#at)"><ellipse cx="625.413" cy="372.32" fill="#26214F" rx="18.626" ry="7.56"/></g></g><mask id="av" width="181" height="149" x="465" y="349" maskUnits="userSpaceOnUse" style="mask-type:alpha"><path fill="url(#au)" fill-rule="evenodd" d="m642.401 456.065-177.36-104.001v-2.633l180.544 104.833-.002.001v43.701l-3.183-1.615v-40.285l.001-.001Z" clip-rule="evenodd"/></mask><g mask="url(#av)"><path fill="url(#aw)" fill-rule="evenodd" d="m642.401 456.065-177.36-104.001v-2.633l180.544 104.833-.002.001v44.094l-3.183-1.92v-40.373l.001-.001Z" clip-rule="evenodd"/><path fill="url(#ax)" fill-rule="evenodd" d="M642.402 456.066 465.041 352.119v-2.688l180.544 104.833-3.183 1.802Z" clip-rule="evenodd"/><path fill="url(#ay)" fill-rule="evenodd" d="M645.585 498.355 465.041 392.576v-43.145l180.544 104.833v44.091Z" clip-rule="evenodd"/><g filter="url(#az)"><ellipse cx="638.495" cy="492.478" fill="#06F" rx="7.345" ry="12.449"/></g><path fill="url(#aA)" d="M465.041 349.431h.695v3.464h-.695z"/></g><mask id="aC" width="239" height="297" x="495" y="62" maskUnits="userSpaceOnUse" style="mask-type:alpha"><path fill="url(#aB)" d="M528.509 63.07c3.059-1.124 6.834-.382 11.103 2.122l.937.55a.719.719 0 0 1 .047.029l.049.031c.542.352 3.051 2.039 6.986 4.347 6.613 3.879 20.085 11.273 32.619 15.478 18.925 6.481 38.319-2.8 39.01-2.877 2.838-.035 5.922.81 8.981 2.604 3.06 1.794 6.391 4.712 8.982 7.932 5.453 6.852 24.131 36.027 40.219 49.346 12.534 10.523 25.537 18.632 32.397 22.655 4.022 2.359 6.612 3.625 6.859 3.77l1.185.694c3.997 2.345 8.019 6.175 11.103 10.903 3.059 4.712 4.959 10.191 4.959 14.581v40.348c0 76.327-25.941 103.341-51.784 111.314l-25.312 11.499-.002-8.783c-13.872-.902-24.417-5.052-25.743-5.6-.938-.296-1.9-.861-2.838-1.411-.938-.549-1.9-1.114-2.837-1.918-4.022-3.094-102.127-79.844-102.127-228.648V97.825l-27.488-20.331 31.146-13.742a6.551 6.551 0 0 1 1.549-.683h-.002.002Z"/></mask><g mask="url(#aC)"><path fill="url(#aD)" d="M528.509 63.07c3.059-1.124 6.834-.382 11.103 2.122l.937.55a.719.719 0 0 1 .047.029l.049.031c.542.352 3.051 2.039 6.986 4.347 6.613 3.879 20.085 11.273 32.619 15.478 18.925 6.481 38.319-2.8 39.01-2.877 2.838-.035 5.922.81 8.981 2.604 3.06 1.794 6.391 4.712 8.982 7.932 5.453 6.852 24.131 36.027 40.219 49.346 12.534 10.523 25.537 18.632 32.397 22.655 4.022 2.359 6.612 3.625 6.859 3.77l1.185.694c3.997 2.345 8.019 6.175 11.103 10.903 3.059 4.712 4.959 10.191 4.959 14.581v40.348c0 76.327-25.941 103.341-51.784 111.314l-25.312 11.499-.002-8.783c-13.872-.902-24.417-5.052-25.743-5.6-.938-.296-1.9-.861-2.838-1.411-.938-.549-1.9-1.114-2.837-1.918-4.022-3.094-102.127-79.844-102.127-228.648V97.825l-27.488-20.331 31.146-13.742a6.551 6.551 0 0 1 1.549-.683h-.002.002Z"/><path fill="url(#aE)" d="M0 0h72.892v129.652H0z" transform="matrix(.76004 -.64987 .62923 .77722 585.703 115.568)"/><path fill="url(#aF)" d="M528.509 63.07c3.059-1.124 6.834-.382 11.103 2.122l.937.55a.719.719 0 0 1 .047.029l.049.031c.542.352 3.051 2.039 6.986 4.347 6.613 3.879 20.085 11.273 32.619 15.478 18.925 6.481 38.319-2.8 39.01-2.877 2.838-.035 5.922.81 8.981 2.604 3.06 1.794 6.391 4.712 8.982 7.932 5.453 6.852 24.131 36.027 40.219 49.346 12.534 10.523 25.537 18.632 32.397 22.655 4.022 2.359 6.612 3.625 6.859 3.77l1.185.694c3.997 2.345 8.019 6.175 11.103 10.903 3.06 4.712 4.959 10.191 4.959 14.581v40.348c0 76.327-25.941 103.341-51.784 111.314l-25.312 11.499-.002-8.783c-13.872-.902-24.417-5.052-25.743-5.6-.938-.296-1.9-.861-2.838-1.411-.938-.55-1.9-1.114-2.837-1.918-4.022-3.094-102.127-79.844-102.127-228.648V97.825l-27.488-20.331 31.146-13.742a6.551 6.551 0 0 1 1.549-.683Z"/><path fill="url(#aG)" d="M0 0h365.075v165.277H0z" transform="matrix(.5163 .85641 -.84353 .53708 614.092 -19.025)"/></g><g filter="url(#aH)"><path fill="url(#aI)" d="M696.301 198.681c-3.084-4.594-7.106-8.317-11.104-10.595l-1.184-.675c-.247-.141-2.837-1.371-6.859-3.663-6.86-3.91-19.863-11.79-32.397-22.017-16.088-12.942-34.766-41.294-40.219-47.953-2.591-3.129-5.922-5.965-8.982-7.709-3.059-1.744-6.144-2.564-8.981-2.53-.691.075-20.085 9.094-39.01 2.796-12.534-4.087-26.006-11.272-32.619-15.041-4.269-2.433-6.86-4.157-7.082-4.283l-.937-.535c-4.269-2.433-8.044-3.154-11.104-2.062-3.306.951-5.206 4.11-5.206 8.376v39.209c0 144.606 98.105 219.191 102.126 222.198.938.781 1.9 1.33 2.838 1.864.938.535 1.9 1.083 2.838 1.371 4.243 1.704 102.841 39.235 102.841-105.371v-39.21c0-4.266-1.9-9.59-4.959-14.17Z"/><path fill="url(#aJ)" d="M696.301 198.681c-3.084-4.594-7.106-8.317-11.104-10.595l-1.184-.675c-.247-.141-2.837-1.371-6.859-3.663-6.86-3.91-19.863-11.79-32.397-22.017-16.088-12.942-34.766-41.294-40.219-47.953-2.591-3.129-5.922-5.965-8.982-7.709-3.059-1.744-6.144-2.564-8.981-2.53-.691.075-20.085 9.094-39.01 2.796-12.534-4.087-26.006-11.272-32.619-15.041-4.269-2.433-6.86-4.157-7.082-4.283l-.937-.535c-4.269-2.433-8.044-3.154-11.104-2.062-3.306.951-5.206 4.11-5.206 8.376v39.209c0 144.606 98.105 219.191 102.126 222.198.938.781 1.9 1.33 2.838 1.864.938.535 1.9 1.083 2.838 1.371 4.243 1.704 102.841 39.235 102.841-105.371v-39.21c0-4.266-1.9-9.59-4.959-14.17Z"/><path fill="url(#aK)" d="M696.301 198.681c-3.084-4.594-7.106-8.317-11.104-10.595l-1.184-.675c-.247-.141-2.837-1.371-6.859-3.663-6.86-3.91-19.863-11.79-32.397-22.017-16.088-12.942-34.766-41.294-40.219-47.953-2.591-3.129-5.922-5.965-8.982-7.709-3.059-1.744-6.144-2.564-8.981-2.53-.691.075-20.085 9.094-39.01 2.796-12.534-4.087-26.006-11.272-32.619-15.041-4.269-2.433-6.86-4.157-7.082-4.283l-.937-.535c-4.269-2.433-8.044-3.154-11.104-2.062-3.306.951-5.206 4.11-5.206 8.376v39.209c0 144.606 98.105 219.191 102.126 222.198.938.781 1.9 1.33 2.838 1.864.938.535 1.9 1.083 2.838 1.371 4.243 1.704 102.841 39.235 102.841-105.371v-39.21c0-4.266-1.9-9.59-4.959-14.17Z"/></g><path fill="#C8D1EA" d="M491.444 79.388c.262-2.582 2.141-3.585 4.526-2.566 9.137 3.906 31.883 13.3 47.644 17.005 16.845 3.958 41.514 5.13 49.125 5.408 1.478.053 3.182 1.037 4.687 2.705 7.749 8.591 32.856 36.157 49.894 51.761 15.769 14.442 37.547 30.14 46.573 36.489 2.466 1.735 4.478 5.015 4.82 8.023 3.536 31.136 16.553 192.948-99.037 165.078-.958-.231-2.05-.862-3.018-1.743C479.616 255.061 488.695 106.44 491.444 79.388Z"/><path stroke="#0697EB" stroke-width="4.183" d="M520.525 120.182c.218-2.637 2.083-3.607 4.485-2.603 7.218 3.017 22.553 9.154 33.354 11.559 11.713 2.609 28.648 3.18 34.852 3.304 1.517.03 3.286 1.052 4.831 2.789 6.32 7.107 23.563 26.268 35.414 37.265 10.93 10.141 26.356 21.763 33.613 27.104 2.414 1.776 4.348 4.94 4.659 7.882 2.709 25.698 10.69 142.703-71.279 124.358-.986-.221-2.111-.87-3.108-1.795-82.94-76.864-78.723-186.827-76.821-209.863Z"/><mask id="aL" fill="#fff"><path fill-rule="evenodd" d="M540.132 148.26c-.573 1.132-.261 1.964 3.109 8.294 4.523 8.499 10.125 22.297 12.902 31.777 3.311 11.307 7.679 36.036 9.627 54.499.108 1.012-.005 2.505-.249 3.318-.475 1.58-6.101 8.074-9.989 11.529-2.862 2.543-3.342 3.791-2.445 6.353.948 2.708 4.194 4.793 7.701 4.949 3.367.15 3.455.197 3.862 2.029.951 4.276 11.318 5.634 17.036 2.23 1.198-.713 3.559-2.661 5.247-4.33 2.916-2.882 3.189-2.995 5.457-2.259 3.083 1.001 13.411 1.734 16.196 1.15 2.737-.573 5.148-2.596 9.756-8.184 2.018-2.448 5.088-5.529 6.82-6.847 4.821-3.668 5.947-3.045 17.15 9.486 6.814 7.622 9.011 8.723 11.231 5.63 1.527-2.129 1.381-3.821-.803-9.293-3.654-9.16-8.3-17.769-15.863-29.392l-2.726-4.191 3.699-5.254c2.035-2.889 5.495-6.899 7.691-8.91 2.196-2.011 3.993-4.009 3.993-4.441 0-1.122-1.608-3.176-2.784-3.559-3.32-1.078-22.453 1.954-24.831 3.935-1.008.84-.993.909.593 2.75l1.628 1.889 2.058-.808c2-.786 13.915-3.381 14.56-3.171.177.057-.393.852-1.267 1.766-2.057 2.151-4.848 5.878-6.746 9.01-.828 1.366-1.595 2.559-1.704 2.65-.109.091-1.93-1.858-4.046-4.331-5.259-6.146-9.876-10.83-11.054-11.212-2.045-.665-2.29 1.351-.818 6.727 2.178 7.96 4.511 21.559 4.084 23.808-.307 1.616-1.113 2.292-4.612 3.867l-4.24 1.908.986 2.071c.543 1.139 1.205 2.142 1.472 2.229.697.226 7.268-2.631 8.74-3.8.682-.542 1.559-2.128 1.947-3.525.636-2.285.526-3.543-1.1-12.577-.993-5.52-1.805-10.242-1.805-10.493 0-.711 6.426 6.842 10.686 12.561 5.062 6.793 11.332 17.459 15.153 25.773 2.966 6.454 4.364 10.944 3.298 10.598-.281-.092-3.058-3.028-6.17-6.527-6.561-7.372-10.273-10.709-12.839-11.543-4.646-1.51-9.261 1.281-16.376 9.904-2.15 2.605-4.798 5.266-5.884 5.913-2.94 1.749-8.289 1.413-22.198-1.395-4.057-.819-8.297-1.53-9.422-1.58-1.125-.051-4.919 1.109-8.431 2.576-5.795 2.421-9.66 3.03-10.645 1.677-.197-.271.288-1.015 1.077-1.654 2.602-2.109 9.607-10.108 10.436-11.919 1.138-2.483 1.022-5.862-.626-18.27-4.157-31.312-9.618-51.744-19.125-71.558-1.084-2.26-.996-2.198 4.481 3.147 10.698 10.442 17.09 18.248 26.145 31.932 9.733 14.706 16.036 27.41 21.204 42.73.959 2.844 1.808 5.261 1.887 5.37.396.55 3.731-.048 3.731-.669 0-.877-2.017-6.907-4.568-13.655-1.769-4.681-1.826-5.027-.895-5.438.546-.241 3.67-2.298 6.941-4.57l5.947-4.131-.634-2.224c-.578-2.021-.748-2.196-1.87-1.932-.678.159-3.995 2.183-7.372 4.496l-6.137 4.206-2.477-5.013c-8.051-16.302-22.11-36.343-34.33-48.937-9.349-9.635-17.709-17.395-19.296-17.911-1.061-.344-1.708-.115-2.154.766Zm43.013 117.106c0 1.33-6.912 4.894-9.613 4.957-4.544.105-5.08-.578-2.323-2.961 3.131-2.706 5.154-3.492 8.089-3.145 3.368.399 3.847.542 3.847 1.149Z" clip-rule="evenodd"/></mask><path fill="#0697EB" fill-rule="evenodd" d="M540.132 148.26c-.573 1.132-.261 1.964 3.109 8.294 4.523 8.499 10.125 22.297 12.902 31.777 3.311 11.307 7.679 36.036 9.627 54.499.108 1.012-.005 2.505-.249 3.318-.475 1.58-6.101 8.074-9.989 11.529-2.862 2.543-3.342 3.791-2.445 6.353.948 2.708 4.194 4.793 7.701 4.949 3.367.15 3.455.197 3.862 2.029.951 4.276 11.318 5.634 17.036 2.23 1.198-.713 3.559-2.661 5.247-4.33 2.916-2.882 3.189-2.995 5.457-2.259 3.083 1.001 13.411 1.734 16.196 1.15 2.737-.573 5.148-2.596 9.756-8.184 2.018-2.448 5.088-5.529 6.82-6.847 4.821-3.668 5.947-3.045 17.15 9.486 6.814 7.622 9.011 8.723 11.231 5.63 1.527-2.129 1.381-3.821-.803-9.293-3.654-9.16-8.3-17.769-15.863-29.392l-2.726-4.191 3.699-5.254c2.035-2.889 5.495-6.899 7.691-8.91 2.196-2.011 3.993-4.009 3.993-4.441 0-1.122-1.608-3.176-2.784-3.559-3.32-1.078-22.453 1.954-24.831 3.935-1.008.84-.993.909.593 2.75l1.628 1.889 2.058-.808c2-.786 13.915-3.381 14.56-3.171.177.057-.393.852-1.267 1.766-2.057 2.151-4.848 5.878-6.746 9.01-.828 1.366-1.595 2.559-1.704 2.65-.109.091-1.93-1.858-4.046-4.331-5.259-6.146-9.876-10.83-11.054-11.212-2.045-.665-2.29 1.351-.818 6.727 2.178 7.96 4.511 21.559 4.084 23.808-.307 1.616-1.113 2.292-4.612 3.867l-4.24 1.908.986 2.071c.543 1.139 1.205 2.142 1.472 2.229.697.226 7.268-2.631 8.74-3.8.682-.542 1.559-2.128 1.947-3.525.636-2.285.526-3.543-1.1-12.577-.993-5.52-1.805-10.242-1.805-10.493 0-.711 6.426 6.842 10.686 12.561 5.062 6.793 11.332 17.459 15.153 25.773 2.966 6.454 4.364 10.944 3.298 10.598-.281-.092-3.058-3.028-6.17-6.527-6.561-7.372-10.273-10.709-12.839-11.543-4.646-1.51-9.261 1.281-16.376 9.904-2.15 2.605-4.798 5.266-5.884 5.913-2.94 1.749-8.289 1.413-22.198-1.395-4.057-.819-8.297-1.53-9.422-1.58-1.125-.051-4.919 1.109-8.431 2.576-5.795 2.421-9.66 3.03-10.645 1.677-.197-.271.288-1.015 1.077-1.654 2.602-2.109 9.607-10.108 10.436-11.919 1.138-2.483 1.022-5.862-.626-18.27-4.157-31.312-9.618-51.744-19.125-71.558-1.084-2.26-.996-2.198 4.481 3.147 10.698 10.442 17.09 18.248 26.145 31.932 9.733 14.706 16.036 27.41 21.204 42.73.959 2.844 1.808 5.261 1.887 5.37.396.55 3.731-.048 3.731-.669 0-.877-2.017-6.907-4.568-13.655-1.769-4.681-1.826-5.027-.895-5.438.546-.241 3.67-2.298 6.941-4.57l5.947-4.131-.634-2.224c-.578-2.021-.748-2.196-1.87-1.932-.678.159-3.995 2.183-7.372 4.496l-6.137 4.206-2.477-5.013c-8.051-16.302-22.11-36.343-34.33-48.937-9.349-9.635-17.709-17.395-19.296-17.911-1.061-.344-1.708-.115-2.154.766Zm43.013 117.106c0 1.33-6.912 4.894-9.613 4.957-4.544.105-5.08-.578-2.323-2.961 3.131-2.706 5.154-3.492 8.089-3.145 3.368.399 3.847.542 3.847 1.149Z" clip-rule="evenodd"/><path fill="#0697EB" d="m540.132 148.26-25.586-20.62-.003.007 25.589 20.613Zm3.109 8.294 23.302-9.008-23.302 9.008Zm12.902 31.777 26.636-.875v-.001l-26.636.876Zm9.627 54.499-27.952-5.706.002.014 27.95 5.692Zm-.249 3.318-27.035-16.979-.003.009-.002.009 27.04 16.961Zm-9.989 11.529-21.263-26.282h-.001l21.264 26.282Zm-2.445 6.353 25.982-2.909-.002-.006-25.98 2.915Zm7.701 4.949-7.248-30.94h-.001l7.249 30.94Zm3.862 2.029-27.284-1.644.001.005 27.283 1.639Zm17.036 2.23 18.529 28.283.002-.001-18.531-28.282Zm5.247-4.33-21.964-25.626-.002.002 21.966 25.624Zm5.457-2.259.007 29.586.003.001-.01-29.587Zm16.196 1.15-12.749-30.515-.004.001 12.753 30.514Zm9.756-8.184 23.225 24.245-23.225-24.245Zm6.82-6.847-20.212-27.147 20.212 27.147Zm17.15 9.486 16.951-18.105-.001-.001-16.95 18.106Zm11.231 5.63 24 23.237.001-.002-24.001-23.235Zm-.803-9.293-25.346 4.608.001.001 25.345-4.609Zm-15.863-29.392 21.253-12.481-21.253 12.481Zm-2.726-4.191-24.101-23.096-10.55 14.986 13.398 20.591 21.253-12.481Zm3.699-5.254-24.099-23.098-.002.001 24.101 23.097Zm-15.931-12.975 20.828 26.657.004-.003-20.832-26.654Zm.593 2.75 17.506-17.471-.002-.004-17.504 17.475Zm1.628 1.889-17.507 17.472 16.238 18.845 17.131-6.729-15.862-29.588Zm2.058-.808-15.862-29.589-.001.001 15.863 29.588Zm13.293-1.405 22.323 25.26.004-.004-22.327-25.256Zm-6.746 9.01 24.833 21.977.004-.006-24.837-21.971Zm-1.704 2.65 20.819 26.665.024-.021.025-.02-20.868-26.624Zm-4.046-4.331-17.609 17.352.001.001 17.608-17.353Zm-11.872-4.485-26.83.193 26.83-.193Zm4.084 23.808-27.65-14.457-.001.004 27.651 14.453Zm-4.612 3.867-16.694-29.238 16.694 29.238Zm-4.24 1.908-16.694-29.238-20.483 9.221 12.971 27.233 24.206-7.216Zm.986 2.071-24.206 7.215.006.012 24.2-7.227Zm10.212-1.571 20.505 26.92.002-.002-20.507-26.918Zm1.947-3.525-27.175-16.493-.002.006 27.177 16.487Zm-1.1-12.577-27.584-3.136v.001l27.584 3.135Zm8.881 2.068-19.565 14.903.001.001 19.564-14.904Zm15.153 25.773 24.465-6.662-.001-.004-24.464 6.666Zm-2.872 4.071 17.021-18.025-.001-.001-17.02 18.026Zm-29.215-1.639 23.221 24.25-23.221-24.25Zm-5.884 5.913-18.527-28.285-.002.001 18.529 28.284Zm-22.198-1.395 3.269 30.446h.002l-3.271-30.446Zm-17.853.996 16.231 29.439.004-.002-16.235-29.437Zm-10.645 1.677-19.891 14.46.014.02.015.019 19.862-14.499Zm1.077-1.654 20.637 26.814.006-.005-20.643-26.809Zm10.436-11.919-25.947-19.871-.003.006 25.95 19.865Zm-.626-18.27-27.841-4.775v.001l27.841 4.774Zm-19.125-71.558 24.152-7.33-.003-.005-24.149 7.335Zm4.481 3.147 14.813-20.338-.002-.002-14.811 20.34Zm26.145 31.932-21.054 12.783 21.054-12.783Zm21.204 42.73 26.14-2.449-.002-.005-26.138 2.454Zm1.887 5.37-20.005 14.303.001.002 20.004-14.305Zm-.837-14.324-25.628 3.882 25.628-3.882Zm-.895-5.438-16.569-29.293-.003.001 16.572 29.292Zm6.941-4.57 19.585 27.603.002-.001-19.587-27.602Zm5.947-4.131 19.587 27.602 12.67-8.801-5.546-19.418-26.711.617Zm-.634-2.224 26.71-.617-.002-.008-26.708.625Zm-1.87-1.932 13.225 30.409.007-.002-13.232-30.407Zm-7.372 4.496 19.492 27.668-19.492-27.668Zm-6.137 4.206-23.927 7.791 18.315 37.077 25.103-17.201-19.491-27.667Zm-2.477-5.013-23.928 7.788.002.003 23.926-7.791Zm-34.33-48.937-15.68 19.469.001.001 15.679-19.47Zm11.95 104.918 8.843 30.958h.001l-8.844-30.958Zm-2.323-2.961-21.077-26.446-.001.002 21.078 26.444Zm8.089-3.145-5.419-30.791h-.007l5.426 30.791Zm-64.755-136.57c-.973 1.922-2.801 6.097-2.776 12.476.023 6.026 1.686 11.211 2.771 14.105 1.663 4.437 4.281 9.232 5.401 11.335l46.604-18.017a147.982 147.982 0 0 1-1.479-2.823c-.311-.619.202.331.814 1.965.657 1.753 2.139 6.121 2.16 11.475.022 5.707-1.63 9.353-2.316 10.71l-51.179-41.226Zm5.396 37.916c3.026 5.686 7.545 16.736 9.568 23.645l53.272-1.753c-3.53-12.052-10.216-28.599-16.236-39.909l-46.604 18.017Zm9.568 23.644c2.382 8.133 6.464 30.402 8.311 47.917l55.904 11.412c-2.048-19.411-6.703-46.6-10.943-61.08l-53.272 1.751Zm8.313 47.931a24.93 24.93 0 0 1-.145-2.542 17.516 17.516 0 0 1 .221-2.87c.081-.504.248-1.421.59-2.557l54.07 33.958c1.336-4.44 1.673-9.812 1.165-14.605l-55.901-11.384Zm.661-7.951c.276-.922.556-1.64.755-2.114.207-.492.395-.884.535-1.16.269-.535.49-.902.586-1.057.189-.306.261-.388.115-.19a35.695 35.695 0 0 1-1.597 1.952 69.8 69.8 0 0 1-2.466 2.693 42.141 42.141 0 0 1-2.14 2.084l42.527 52.564c2.709-2.408 5.652-5.513 7.943-8.158 1.166-1.346 2.365-2.804 3.403-4.206a37.114 37.114 0 0 0 1.73-2.54c.315-.511 1.731-2.756 2.689-5.946l-54.08-33.922Zm-4.213 2.208c-1.348 1.198-5.508 4.769-7.843 10.836-3.393 8.815-1.613 18.163.682 24.714l51.96-5.83a31.446 31.446 0 0 1 1.676 8.076c.285 4.041-.309 7.52-1.368 10.271-.941 2.446-2.078 3.863-2.458 4.315-.391.464-.561.572-.12.181l-42.529-52.563Zm-7.163 35.544c4.533 12.944 13.62 21.625 20.734 26.197 7.14 4.588 14.224 6.518 20.199 6.784l-14.499-61.881c2.467.11 6.175.918 10.578 3.748 4.377 2.813 11.368 9.098 14.952 19.334l-51.964 5.818Zm40.931 32.981c1.09.048.839.051.332-.005a22.175 22.175 0 0 1-2.698-.482c-1.317-.315-3.898-1.035-7.107-2.72-3.5-1.839-7.594-4.749-11.471-9.114a44.822 44.822 0 0 1-7.399-11.42c-1.983-4.435-2.689-8.442-2.327-6.815l54.569 3.288c-.042-.188-.261-1.193-.574-2.348a45.017 45.017 0 0 0-2.356-6.605 47.407 47.407 0 0 0-7.822-12.096c-4.046-4.555-8.341-7.622-12.087-9.59-6.125-3.217-11.227-3.643-11.954-3.724-1.483-.164-3.008-.224-3.602-.25l14.496 61.881Zm-30.669-30.551c3.936 17.709 17.135 27.603 23.271 31.072 6.341 3.584 12.11 4.824 15.846 5.313 7.634 1 16.514.063 23.731-4.233l-37.059-56.566c1.499-.892 2.337-.806 3.12-.703.311.041 2.953.352 6.904 2.585 3.746 2.118 15.293 10.239 18.754 25.81l-54.567-3.278Zm62.85 32.151c3.009-1.792 6.562-4.892 8.682-6.988l-43.932-51.248c-.401.397-1.003.941-1.607 1.439-.29.239-.507.407-.631.499-.059.044-.065.047-.021.017.033-.023.189-.129.446-.282l37.063 56.563Zm8.679-6.986c.795-.785.918-.887.833-.814-.019.016-1.344 1.209-3.649 2.163-2.93 1.213-6.302 1.608-9.78 1.181-2.551-.314-4.579-1.048-3.903-.829l-.014-59.172c-1.503-.488-10.151-3.622-18.655-.103-4.801 1.988-8.449 6.015-8.759 6.322l43.927 51.252Zm-16.496 1.702c5.393 1.751 11.908 2.28 14.804 2.486 2.935.208 9.365.591 14.135-.409l-25.506-61.028a13.781 13.781 0 0 1 1.278-.21c.236-.028.381-.037.409-.038.043-.003-.103.006-.476.006a47.165 47.165 0 0 1-3.049-.128 47.572 47.572 0 0 1-3.075-.307c-.38-.052-.525-.082-.469-.071.036.007.199.04.466.105.242.059.758.192 1.462.42l.021 59.174Zm28.934 2.078c10.024-2.1 16.047-9.377 20.233-14.454l-46.45-48.491a61.827 61.827 0 0 1-2.348 2.717c-.283.304-.497.52-.651.67a8.177 8.177 0 0 1-.173.163l-.045.04-.015.013.016-.013.048-.038a5.43 5.43 0 0 1 .195-.141c.176-.121.444-.291.804-.479.363-.191.799-.388 1.305-.57a11.951 11.951 0 0 1 1.584-.447l25.497 61.03Zm20.233-14.454a39.726 39.726 0 0 1 2.356-2.566c.446-.448.841-.825 1.151-1.107.348-.317.438-.377.299-.271l-40.423-54.295c-3.201 2.435-7.267 6.637-9.833 9.749l46.45 48.49Zm3.806-3.944c.45-.342.385-.268.058-.071-.327.196-1.444.846-3.224 1.332-1.922.524-4.621.861-7.986.337-3.39-.529-6.43-1.77-8.844-3.105-4.017-2.222-6.188-4.682-5.056-3.547.765.769 2.153 2.267 5.042 5.498l33.899-36.212c-2.714-3.035-5.668-6.314-8.415-9.071-2.381-2.391-7.236-7.128-13.537-10.613-8.218-4.545-16.209-5.59-22.918-3.759-4.905 1.339-8.417 4.136-9.442 4.916l40.423 54.295Zm-20.012.442c2.004 2.242 4.447 4.888 7.065 7.349 2.367 2.224 6.801 6.152 12.571 9.044 6.921 3.469 14.768 4.931 21.858 2.517 5.958-2.029 9.236-6.123 10.688-8.147l-48.001-46.474c.343-.478 2.513-3.55 7.223-5.154 5.84-1.988 12.296-.698 17.539 1.93a30.481 30.481 0 0 1 4.81 2.999c.959.732 1.56 1.29 1.718 1.439.221.208-.166-.143-1.569-1.712l-33.902 36.209Zm52.183 10.761c2.64-3.679 5.88-10.117 5.003-20.276-.641-7.419-3.419-14.25-4.461-16.862l-50.691 9.219c.381.955.323.885.141.295-.188-.61-.782-2.629-1.017-5.355-.264-3.057-.008-6.14.854-8.944.778-2.534 1.819-4.061 2.168-4.548l48.003 46.471Zm.542-37.137c-5.053-12.666-11.318-23.988-19.956-37.264l-42.506 24.962c6.488 9.97 9.515 15.866 11.77 21.519l50.692-9.217Zm-19.956-37.264-2.727-4.191-42.505 24.962 2.726 4.191 42.506-24.962Zm.121 31.387 3.699-5.254-48.201-46.194-3.699 5.255 48.201 46.193Zm3.698-5.252c1.377-1.957 3.977-4.919 5.057-5.909l-42.93-52.2c-3.311 3.033-7.633 8.089-10.325 11.912l48.198 46.197Zm5.057-5.909a60.604 60.604 0 0 0 4.063-4.067 31.794 31.794 0 0 0 2.092-2.563 22.495 22.495 0 0 0 3.05-5.801c.377-1.07 1.458-4.27 1.458-8.968l-56.271-18.284c0-2.558.318-4.522.577-5.755a23.67 23.67 0 0 1 .84-3.015 20.681 20.681 0 0 1 1.262-2.881 16.573 16.573 0 0 1 1.2-1.932c.348-.481.538-.673.376-.492-.249.277-.815.86-1.577 1.558l42.93 52.2Zm10.663-21.399c0-7.375-2.492-13.735-4.171-17.275a52.043 52.043 0 0 0-6.017-9.7c-2.978-3.807-10.173-11.879-20.731-15.309v59.167c-5.235-1.701-9.179-4.586-11.346-6.394a39.047 39.047 0 0 1-5.72-5.912 40.273 40.273 0 0 1-4.653-7.537c-1.342-2.828-3.633-8.51-3.633-15.324l56.271 18.284Zm-30.919-42.284c-4.806-1.562-8.883-1.581-9.772-1.598a56.956 56.956 0 0 0-5.092.155c-3.088.22-6.498.648-9.657 1.148-3.162.501-6.495 1.142-9.401 1.87-1.431.359-3.049.81-4.608 1.367-.89.318-4.177 1.459-7.134 3.923l41.665 53.307a15.827 15.827 0 0 1-1.957 1.396c-.472.284-.861.482-1.117.605-.49.236-.809.349-.833.357-.044.016.249-.086.998-.274 1.454-.364 3.558-.785 5.892-1.155 2.336-.37 4.48-.622 5.988-.729.782-.056 1.068-.049.955-.051a12.801 12.801 0 0 1-1.172-.087c-.357-.04-.912-.114-1.618-.25-.67-.129-1.762-.37-3.137-.817v-59.167Zm-45.659 6.861c-.115.096-.55.456-1.02.89a20.177 20.177 0 0 0-2.443 2.694c-2.143 2.844-6.326 10.123-3.72 22.202 2.064 9.567 7.4 16.455 8.216 17.543 1.354 1.808 2.793 3.447 2.885 3.553l35.007-34.95c-.702-.814.14.126 1.077 1.377.398.531 5.496 7.004 7.484 16.218 2.53 11.727-1.567 18.716-3.479 21.253-1.44 1.911-3.081 3.142-2.351 2.534l-41.656-53.314Zm3.915 46.879 1.627 1.889 35.013-34.944-1.628-1.888-35.012 34.943Zm34.996 14.005 2.058-.808-31.725-59.176-2.058.808 31.725 59.176Zm2.057-.808c-.448.176-.749.269-.751.269-.048.015-.018.005.112-.031.264-.074.69-.187 1.283-.335a157.477 157.477 0 0 1 8.017-1.749c.501-.091.656-.111.562-.099a17.69 17.69 0 0 1-1.048.098 20.86 20.86 0 0 1-1.952.03 24.21 24.21 0 0 1-2.284-.177 26.285 26.285 0 0 1-2.005-.328 28.888 28.888 0 0 1-3.235-.854v-59.167c-4.185-1.36-7.425-1.373-7.71-1.382a24.671 24.671 0 0 0-2.262.038c-.875.054-1.612.147-2.01.201-.876.117-1.775.272-2.512.406-1.546.283-3.401.663-5.183 1.051-2.658.579-7.98 1.767-10.745 2.852l31.723 59.177Zm-1.301-3.176c-6.694-2.174-15.997-7.936-22.475-19.111-5.366-9.257-5.662-17.037-5.626-19.94.071-5.791 1.836-9.512 1.99-9.865.869-1.994 1.806-3.252 1.87-3.341.272-.379.467-.611.526-.68.078-.091.118-.133.12-.136l44.655 50.512a30.322 30.322 0 0 0 2.702-3.225c.293-.409 1.395-1.934 2.348-4.122.196-.449 1.984-4.249 2.056-10.098.036-2.932-.266-10.736-5.643-20.011-6.488-11.193-15.807-16.968-22.523-19.15v59.167Zm-23.591-53.077c-3.16 3.305-6.766 8.187-9.258 12.299l49.673 43.942c1.303-2.151 3.279-4.723 4.232-5.721l-44.647-50.52Zm-9.254 12.293c-.345.569-.65 1.057-.846 1.361-.108.167-.121.184-.064.101.018-.026.149-.217.347-.482a17.812 17.812 0 0 1 2.824-2.977l41.735 53.248c1.296-1.086 2.162-2.141 2.289-2.294.31-.369.547-.681.675-.851.265-.353.48-.663.598-.836.257-.374.507-.758.709-1.071.422-.656.914-1.448 1.398-2.245l-49.665-43.954Zm2.31-2.038c5.637-4.688 12.39-4.634 16.508-3.965 3.995.649 7.206 2.105 8.818 2.907a38.801 38.801 0 0 1 6.286 3.942c1.77 1.358 3.021 2.559 3.233 2.761.736.7 1.141 1.146.977.972a61.945 61.945 0 0 1-1.441-1.636l-35.217 34.706a146.312 146.312 0 0 0 4.109 4.618c.57.61 1.583 1.681 2.757 2.798a46.654 46.654 0 0 0 3.758 3.226 39.79 39.79 0 0 0 6.442 4.046c1.632.812 4.859 2.274 8.868 2.925 4.131.671 10.895.723 16.539-3.97l-41.637-53.33Zm34.382 4.983c-3.124-3.651-6.335-7.197-9.24-10.144-1.403-1.423-3.172-3.152-5.08-4.803a54.628 54.628 0 0 0-4.094-3.227c-1.144-.811-5.084-3.592-10.25-5.271v59.168a33.23 33.23 0 0 1-6.112-2.718 35.157 35.157 0 0 1-2.943-1.875 30.781 30.781 0 0 1-2.32-1.807c-.547-.474-.611-.576-.055-.011 1.012 1.027 2.739 2.895 4.875 5.391l35.219-34.703Zm-28.664-23.445c-4.939-1.605-12.976-2.903-20.05 1.513-6.975 4.353-9.032 11.789-9.603 16.482-.951 7.817 1.258 15.78 2.005 18.509l53.659-.385c-.159-.582-.055-.302.078.52.093.568.529 3.275.108 6.731-.438 3.599-2.142 10.32-8.542 14.315-6.499 4.056-13.738 2.755-17.655 1.483v-59.168Zm-27.648 36.504c.648 2.365 1.534 6.467 2.213 10.424.328 1.915.531 3.348.623 4.167.048.431.029.37.011-.028a20.345 20.345 0 0 1-.01-1.439c.015-.579.07-2.091.427-3.966l55.3 28.913c.701-3.686.533-7.129.49-8.089a68.232 68.232 0 0 0-.365-4.442c-.293-2.612-.73-5.498-1.204-8.259-.926-5.394-2.295-12.072-3.826-17.667l-53.659.386Zm3.263 9.162c.267-1.404.824-3.523 2.034-5.722 1.199-2.179 2.585-3.615 3.634-4.495.497-.417.913-.704 1.174-.873.26-.169.43-.261.455-.275.01-.005-.223.119-.952.447l33.388 58.475c1.542-.694 4.842-2.155 7.682-4.536 4.262-3.573 6.806-8.426 7.887-14.116l-55.302-28.905Zm6.345-10.918-4.24 1.908 33.388 58.476 4.24-1.909-33.388-58.475Zm-11.752 38.362.986 2.07 48.412-14.431-.986-2.07-48.412 14.431Zm.992 2.082a58.538 58.538 0 0 0 3.959 7.025 51.197 51.197 0 0 0 4.109 5.417 46.34 46.34 0 0 0 4.934 4.883c1.957 1.662 6.501 5.256 12.67 7.26v-59.167c6.102 1.983 10.568 5.526 12.435 7.112a43.46 43.46 0 0 1 4.637 4.582c1.743 2 2.887 3.685 3.377 4.427a32.927 32.927 0 0 1 2.279 4.006l-48.4 14.455Zm25.672 24.585c5.985 1.945 10.499 1.302 10.762 1.276a23.247 23.247 0 0 0 2.989-.503 29.269 29.269 0 0 0 2.819-.828 56.33 56.33 0 0 0 3.986-1.571c1.55-.674 5.803-2.545 8.689-4.837l-41.01-53.839c.445-.354.792-.588.95-.692.178-.117.296-.187.33-.207.06-.035 0 .002-.212.111-.421.216-1.036.508-1.701.796-.698.304-1.152.475-1.267.514-.11.038.266-.1.944-.26a18.251 18.251 0 0 1 2.353-.388c.601-.06 1.65-.141 3.006-.091 1.112.04 3.819.201 7.362 1.352v59.167Zm29.247-6.465c3.194-2.537 5.045-5.69 5.817-7.087a32.054 32.054 0 0 0 2.8-6.868l-54.354-32.975c.363-1.307.766-2.146 1.074-2.703.181-.328.472-.815.907-1.397a15.238 15.238 0 0 1 2.741-2.805l41.015 53.835Zm8.616-13.95c1.081-3.889 1.635-8.188 1.133-13.936-.319-3.647-1.108-8.015-1.824-11.998l-55.169-6.271c.404 2.246.662 3.725.832 4.785.082.508.127.815.149.98.022.168.01.101-.01-.125a17.82 17.82 0 0 1-.061-1.309 21.05 21.05 0 0 1 .088-2.158 19.05 19.05 0 0 1 .294-2.03c.105-.519.2-.863.217-.924l54.351 32.986Zm-.691-25.933c-.484-2.694-.919-5.16-1.227-6.949-.156-.907-.267-1.566-.332-1.967-.035-.219-.038-.243-.024-.147a31.68 31.68 0 0 1 .261 2.515c.024.367.068 1.121.068 2.06l-56.272-18.284c0 1.609.132 2.921.151 3.125.045.47.091.852.117 1.059.053.426.106.789.134.983.063.424.131.854.187 1.199.119.728.273 1.641.444 2.636.347 2.015.815 4.67 1.324 7.497l55.169 6.273Zm-1.254-4.488c0 5.916-1.901 15.133-10.492 19.601-7.552 3.928-15.542 1.569-18.694.413-5.977-2.193-10.299-5.898-10.515-6.073a38.375 38.375 0 0 1-2.436-2.155c-.405-.39-.682-.676-.789-.788-.271-.282-.025-.038.841.981a139.22 139.22 0 0 1 5.07 6.343l39.13-29.806c-2.815-3.779-6.125-7.883-8.811-11.041-1.273-1.496-2.9-3.364-4.509-5.04-.516-.539-2.385-2.497-4.798-4.459-.399-.325-4.863-4.124-10.937-6.352-3.2-1.175-11.227-3.536-18.803.405-8.616 4.481-10.529 13.726-10.529 19.687l56.272 18.284Zm-37.014 18.323c2.956 3.967 7.627 11.818 10.254 17.534l48.927-13.331c-5.015-10.911-12.886-24.392-20.053-34.012l-39.128 29.809Zm10.253 17.531c1.107 2.41 1.357 3.265 1.187 2.716-.07-.225-.255-.833-.456-1.715a30.476 30.476 0 0 1-.699-4.952c-.091-1.57-.422-7.839 2.886-13.673 1.9-3.352 5.136-6.752 10.229-8.405 5.099-1.655 10.352-1.004 14.615.381v59.167c4.396 1.429 9.763 2.085 14.958.399 5.188-1.684 8.5-5.151 10.459-8.605 3.424-6.038 3.135-12.652 3.016-14.696-.289-4.968-1.636-9.366-2.131-10.96-1.345-4.32-3.276-8.937-5.135-12.981l-48.929 13.324Zm27.762-25.648c3.574 1.161 6.306 2.779 7.413 3.457a40.526 40.526 0 0 1 5.507 4.072c.787.693 1.315 1.215 1.373 1.272.217.213.175.18-.231-.248a171.753 171.753 0 0 1-3.211-3.521l-34.043 36.051a261.378 261.378 0 0 0 5.083 5.561c.713.754 1.613 1.691 2.527 2.59a54.289 54.289 0 0 0 2.226 2.078c.468.412 1.458 1.27 2.748 2.236.159.12 4.648 3.683 10.608 5.619v-59.167Zm10.85 5.031c-3.635-4.084-7.524-8.248-11.452-11.78-3.546-3.188-10.103-8.623-18.407-11.321v59.168a27.069 27.069 0 0 1-6.656-3.24 21.598 21.598 0 0 1-1.44-1.051 11.478 11.478 0 0 1-.468-.391c-.013-.011.078.07.287.274.207.203.498.495.885.898a123.62 123.62 0 0 1 3.21 3.496l34.041-36.053Zm-29.859-23.101c-11.578-3.762-20.26-.892-25.899 2.518-5.288 3.198-9.791 7.986-13.697 12.719l46.441 48.501c1.489-1.804 2.629-3.036 3.484-3.859.877-.845 1.212-1.025 1.046-.924-.166.1-1.246.734-3.235 1.04-2.17.333-4.969.203-8.14-.827v-59.168Zm-39.596 15.237a37.212 37.212 0 0 1-2.191 2.422c-.334.336-.528.512-.572.551-.02.017.068-.062.249-.202.095-.073.244-.186.443-.325.191-.133.49-.335.88-.567l37.053 56.569c2.749-1.636 5.152-4.046 6.087-4.986a73.93 73.93 0 0 0 4.492-4.961l-46.441-48.501Zm-1.193 1.88c3.35-1.994 6.217-1.528 4.738-1.621-.643-.04-1.833-.164-3.86-.487-2-.318-4.541-.787-7.817-1.448l6.541 60.891c7.068 1.427 13.423 2.543 18.747 2.877 5.408.34 12.419.099 18.708-3.645l-37.057-56.567Zm-6.937-3.556c-3.49-.705-9.916-1.919-13.396-2.075l14.485 61.88a18.139 18.139 0 0 1-.79-.052c-.154-.013-.259-.025-.3-.029-.075-.008-.051-.007.102.015.305.042.813.12 1.516.238 1.396.234 3.173.561 4.92.914l-6.537-60.891Zm-13.396-2.075c-3.541-.159-6.399.51-6.982.638-1.262.276-2.493.62-3.566.948a75.87 75.87 0 0 0-6.876 2.493l32.47 58.874a40.83 40.83 0 0 1 1.801-.701c.6-.218 1.129-.393 1.544-.52.205-.063.357-.106.457-.133.106-.028.109-.027.022-.008a12.107 12.107 0 0 1-.868.149 17.475 17.475 0 0 1-2.13.158c-.371.007-.839.006-1.387-.018l-14.485-61.88Zm-17.421 4.078c-2.337.976-3.119 1.068-2.627.991.082-.013 2.033-.368 5.152.135 1.62.262 4.674.925 8.486 2.876 4.019 2.056 9.573 5.934 14.438 12.613l-39.724 28.999c10.152 13.938 22.546 16.319 25.452 16.787 4.301.694 7.766.29 9.661-.008 4.12-.649 8.167-2.072 11.625-3.516l-32.463-58.877Zm25.478 16.654c5.968 8.213 7.691 16.066 8.086 20.76.381 4.522-.275 7.777-.697 9.425-.847 3.308-2.147 5.381-2.617 6.102-1.149 1.764-2.279 2.791-2.949 3.334l-41.274-53.628a22.796 22.796 0 0 0-4.765 5.264c-.665 1.021-2.099 3.371-3.006 6.914-.452 1.766-1.12 5.129-.731 9.745.403 4.79 2.153 12.725 8.171 21.005l39.782-28.921Zm1.829 39.616c2.645-2.143 5.973-5.777 8.108-8.216a105.904 105.904 0 0 0 3.582-4.293c.476-.608 2.649-3.289 4.052-6.354l-51.899-39.73c.447-.975.845-1.626.955-1.806.156-.253.256-.397.26-.402.004-.006-.111.156-.391.514a69.207 69.207 0 0 1-2.296 2.742 86.522 86.522 0 0 1-2.678 2.929c-.4.415-.716.73-.943.947-.265.255-.256.23-.035.05l41.285 53.619Zm15.74-18.857c2.652-5.789 3.087-11.826 2.902-17.225-.157-4.565-.833-10.111-1.634-16.142l-55.682-9.548c.398 2.992.669 5.191.848 6.86.182 1.708.225 2.477.233 2.712.008.218-.04-.621.152-1.955.1-.7.258-1.479.494-2.296.238-.82.514-1.54.793-2.148l51.894 39.742Zm1.268-33.366c-4.428-33.347-10.65-58.31-22.814-83.663l-48.303 14.659c6.85 14.276 11.548 30.178 15.435 59.454l55.682 9.55Zm-22.817-83.668c-.172-.359-.011-.031.203.45a39.224 39.224 0 0 1 2.109 6.079c.403 1.569 1.585 6.404.939 11.984-.8 6.914-4.635 15.192-14.175 17.699-7.612 2-14.685-.943-17.009-1.994a36.785 36.785 0 0 1-5.946-3.409c-2.722-1.912-4.621-3.858-3.302-2.607.478.453 1.252 1.206 2.701 2.62l29.623-40.68a370.557 370.557 0 0 0-3.625-3.509c-.203-.193-3.084-3.016-6.377-5.329a39.106 39.106 0 0 0-6.299-3.622c-2.417-1.093-9.561-4.051-17.221-2.038-9.589 2.52-13.45 10.838-14.258 17.817-.654 5.645.54 10.57.972 12.253.954 3.714 2.333 6.714 2.478 7.04.395.889.791 1.71.889 1.915l48.298-14.669Zm-34.482 30.82c8.185 7.989 12.51 13.203 19.905 24.377l42.109-25.566c-10.717-16.194-19.176-26.593-32.387-39.487l-29.627 40.676Zm19.905 24.377c7.683 11.61 12.216 20.83 16.12 32.402l52.276-4.909c-6.432-19.069-14.505-35.256-26.287-53.059l-42.109 25.566Zm16.118 32.396c.52 1.544 1.031 3.032 1.446 4.213.199.566.425 1.203.642 1.79a48.223 48.223 0 0 0 1.178 2.929c.158.358.486 1.088.94 1.996.147.293 1.509 3.093 3.816 6.296l40.01-28.606a46.43 46.43 0 0 1 2.709 4.225c.491.868.86 1.585 1.087 2.038a42.795 42.795 0 0 1 1.503 3.343c.093.235.159.408.189.485l.059.16c.006.015-.055-.151-.198-.558-.269-.766-.662-1.908-1.101-3.209l-52.28 4.898Zm8.023 17.226c5.138 7.13 10.874 10.94 14.076 12.719 3.318 1.844 6.071 2.717 7.628 3.139 3.098.842 5.525.97 6.614 1.004a28.34 28.34 0 0 0 5.864-.434c1.373-.246 3.307-.696 5.328-1.55a19.594 19.594 0 0 0 4.738-2.825 18.981 18.981 0 0 0 4.032-4.533c1.377-2.154 3.59-6.519 3.59-13.352l-56.271-18.284c0-6.755 2.187-11.042 3.515-13.119a18.005 18.005 0 0 1 3.819-4.307 16.49 16.49 0 0 1 3.972-2.397 13.754 13.754 0 0 1 2.949-.89c.473-.085 1.617-.268 3.336-.214.72.023 2.822.112 5.662.883 1.428.388 4.068 1.218 7.293 3.01 3.11 1.729 8.774 5.478 13.862 12.54l-40.007 28.61Zm51.87-5.832c0-4.284-.938-8.045-1.001-8.32a58.853 58.853 0 0 0-.806-3.09 121.131 121.131 0 0 0-1.483-4.712 303.866 303.866 0 0 0-3.785-10.557l-51.256 7.764a218.826 218.826 0 0 1 2.696 7.502c.149.445.265.8.349 1.067.089.279.12.39.112.362l-.074-.27a26.6 26.6 0 0 1-.205-.833 32.223 32.223 0 0 1-.645-3.901 31.996 31.996 0 0 1-.173-3.296l56.271 18.284Zm-7.074-26.678c-.211-.557-.358-.948-.468-1.246-.113-.307-.138-.383-.116-.32.013.04.161.468.35 1.126.176.616.537 1.944.821 3.669.604 3.667 1.144 11.008-2.726 17.466-1.71 2.853-3.731 4.567-5.155 5.548-1.316.907-2.446 1.399-2.658 1.492l-33.144-58.584c-.346.152-5.411 2.088-8.816 7.77-4.066 6.784-3.576 14.582-2.853 18.972.613 3.721 1.713 6.899 2.058 7.902a141.619 141.619 0 0 0 1.45 3.968l51.257-7.763Zm-9.955 27.737c2.047-.904 4.595-2.635 5.098-2.966a244.909 244.909 0 0 0 4.859-3.295l-39.17-55.206a210.785 210.785 0 0 1-4.126 2.798c-.565.373-.972.634-1.217.786-.128.08-.136.083-.06.039a16.216 16.216 0 0 1 1.478-.743l33.138 58.587Zm9.959-6.262 5.947-4.131-39.173-55.205-5.947 4.132 39.173 55.204Zm13.071-32.35-.635-2.224-53.421 1.234.635 2.224 53.421-1.234Zm-.637-2.232c-.125-.436-.692-2.471-1.575-4.752-.6-1.552-3.377-8.878-10.138-15.867-8.796-9.093-17.879-11.394-23.066-11.703-3.903-.232-6.882.573-7.03.608l26.463 60.814c-.082.02-.605.144-1.35.253-.699.102-2.235.291-4.312.168-4.822-.287-13.615-2.468-22.157-11.298-6.506-6.725-9.062-13.645-9.433-14.604-.653-1.688-.983-2.944-.819-2.368l53.417-1.251Zm-41.802-31.716c-2.139.503-3.739 1.266-4.02 1.396-.632.293-1.191.585-1.601.807-.84.454-1.716.971-2.524 1.463a128.187 128.187 0 0 0-5.495 3.572l38.984 55.335a92.626 92.626 0 0 1 3.901-2.54c.528-.323.82-.487.898-.529.049-.027-.113.064-.421.206a16.68 16.68 0 0 1-1.754.683c-.348.114-.868.272-1.519.425l-26.449-60.818Zm-13.64 7.238-6.137 4.205 38.983 55.335 6.138-4.205-38.984-55.335Zm37.281 24.082-2.476-5.013-47.853 15.582 2.476 5.013 47.853-15.582Zm-2.475-5.011c-10.073-20.395-26.896-44.455-42.578-60.617l-31.359 38.939c8.758 9.026 20.052 25.047 26.081 37.255l47.856-15.577Zm-42.578-60.617c-5.079-5.235-10.077-10.156-14.236-14.017-2.033-1.887-4.22-3.85-6.297-5.563a66.306 66.306 0 0 0-4.019-3.083c-.642-.451-4.943-3.581-10.424-5.362v59.167a31.762 31.762 0 0 1-3.948-1.587 33.574 33.574 0 0 1-4.672-2.73c-.804-.565-1.227-.925-1.082-.806.228.188 1.013.864 2.437 2.185 2.755 2.557 6.612 6.334 10.881 10.734l31.36-38.938Zm-34.976-28.025c-4.239-1.378-10.435-2.485-16.591-.298-6.127 2.177-9.428 6.631-11.149 10.027l51.172 41.239c-1.274 2.516-4.029 6.415-9.456 8.343-5.456 1.939-10.798.889-13.976-.144v-59.167Zm12.723 138.313c0-6.083 1.811-9.929 2.549-11.355a17.703 17.703 0 0 1 2.335-3.482c.988-1.145 1.815-1.765 1.956-1.871.401-.303.417-.261-.067-.012-.414.213-.76.354-.869.392-.051.018.14-.054.546-.15.264-.063 1.437-.339 3.229-.381l17.688 61.916c4.249-.099 7.682-1.273 9.058-1.76a44.593 44.593 0 0 0 5.486-2.386c1.582-.816 3.495-1.918 5.275-3.265a23.292 23.292 0 0 0 3.597-3.341 21.047 21.047 0 0 0 2.782-4.118c.841-1.625 2.706-5.654 2.706-11.903l-56.271-18.284Zm9.68-16.859c-.886.02-.233-.051 1.144.133.623.083 2.732.38 5.575 1.446 2.065.774 9.93 3.887 17.083 13.004 9.016 11.491 9.77 22.883 8.863 28.891-.758 5.019-2.719 7.971-3.232 8.736-1.242 1.853-2.383 2.706-1.834 2.231l-42.157-52.888c-.83.717-2.938 2.548-4.713 5.196-.779 1.163-2.898 4.467-3.703 9.794-.953 6.317-.135 17.977 9.06 29.695 7.331 9.344 15.489 12.647 17.964 13.574a32.493 32.493 0 0 0 7.157 1.804c2.67.358 5.093.332 6.479.3l-17.686-61.916Zm27.598 54.442c.951-.822.426-.167-1.159.449a12.68 12.68 0 0 1-3.284.773c-1.259.129-2.351.07-3.12-.021l-10.852-61.582c-11.613-1.374-18.731 3.162-23.74 7.49l42.155 52.891Zm-7.57 1.201c2.716.321.888.23-1.527-.491-.936-.279-2.914-.919-5.403-2.203-2.475-1.277-6.739-3.847-11.136-8.582-11.012-11.858-11.642-24.241-11.642-27.508l56.271 18.284c0-3.571-.69-16.2-11.897-28.268-8.191-8.821-16.712-11.064-17.605-11.33-3.495-1.044-7.247-1.406-7.899-1.484l10.838 61.582Z" mask="url(#aL)"/><g opacity=".2" transform="rotate(-74.087 393.996 85.285)"><circle cx="393.996" cy="85.285" r="15.759" fill="url(#aM)"/><circle cx="393.996" cy="85.285" r="15.759" fill="url(#aN)"/></g><g opacity=".2" transform="rotate(-74.087 749.76 137.76)"><circle cx="749.76" cy="137.76" r="7.898" fill="url(#aO)"/><circle cx="749.76" cy="137.76" r="7.898" fill="url(#aP)"/></g><circle cx="821.581" cy="73.575" r="21.374" fill="url(#aQ)" transform="rotate(9.41 821.581 73.575)"/><circle cx="821.581" cy="73.575" r="21.374" fill="url(#aR)" transform="rotate(9.41 821.581 73.575)"/><g opacity=".6" transform="rotate(-40.967 852.95 221.045)"><circle cx="852.95" cy="221.045" r="15.759" fill="url(#aS)"/><circle cx="852.95" cy="221.045" r="15.759" fill="url(#aT)"/></g><g opacity=".6" transform="rotate(-40.967 479.262 263.998)"><circle cx="479.262" cy="263.998" r="6.001" fill="url(#aU)"/><circle cx="479.262" cy="263.998" r="6.001" fill="url(#aV)"/></g><g filter="url(#aW)" transform="rotate(-35.854 410.229 220.814)"><circle cx="410.229" cy="220.814" r="13.412" fill="url(#aX)"/><circle cx="410.229" cy="220.814" r="13.412" fill="url(#aY)"/></g><g filter="url(#aZ)"><path fill="url(#ba)" d="M460.76 384.81c0-1.719 1.85-2.803 3.349-1.962l53.682 30.126a4.497 4.497 0 0 1 2.297 3.923v21.605c0 1.719-1.851 2.802-3.35 1.961l-53.681-30.126a4.497 4.497 0 0 1-2.297-3.922V384.81Z"/></g><g filter="url(#bb)"><path fill="url(#bc)" d="M463.92 387.284c0-.867.94-1.408 1.689-.972l49.839 28.946a2.249 2.249 0 0 1 1.12 1.945v18.592c0 .867-.94 1.408-1.69.973l-49.839-28.946a2.25 2.25 0 0 1-1.119-1.945v-18.593Z"/></g><path stroke="#4C4155" stroke-linecap="round" stroke-width="1.125" d="M513.857 416.142c-1.999-.895-6.946-1.768-10.734 1.894-4.736 4.578-8.525.789-10.735-1.894-2.21-2.684.158-10.104-8.841-11.367-8.998-1.262-4.735 2.526-9.787 3.473-4.041.758-7.051-.736-8.051-1.578"/><defs><linearGradient id="e" x1="421.271" x2="431.65" y1="359.809" y2="561.067" gradientUnits="userSpaceOnUse"><stop stop-color="#2F2B6B"/><stop offset="1" stop-color="#8F8E69"/></linearGradient><linearGradient id="f" x1="828.426" x2="739.026" y1="383.603" y2="530.353" gradientUnits="userSpaceOnUse"><stop stop-color="#252341"/><stop offset="1" stop-color="#8B8773" stop-opacity="0"/></linearGradient><linearGradient id="g" x1="794.691" x2="750.272" y1="347.619" y2="501.678" gradientUnits="userSpaceOnUse"><stop/><stop offset="1" stop-color="#1E1A51" stop-opacity="0"/></linearGradient><linearGradient id="h" x1="415.164" x2="459.583" y1="377.98" y2="487.059" gradientUnits="userSpaceOnUse"><stop/><stop offset="1" stop-color="#2B266A" stop-opacity="0"/></linearGradient><linearGradient id="j" x1="542.657" x2="548" y1="414.862" y2="635" gradientUnits="userSpaceOnUse"><stop stop-color="#0697EB"/><stop offset="1" stop-color="#06F"/></linearGradient><linearGradient id="k" x1="554.603" x2="507.936" y1="462.32" y2="494.368" gradientUnits="userSpaceOnUse"><stop stop-color="#39376F" stop-opacity="0"/><stop offset="1" stop-color="#FEF9D0" stop-opacity=".06"/></linearGradient><linearGradient id="l" x1="693.343" x2="694.959" y1="462.944" y2="604.167" gradientUnits="userSpaceOnUse"><stop stop-color="#1C1C41"/><stop offset="1" stop-color="#191842"/></linearGradient><linearGradient id="o" x1="693.84" x2="695.456" y1="464.324" y2="605.547" gradientUnits="userSpaceOnUse"><stop stop-color="#103A7A"/><stop offset="1" stop-color="#06F"/></linearGradient><linearGradient id="p" x1="701.851" x2="779.443" y1="487.315" y2="487.315" gradientUnits="userSpaceOnUse"><stop stop-color="#1B1B41" stop-opacity="0"/><stop offset="1" stop-color="#FEF19C" stop-opacity=".15"/></linearGradient><linearGradient id="r" x1="705.165" x2="763.422" y1="464.706" y2="472.16" gradientUnits="userSpaceOnUse"><stop stop-color="#7E7EB1"/><stop offset="1" stop-color="#C5C5E2" stop-opacity=".4"/></linearGradient><linearGradient id="t" x1="635.007" x2="356.688" y1="267.215" y2="407.218" gradientUnits="userSpaceOnUse"><stop stop-color="#29296B"/><stop offset=".511" stop-color="#06F" stop-opacity=".51"/><stop offset="1" stop-color="#0697EB"/></linearGradient><linearGradient id="v" x1="613.643" x2="891.962" y1="267.215" y2="407.218" gradientUnits="userSpaceOnUse"><stop stop-color="#29296B"/><stop offset=".511" stop-color="#06F" stop-opacity=".51"/><stop offset="1" stop-color="#0697EB"/></linearGradient><linearGradient id="w" x1="805.374" x2="814.933" y1="340.871" y2="380.792" gradientUnits="userSpaceOnUse"><stop stop-color="#FBFAC4" stop-opacity="0"/><stop offset="1" stop-color="#FCF9BD" stop-opacity=".12"/></linearGradient><linearGradient id="z" x1="453.591" x2="610.9" y1="371.167" y2="504.387" gradientUnits="userSpaceOnUse"><stop stop-color="#39356B"/><stop offset=".304" stop-color="#4E4B7C"/><stop offset=".719" stop-color="#33316B"/><stop offset="1" stop-color="#454389"/></linearGradient><linearGradient id="C" x1="624.332" x2="796.643" y1="477.832" y2="382.245" gradientUnits="userSpaceOnUse"><stop offset=".003" stop-color="#2C2856"/><stop offset=".428" stop-color="#1B1E41"/><stop offset=".837" stop-color="#1E2438"/><stop offset="1" stop-color="#0E1A39"/></linearGradient><linearGradient id="D" x1="642.405" x2="638.109" y1="477.174" y2="477.111" gradientUnits="userSpaceOnUse"><stop stop-color="#4D488B" stop-opacity=".09"/><stop offset="1" stop-color="#555382" stop-opacity="0"/></linearGradient><linearGradient id="E" x1="687.961" x2="645.923" y1="457.556" y2="453.765" gradientUnits="userSpaceOnUse"><stop stop-color="#1A1841" stop-opacity="0"/><stop offset="1" stop-color="#343163" stop-opacity=".31"/></linearGradient><linearGradient id="F" x1="639.452" x2="606.736" y1="487.777" y2="487.777" gradientUnits="userSpaceOnUse"><stop stop-color="#363267" stop-opacity="0"/><stop offset=".46" stop-color="#262356"/><stop offset="1" stop-color="#3B3979" stop-opacity="0"/></linearGradient><linearGradient id="M" x1="749.922" x2="839.446" y1="488.213" y2="603.344" gradientUnits="userSpaceOnUse"><stop stop-color="#F9FFD8"/><stop offset=".179" stop-color="#FFED8D"/><stop offset=".568" stop-color="#54F6FC"/><stop offset="1" stop-color="#555581" stop-opacity="0"/></linearGradient><linearGradient id="N" x1="818.359" x2="881.845" y1="464.341" y2="606.729" gradientUnits="userSpaceOnUse"><stop stop-color="#F9FFD8"/><stop offset=".179" stop-color="#FFED8D"/><stop offset=".536" stop-color="#54F4FC"/><stop offset="1" stop-color="#555581" stop-opacity="0"/></linearGradient><linearGradient id="O" x1="877.697" x2="928.128" y1="442.885" y2="618.45" gradientUnits="userSpaceOnUse"><stop stop-color="#F9FFD8"/><stop offset=".179" stop-color="#FFED8D"/><stop offset=".566" stop-color="#54F4FC"/><stop offset="1" stop-color="#555581" stop-opacity="0"/></linearGradient><linearGradient id="P" x1="499.162" x2="432.191" y1="488.213" y2="587.418" gradientUnits="userSpaceOnUse"><stop stop-color="#F9FFD8"/><stop offset=".179" stop-color="#FFED8D"/><stop offset=".431" stop-color="#54F4FC"/><stop offset="1" stop-color="#555581" stop-opacity="0"/></linearGradient><linearGradient id="Q" x1="430.725" x2="402.253" y1="464.341" y2="611.085" gradientUnits="userSpaceOnUse"><stop stop-color="#F9FFD8"/><stop offset=".179" stop-color="#FFED8D"/><stop offset=".431" stop-color="#54F4FC"/><stop offset="1" stop-color="#555581" stop-opacity="0"/></linearGradient><linearGradient id="R" x1="371.387" x2="301.022" y1="442.885" y2="586.214" gradientUnits="userSpaceOnUse"><stop stop-color="#F9FFD8"/><stop offset=".179" stop-color="#FFED8D"/><stop offset=".534" stop-color="#54F4FC"/><stop offset="1" stop-color="#555581" stop-opacity="0"/></linearGradient><linearGradient id="S" x1="597.715" x2="615.314" y1="463.421" y2="472.45" gradientUnits="userSpaceOnUse"><stop stop-color="#474F91"/><stop offset="1" stop-color="#6E6BBE"/></linearGradient><linearGradient id="Z" x1="575.148" x2="592.747" y1="449.8" y2="458.829" gradientUnits="userSpaceOnUse"><stop stop-color="#474F91"/><stop offset="1" stop-color="#6E6BBE"/></linearGradient><linearGradient id="aa" x1="575.148" x2="592.747" y1="462.519" y2="471.548" gradientUnits="userSpaceOnUse"><stop stop-color="#474F91"/><stop offset="1" stop-color="#6E6BBE"/></linearGradient><linearGradient id="ab" x1="575.148" x2="592.747" y1="474.252" y2="483.28" gradientUnits="userSpaceOnUse"><stop stop-color="#474F91"/><stop offset="1" stop-color="#6E6BBE"/></linearGradient><linearGradient id="ac" x1="597.715" x2="615.314" y1="475.155" y2="484.183" gradientUnits="userSpaceOnUse"><stop stop-color="#474F91"/><stop offset="1" stop-color="#6E6BBE"/></linearGradient><linearGradient id="ad" x1="597.715" x2="615.314" y1="486.887" y2="495.915" gradientUnits="userSpaceOnUse"><stop stop-color="#474F91"/><stop offset="1" stop-color="#6E6BBE"/></linearGradient><linearGradient id="an" x1="442.543" x2="743.805" y1="334.837" y2="403.961" gradientUnits="userSpaceOnUse"><stop stop-color="#9B97CE" stop-opacity=".38"/><stop offset="1" stop-color="#363266" stop-opacity="0"/></linearGradient><linearGradient id="ao" x1="528.219" x2="648.094" y1="383.731" y2="336.4" gradientUnits="userSpaceOnUse"><stop stop-color="#0697EB"/><stop offset="1" stop-color="#06F"/></linearGradient><linearGradient id="ap" x1="468.487" x2="657.749" y1="349.445" y2="416.084" gradientUnits="userSpaceOnUse"><stop stop-color="#0697EB"/><stop offset=".168" stop-color="#0697EB"/><stop offset=".287" stop-color="#0FF"/><stop offset=".417" stop-color="#0697EB"/><stop offset=".587" stop-color="#06F"/><stop offset=".876" stop-color="#06F"/><stop offset="1" stop-color="#665E9E" stop-opacity="0"/></linearGradient><linearGradient id="ar" x1="640.062" x2="781.543" y1="370.346" y2="348.91" gradientUnits="userSpaceOnUse"><stop stop-color="#130E2F"/><stop offset="1" stop-color="#1F1A52"/></linearGradient><linearGradient id="au" x1="485.796" x2="660.022" y1="353.008" y2="496.766" gradientUnits="userSpaceOnUse"><stop stop-color="#28285B"/><stop offset="1" stop-color="#1C1652"/></linearGradient><linearGradient id="aw" x1="485.796" x2="660.395" y1="353.017" y2="496.703" gradientUnits="userSpaceOnUse"><stop stop-color="#28285B"/><stop offset="1" stop-color="#0E0B27"/></linearGradient><linearGradient id="ax" x1="485.799" x2="661.336" y1="353.041" y2="496.54" gradientUnits="userSpaceOnUse"><stop stop-color="#28285B"/><stop offset="1" stop-color="#0FF"/></linearGradient><linearGradient id="ay" x1="465.041" x2="645.585" y1="350.528" y2="458.757" gradientUnits="userSpaceOnUse"><stop offset="0" stop-color="#0697EB"/></linearGradient><linearGradient id="aA" x1="465.388" x2="465.388" y1="349.431" y2="352.895" gradientUnits="userSpaceOnUse"><stop stop-color="#52528C"/><stop offset="1" stop-color="#9F92D4" stop-opacity="0"/></linearGradient><linearGradient id="aB" x1="673.484" x2="604.074" y1="88.585" y2="354.191" gradientUnits="userSpaceOnUse"><stop stop-color="#655B9A"/><stop offset=".475" stop-color="#483E77"/><stop offset="1" stop-color="#302464"/></linearGradient><linearGradient id="aD" x1="673.484" x2="604.074" y1="88.585" y2="354.191" gradientUnits="userSpaceOnUse"><stop stop-color="#655B9A"/><stop offset=".475" stop-color="#483E77"/><stop offset="1" stop-color="#302464"/></linearGradient><linearGradient id="aE" x1="13.711" x2="3.807" y1="-5.593" y2="107.737" gradientUnits="userSpaceOnUse"><stop stop-color="#4F337D" stop-opacity="0"/><stop offset=".179" stop-color="#2E1E4F" stop-opacity=".18"/><stop offset=".435" stop-color="#2E1D52" stop-opacity=".21"/><stop offset="1" stop-color="#431E80" stop-opacity="0"/></linearGradient><linearGradient id="aF" x1="699.43" x2="690.931" y1="318.947" y2="348.683" gradientUnits="userSpaceOnUse"><stop stop-color="#655B9A" stop-opacity="0"/><stop offset="1" stop-color="#34306D" stop-opacity=".37"/></linearGradient><linearGradient id="aG" x1="1.715" x2="368.784" y1="95.459" y2="38.031" gradientUnits="userSpaceOnUse"><stop stop-color="#0697EB" stop-opacity="0"/><stop offset=".201" stop-color="#06F" stop-opacity=".2"/><stop offset=".708" stop-color="#0697EB" stop-opacity=".71"/><stop offset="1" stop-color="#06F"/></linearGradient><linearGradient id="aI" x1="525.767" x2="602.042" y1="98.984" y2="362.943" gradientUnits="userSpaceOnUse"><stop stop-color="#0697EB"/><stop offset=".595" stop-color="#0697EB"/><stop offset="1" stop-color="#0697EB"/></linearGradient><linearGradient id="aJ" x1="595.939" x2="649.363" y1="368.162" y2="257.656" gradientUnits="userSpaceOnUse"><stop stop-color="#FFAB49" stop-opacity=".26"/><stop offset="1" stop-color="#FFCD93" stop-opacity="0"/></linearGradient><linearGradient id="aK" x1="525.042" x2="595.767" y1="89.74" y2="363.087" gradientUnits="userSpaceOnUse"><stop stop-color="#FBC02A" stop-opacity=".13"/><stop offset="1" stop-color="#FFDA7B" stop-opacity="0"/></linearGradient><linearGradient id="ba" x1="460.76" x2="520.088" y1="392.211" y2="424.782" gradientUnits="userSpaceOnUse"><stop stop-color="#231E37"/><stop offset=".2" stop-color="#2F2A48"/><stop offset=".339" stop-color="#5B5280"/><stop offset=".491" stop-color="#36304F"/><stop offset=".764" stop-color="#423B61"/><stop offset="1" stop-color="#191430"/></linearGradient><linearGradient id="bc" x1="490.244" x2="490.244" y1="385.331" y2="437.749" gradientUnits="userSpaceOnUse"><stop stop-color="#FBD156"/><stop offset="1" stop-color="#FFC737"/></linearGradient><filter id="a" width="801.621" height="507.336" x="221.275" y="150.738" color-interpolation-filters="sRGB" filterUnits="userSpaceOnUse"><feFlood flood-opacity="0" result="BackgroundImageFix"/><feBlend in="SourceGraphic" in2="BackgroundImageFix" result="shape"/><feGaussianBlur result="effect1_foregroundBlur_1_226" stdDeviation="17.992"/></filter><filter id="c" width="531.043" height="321.048" x="357.689" y="243.959" color-interpolation-filters="sRGB" filterUnits="userSpaceOnUse"><feFlood flood-opacity="0" result="BackgroundImageFix"/><feColorMatrix in="SourceAlpha" result="hardAlpha" values="0 0 0 0 0 0 0 0 0 0 0 0 0 0 0 0 0 0 127 0"/><feOffset dx="1.125"/><feComposite in2="hardAlpha" operator="out"/><feColorMatrix values="0 0 0 0 1 0 0 0 0 1 0 0 0 0 1 0 0 0 0.28 0"/><feBlend in2="BackgroundImageFix" result="effect1_dropShadow_1_226"/><feBlend in="SourceGraphic" in2="effect1_dropShadow_1_226" result="shape"/></filter><filter id="i" width="159.848" height="192.825" x="464.139" y="419.685" color-interpolation-filters="sRGB" filterUnits="userSpaceOnUse"><feFlood flood-opacity="0" result="BackgroundImageFix"/><feBlend in="SourceGraphic" in2="BackgroundImageFix" result="shape"/><feColorMatrix in="SourceAlpha" result="hardAlpha" values="0 0 0 0 0 0 0 0 0 0 0 0 0 0 0 0 0 0 127 0"/><feOffset dx="-7.22" dy="7.22"/><feGaussianBlur stdDeviation="10.83"/><feComposite in2="hardAlpha" k2="-1" k3="1" operator="arithmetic"/><feColorMatrix values="0 0 0 0 0.136017 0 0 0 0 0.128247 0 0 0 0 0.345833 0 0 0 0.6 0"/><feBlend in2="shape" result="effect1_innerShadow_1_226"/></filter><filter id="n" width="155.693" height="197.649" x="623.695" y="415.118" color-interpolation-filters="sRGB" filterUnits="userSpaceOnUse"><feFlood flood-opacity="0" result="BackgroundImageFix"/><feBlend in="SourceGraphic" in2="BackgroundImageFix" result="shape"/><feColorMatrix in="SourceAlpha" result="hardAlpha" values="0 0 0 0 0 0 0 0 0 0 0 0 0 0 0 0 0 0 127 0"/><feOffset dy="7.22"/><feGaussianBlur stdDeviation="14.44"/><feComposite in2="hardAlpha" k2="-1" k3="1" operator="arithmetic"/><feColorMatrix values="0 0 0 0 0.0558333 0 0 0 0 0.0558333 0 0 0 0 0.2 0 0 0 1 0"/><feBlend in2="shape" result="effect1_innerShadow_1_226"/></filter><filter id="q" width="168.559" height="107.842" x="620.613" y="402.796" color-interpolation-filters="sRGB" filterUnits="userSpaceOnUse"><feFlood flood-opacity="0" result="BackgroundImageFix"/><feBlend in="SourceGraphic" in2="BackgroundImageFix" result="shape"/><feGaussianBlur result="effect1_foregroundBlur_1_226" stdDeviation="1.805"/></filter><filter id="s" width="309.244" height="200.727" x="325.764" y="235.166" color-interpolation-filters="sRGB" filterUnits="userSpaceOnUse"><feFlood flood-opacity="0" result="BackgroundImageFix"/><feBlend in="SourceGraphic" in2="BackgroundImageFix" result="shape"/><feColorMatrix in="SourceAlpha" result="hardAlpha" values="0 0 0 0 0 0 0 0 0 0 0 0 0 0 0 0 0 0 127 0"/><feOffset dy="2.249"/><feGaussianBlur stdDeviation="2.249"/><feComposite in2="hardAlpha" k2="-1" k3="1" operator="arithmetic"/><feColorMatrix values="0 0 0 0 0.378116 0 0 0 0 0.369444 0 0 0 0 0.583333 0 0 0 0.6 0"/><feBlend in2="shape" result="effect1_innerShadow_1_226"/></filter><filter id="u" width="309.244" height="200.727" x="613.643" y="235.166" color-interpolation-filters="sRGB" filterUnits="userSpaceOnUse"><feFlood flood-opacity="0" result="BackgroundImageFix"/><feBlend in="SourceGraphic" in2="BackgroundImageFix" result="shape"/><feColorMatrix in="SourceAlpha" result="hardAlpha" values="0 0 0 0 0 0 0 0 0 0 0 0 0 0 0 0 0 0 127 0"/><feOffset dy="2.249"/><feGaussianBlur stdDeviation="2.249"/><feComposite in2="hardAlpha" k2="-1" k3="1" operator="arithmetic"/><feColorMatrix values="0 0 0 0 0.378116 0 0 0 0 0.369444 0 0 0 0 0.583333 0 0 0 0.6 0"/><feBlend in2="shape" result="effect1_innerShadow_1_226"/></filter><filter id="y" width="177.771" height="152.709" x="449.898" y="362.066" color-interpolation-filters="sRGB" filterUnits="userSpaceOnUse"><feFlood flood-opacity="0" result="BackgroundImageFix"/><feBlend in="SourceGraphic" in2="BackgroundImageFix" result="shape"/><feColorMatrix in="SourceAlpha" result="hardAlpha" values="0 0 0 0 0 0 0 0 0 0 0 0 0 0 0 0 0 0 127 0"/><feOffset dx="3.61" dy="3.61"/><feGaussianBlur stdDeviation="3.61"/><feComposite in2="hardAlpha" k2="-1" k3="1" operator="arithmetic"/><feColorMatrix values="0 0 0 0 0.135445 0 0 0 0 0.121649 0 0 0 0 0.379167 0 0 0 1 0"/><feBlend in2="shape" result="effect1_innerShadow_1_226"/></filter><filter id="B" width="175.921" height="151.983" x="624.332" y="362.066" color-interpolation-filters="sRGB" filterUnits="userSpaceOnUse"><feFlood flood-opacity="0" result="BackgroundImageFix"/><feBlend in="SourceGraphic" in2="BackgroundImageFix" result="shape"/><feColorMatrix in="SourceAlpha" result="hardAlpha" values="0 0 0 0 0 0 0 0 0 0 0 0 0 0 0 0 0 0 127 0"/><feOffset dx="3.61" dy="3.61"/><feGaussianBlur stdDeviation="7.22"/><feComposite in2="hardAlpha" k2="-1" k3="1" operator="arithmetic"/><feColorMatrix values="0 0 0 0 0.0499541 0 0 0 0 0.0336458 0 0 0 0 0.2375 0 0 0 1 0"/><feBlend in2="shape" result="effect1_innerShadow_1_226"/></filter><filter id="G" width="123.345" height="97.893" x="728.556" y="463.634" color-interpolation-filters="sRGB" filterUnits="userSpaceOnUse"><feFlood flood-opacity="0" result="BackgroundImageFix"/><feBlend in="SourceGraphic" in2="BackgroundImageFix" result="shape"/><feGaussianBlur result="effect1_foregroundBlur_1_226" stdDeviation="13.494"/></filter><filter id="I" width="123.345" height="97.893" x="763.696" y="435.942" color-interpolation-filters="sRGB" filterUnits="userSpaceOnUse"><feFlood flood-opacity="0" result="BackgroundImageFix"/><feBlend in="SourceGraphic" in2="BackgroundImageFix" result="shape"/><feGaussianBlur result="effect1_foregroundBlur_1_226" stdDeviation="13.494"/></filter><filter id="K" width="123.345" height="97.893" x="793.733" y="413.749" color-interpolation-filters="sRGB" filterUnits="userSpaceOnUse"><feFlood flood-opacity="0" result="BackgroundImageFix"/><feBlend in="SourceGraphic" in2="BackgroundImageFix" result="shape"/><feGaussianBlur result="effect1_foregroundBlur_1_226" stdDeviation="13.494"/></filter><filter id="T" width="123.345" height="97.893" x="391.512" y="462.51" color-interpolation-filters="sRGB" filterUnits="userSpaceOnUse"><feFlood flood-opacity="0" result="BackgroundImageFix"/><feBlend in="SourceGraphic" in2="BackgroundImageFix" result="shape"/><feGaussianBlur result="effect1_foregroundBlur_1_226" stdDeviation="13.494"/></filter><filter id="V" width="123.345" height="97.893" x="356.373" y="434.818" color-interpolation-filters="sRGB" filterUnits="userSpaceOnUse"><feFlood flood-opacity="0" result="BackgroundImageFix"/><feBlend in="SourceGraphic" in2="BackgroundImageFix" result="shape"/><feGaussianBlur result="effect1_foregroundBlur_1_226" stdDeviation="13.494"/></filter><filter id="X" width="123.345" height="97.893" x="326.334" y="412.625" color-interpolation-filters="sRGB" filterUnits="userSpaceOnUse"><feFlood flood-opacity="0" result="BackgroundImageFix"/><feBlend in="SourceGraphic" in2="BackgroundImageFix" result="shape"/><feGaussianBlur result="effect1_foregroundBlur_1_226" stdDeviation="13.494"/></filter><filter id="ae" width="10.83" height="10.83" x="574.249" y="446.451" color-interpolation-filters="sRGB" filterUnits="userSpaceOnUse"><feFlood flood-opacity="0" result="BackgroundImageFix"/><feColorMatrix in="SourceAlpha" result="hardAlpha" values="0 0 0 0 0 0 0 0 0 0 0 0 0 0 0 0 0 0 127 0"/><feOffset/><feGaussianBlur stdDeviation="1.805"/><feComposite in2="hardAlpha" operator="out"/><feColorMatrix values="0 0 0 0 0.501961 0 0 0 0 1 0 0 0 0 0.00784314 0 0 0 1 0"/><feBlend in2="BackgroundImageFix" result="effect1_dropShadow_1_226"/><feBlend in="SourceGraphic" in2="effect1_dropShadow_1_226" result="shape"/></filter><filter id="af" width="10.83" height="10.83" x="596.81" y="459.988" color-interpolation-filters="sRGB" filterUnits="userSpaceOnUse"><feFlood flood-opacity="0" result="BackgroundImageFix"/><feColorMatrix in="SourceAlpha" result="hardAlpha" values="0 0 0 0 0 0 0 0 0 0 0 0 0 0 0 0 0 0 127 0"/><feOffset/><feGaussianBlur stdDeviation="1.805"/><feComposite in2="hardAlpha" operator="out"/><feColorMatrix values="0 0 0 0 0.501961 0 0 0 0 1 0 0 0 0 0.00784314 0 0 0 1 0"/><feBlend in2="BackgroundImageFix" result="effect1_dropShadow_1_226"/><feBlend in="SourceGraphic" in2="effect1_dropShadow_1_226" result="shape"/></filter><filter id="ag" width="10.83" height="10.83" x="574.249" y="459.086" color-interpolation-filters="sRGB" filterUnits="userSpaceOnUse"><feFlood flood-opacity="0" result="BackgroundImageFix"/><feColorMatrix in="SourceAlpha" result="hardAlpha" values="0 0 0 0 0 0 0 0 0 0 0 0 0 0 0 0 0 0 127 0"/><feOffset/><feGaussianBlur stdDeviation="1.805"/><feComposite in2="hardAlpha" operator="out"/><feColorMatrix values="0 0 0 0 0.501961 0 0 0 0 1 0 0 0 0 0.00784314 0 0 0 1 0"/><feBlend in2="BackgroundImageFix" result="effect1_dropShadow_1_226"/><feBlend in="SourceGraphic" in2="effect1_dropShadow_1_226" result="shape"/></filter><filter id="ah" width="10.83" height="10.83" x="596.81" y="471.721" color-interpolation-filters="sRGB" filterUnits="userSpaceOnUse"><feFlood flood-opacity="0" result="BackgroundImageFix"/><feColorMatrix in="SourceAlpha" result="hardAlpha" values="0 0 0 0 0 0 0 0 0 0 0 0 0 0 0 0 0 0 127 0"/><feOffset/><feGaussianBlur stdDeviation="1.805"/><feComposite in2="hardAlpha" operator="out"/><feColorMatrix values="0 0 0 0 0.501961 0 0 0 0 1 0 0 0 0 0.00784314 0 0 0 1 0"/><feBlend in2="BackgroundImageFix" result="effect1_dropShadow_1_226"/><feBlend in="SourceGraphic" in2="effect1_dropShadow_1_226" result="shape"/></filter><filter id="ai" width="10.83" height="10.83" x="574.249" y="470.819" color-interpolation-filters="sRGB" filterUnits="userSpaceOnUse"><feFlood flood-opacity="0" result="BackgroundImageFix"/><feColorMatrix in="SourceAlpha" result="hardAlpha" values="0 0 0 0 0 0 0 0 0 0 0 0 0 0 0 0 0 0 127 0"/><feOffset/><feGaussianBlur stdDeviation="1.805"/><feComposite in2="hardAlpha" operator="out"/><feColorMatrix values="0 0 0 0 0.501961 0 0 0 0 1 0 0 0 0 0.00784314 0 0 0 1 0"/><feBlend in2="BackgroundImageFix" result="effect1_dropShadow_1_226"/><feBlend in="SourceGraphic" in2="effect1_dropShadow_1_226" result="shape"/></filter><filter id="aj" width="10.83" height="10.83" x="596.81" y="483.454" color-interpolation-filters="sRGB" filterUnits="userSpaceOnUse"><feFlood flood-opacity="0" result="BackgroundImageFix"/><feColorMatrix in="SourceAlpha" result="hardAlpha" values="0 0 0 0 0 0 0 0 0 0 0 0 0 0 0 0 0 0 127 0"/><feOffset/><feGaussianBlur stdDeviation="1.805"/><feComposite in2="hardAlpha" operator="out"/><feColorMatrix values="0 0 0 0 0.501961 0 0 0 0 1 0 0 0 0 0.00784314 0 0 0 1 0"/><feBlend in2="BackgroundImageFix" result="effect1_dropShadow_1_226"/><feBlend in="SourceGraphic" in2="effect1_dropShadow_1_226" result="shape"/></filter><filter id="al" width="346.737" height="199.518" x="449.965" y="263.718" color-interpolation-filters="sRGB" filterUnits="userSpaceOnUse"><feFlood flood-opacity="0" result="BackgroundImageFix"/><feBlend in="SourceGraphic" in2="BackgroundImageFix" result="shape"/><feColorMatrix in="SourceAlpha" result="hardAlpha" values="0 0 0 0 0 0 0 0 0 0 0 0 0 0 0 0 0 0 127 0"/><feOffset dx=".903"/><feComposite in2="hardAlpha" k2="-1" k3="1" operator="arithmetic"/><feColorMatrix values="0 0 0 0 0.745175 0 0 0 0 0.694792 0 0 0 0 0.958333 0 0 0 0.6 0"/><feBlend in2="shape" result="effect1_innerShadow_1_226"/></filter><filter id="aq" width="250.383" height="116.71" x="576.768" y="266.323" color-interpolation-filters="sRGB" filterUnits="userSpaceOnUse"><feFlood flood-opacity="0" result="BackgroundImageFix"/><feBlend in="SourceGraphic" in2="BackgroundImageFix" result="shape"/><feGaussianBlur result="effect1_foregroundBlur_1_226" stdDeviation="2.708"/></filter><filter id="at" width="64.326" height="42.195" x="593.249" y="351.223" color-interpolation-filters="sRGB" filterUnits="userSpaceOnUse"><feFlood flood-opacity="0" result="BackgroundImageFix"/><feBlend in="SourceGraphic" in2="BackgroundImageFix" result="shape"/><feGaussianBlur result="effect1_foregroundBlur_1_226" stdDeviation="6.769"/></filter><filter id="az" width="29.13" height="39.338" x="623.93" y="472.809" color-interpolation-filters="sRGB" filterUnits="userSpaceOnUse"><feFlood flood-opacity="0" result="BackgroundImageFix"/><feBlend in="SourceGraphic" in2="BackgroundImageFix" result="shape"/><feGaussianBlur result="effect1_foregroundBlur_1_226" stdDeviation="3.61"/></filter><filter id="aH" width="210.643" height="279.125" x="490.617" y="83.918" color-interpolation-filters="sRGB" filterUnits="userSpaceOnUse"><feFlood flood-opacity="0" result="BackgroundImageFix"/><feBlend in="SourceGraphic" in2="BackgroundImageFix" result="shape"/><feColorMatrix in="SourceAlpha" result="hardAlpha" values="0 0 0 0 0 0 0 0 0 0 0 0 0 0 0 0 0 0 127 0"/><feOffset dx=".903" dy=".903"/><feComposite in2="hardAlpha" k2="-1" k3="1" operator="arithmetic"/><feColorMatrix values="0 0 0 0 0.789876 0 0 0 0 0.742708 0 0 0 0 0.958333 0 0 0 0.6 0"/><feBlend in2="shape" result="effect1_innerShadow_1_226"/></filter><filter id="aW" width="26.825" height="26.825" x="396.816" y="207.402" color-interpolation-filters="sRGB" filterUnits="userSpaceOnUse"><feFlood flood-opacity="0" result="BackgroundImageFix"/><feBlend in="SourceGraphic" in2="BackgroundImageFix" result="shape"/><feColorMatrix in="SourceAlpha" result="hardAlpha" values="0 0 0 0 0 0 0 0 0 0 0 0 0 0 0 0 0 0 127 0"/><feOffset dx="1.075"/><feComposite in2="hardAlpha" k2="-1" k3="1" operator="arithmetic"/><feColorMatrix values="0 0 0 0 0.625595 0 0 0 0 0.56004 0 0 0 0 0.783523 0 0 0 0.45 0"/><feBlend in2="shape" result="effect1_innerShadow_1_226"/></filter><filter id="aZ" width="59.328" height="58.197" x="460.76" y="382.557" color-interpolation-filters="sRGB" filterUnits="userSpaceOnUse"><feFlood flood-opacity="0" result="BackgroundImageFix"/><feBlend in="SourceGraphic" in2="BackgroundImageFix" result="shape"/><feColorMatrix in="SourceAlpha" result="hardAlpha" values="0 0 0 0 0 0 0 0 0 0 0 0 0 0 0 0 0 0 127 0"/><feOffset dx=".225" dy=".562"/><feComposite in2="hardAlpha" k2="-1" k3="1" operator="arithmetic"/><feColorMatrix values="0 0 0 0 0.623529 0 0 0 0 0.572549 0 0 0 0 0.831373 0 0 0 0.6 0"/><feBlend in2="shape" result="effect1_innerShadow_1_226"/></filter><filter id="bb" width="88.633" height="86.748" x="445.928" y="368.166" color-interpolation-filters="sRGB" filterUnits="userSpaceOnUse"><feFlood flood-opacity="0" result="BackgroundImageFix"/><feColorMatrix in="SourceAlpha" result="hardAlpha" values="0 0 0 0 0 0 0 0 0 0 0 0 0 0 0 0 0 0 127 0"/><feOffset/><feGaussianBlur stdDeviation="8.996"/><feComposite in2="hardAlpha" operator="out"/><feColorMatrix values="0 0 0 0 1 0 0 0 0 0.792157 0 0 0 0 0.247059 0 0 0 0.18 0"/><feBlend in2="BackgroundImageFix" result="effect1_dropShadow_1_226"/><feBlend in="SourceGraphic" in2="effect1_dropShadow_1_226" result="shape"/></filter><radialGradient id="b" cx="0" cy="0" r="1" gradientTransform="matrix(0 220.969 -386.836 0 621.516 404.406)" gradientUnits="userSpaceOnUse"><stop stop-color="#FDF4A9"/><stop offset="1" stop-color="#140C2E" stop-opacity="0"/></radialGradient><radialGradient id="A" cx="0" cy="0" r="1" gradientTransform="matrix(38.69172 32.8778 -40.27281 47.39442 536.979 416.57)" gradientUnits="userSpaceOnUse"><stop stop-color="#06F"/><stop offset="1" stop-color="#0697EB"/></radialGradient><radialGradient id="H" cx="0" cy="0" r="1" gradientTransform="matrix(0 11.0267 -39.534 0 790.228 512.581)" gradientUnits="userSpaceOnUse"><stop stop-color="#FDF4AB"/><stop offset="1" stop-color="#FDF4AB" stop-opacity="0"/></radialGradient><radialGradient id="J" cx="0" cy="0" r="1" gradientTransform="matrix(0 11.0267 -39.534 0 825.369 484.889)" gradientUnits="userSpaceOnUse"><stop stop-color="#FDF4AB"/><stop offset="1" stop-color="#FDF4AB" stop-opacity="0"/></radialGradient><radialGradient id="L" cx="0" cy="0" r="1" gradientTransform="matrix(0 11.0267 -39.534 0 855.406 462.696)" gradientUnits="userSpaceOnUse"><stop stop-color="#FDF4AB"/><stop offset="1" stop-color="#FDF4AB" stop-opacity="0"/></radialGradient><radialGradient id="U" cx="0" cy="0" r="1" gradientTransform="matrix(0 11.0267 -39.534 0 39.534 11.027)" gradientUnits="userSpaceOnUse"><stop stop-color="#FDF4AB"/><stop offset="1" stop-color="#FDF4AB" stop-opacity="0"/></radialGradient><radialGradient id="W" cx="0" cy="0" r="1" gradientTransform="matrix(0 11.0267 -39.534 0 39.534 11.027)" gradientUnits="userSpaceOnUse"><stop stop-color="#FDF4AB"/><stop offset="1" stop-color="#FDF4AB" stop-opacity="0"/></radialGradient><radialGradient id="Y" cx="0" cy="0" r="1" gradientTransform="matrix(0 11.0267 -39.534 0 39.534 11.027)" gradientUnits="userSpaceOnUse"><stop stop-color="#FDF4AB"/><stop offset="1" stop-color="#FDF4AB" stop-opacity="0"/></radialGradient><radialGradient id="am" cx="0" cy="0" r="1" gradientTransform="matrix(248.0345 55.55956 -47.08314 210.19324 483.679 332.329)" gradientUnits="userSpaceOnUse"><stop stop-color="#0697EB"/><stop offset="1" stop-color="#06F"/></radialGradient><radialGradient id="as" cx="0" cy="0" r="1" gradientTransform="matrix(0 27.6498 -68.1236 0 625.415 372.321)" gradientUnits="userSpaceOnUse"><stop stop-color="#2B1D65"/><stop offset="1" stop-color="#403A77" stop-opacity="0"/></radialGradient><radialGradient id="aM" cx="0" cy="0" r="1" gradientTransform="rotate(71.018 140.003 307.256) scale(27.623)" gradientUnits="userSpaceOnUse"><stop stop-color="#06F"/><stop offset="1" stop-color="#0697EB"/></radialGradient><radialGradient id="aN" cx="0" cy="0" r="1" gradientTransform="rotate(40.855 87.39 555.147) scale(15.7806)" gradientUnits="userSpaceOnUse"><stop stop-color="#C8B5FF" stop-opacity=".29"/><stop offset="1" stop-color="#332558" stop-opacity="0"/></radialGradient><radialGradient id="aO" cx="0" cy="0" r="1" gradientTransform="rotate(71.018 279.733 588.52) scale(13.843)" gradientUnits="userSpaceOnUse"><stop stop-color="#06F"/><stop offset="1" stop-color="#0697EB"/></radialGradient><radialGradient id="aP" cx="0" cy="0" r="1" gradientTransform="rotate(40.855 192.39 1067.181) scale(7.90831)" gradientUnits="userSpaceOnUse"><stop stop-color="#C8B5FF" stop-opacity=".29"/><stop offset="1" stop-color="#332558" stop-opacity="0"/></radialGradient><radialGradient id="aQ" cx="0" cy="0" r="1" gradientTransform="rotate(71.018 362.988 596.94) scale(37.4653)" gradientUnits="userSpaceOnUse"><stop stop-color="#06F"/><stop offset="1" stop-color="#0697EB"/></radialGradient><radialGradient id="aR" cx="0" cy="0" r="1" gradientTransform="rotate(40.855 318.644 1117.46) scale(21.4034)" gradientUnits="userSpaceOnUse"><stop stop-color="#C8B5FF" stop-opacity=".29"/><stop offset="1" stop-color="#332558" stop-opacity="0"/></radialGradient><radialGradient id="aS" cx="0" cy="0" r="1" gradientTransform="rotate(71.018 274.347 696.746) scale(27.623)" gradientUnits="userSpaceOnUse"><stop stop-color="#06F"/><stop offset="1" stop-color="#0697EB"/></radialGradient><radialGradient id="aT" cx="0" cy="0" r="1" gradientTransform="rotate(40.855 134.613 1239.161) scale(15.7806)" gradientUnits="userSpaceOnUse"><stop stop-color="#C8B5FF" stop-opacity=".29"/><stop offset="1" stop-color="#332558" stop-opacity="0"/></radialGradient><radialGradient id="aU" cx="0" cy="0" r="1" gradientTransform="rotate(71.018 55.69 463.47) scale(10.518)" gradientUnits="userSpaceOnUse"><stop stop-color="#06F"/><stop offset="1" stop-color="#0697EB"/></radialGradient><radialGradient id="aV" cx="0" cy="0" r="1" gradientTransform="rotate(40.855 -112.918 769.14) scale(6.0088)" gradientUnits="userSpaceOnUse"><stop stop-color="#C8B5FF" stop-opacity=".29"/><stop offset="1" stop-color="#332558" stop-opacity="0"/></radialGradient><radialGradient id="aX" cx="0" cy="0" r="1" gradientTransform="rotate(71.018 52.736 388.105) scale(23.508)" gradientUnits="userSpaceOnUse"><stop stop-color="#0697EB"/><stop offset="1" stop-color="#06F"/></radialGradient><radialGradient id="aY" cx="0" cy="0" r="1" gradientTransform="rotate(23.71 -319.282 1058.053) scale(10.8876)" gradientUnits="userSpaceOnUse"><stop stop-color="#CCB9FF" stop-opacity=".41"/><stop offset="1" stop-color="#332558" stop-opacity="0"/></radialGradient></defs></svg>