<svg xmlns="http://www.w3.org/2000/svg" width="137" height="41" fill="none"><path fill="#0697EB" d="M85.562 28.722c0 .254-.05.489-.15.706a1.703 1.703 0 0 1-.936.936c-.217.09-.448.136-.692.136-.217 0-.439-.04-.665-.122a1.552 1.552 0 0 1-.583-.394L69.644 16.522V30.23h-3.529V12.275c0-.362.1-.688.299-.977.208-.299.47-.52.787-.665a1.75 1.75 0 0 1 1.031-.095c.353.063.656.226.91.488l12.892 13.449V10.768h3.528v17.954ZM63.904 30.229h-5.007l-7.939-7.953h-2.483v-3.555h2.483l7.939-7.952h5.008l-10.002 9.73 10.002 9.73Zm-16.84 0h-3.529v-19.46h3.529v19.46ZM39.966 17.31c0 .805-.1 1.524-.299 2.157a6.054 6.054 0 0 1-.814 1.683c-.334.48-.724.891-1.167 1.235-.443.344-.909.629-1.398.855a6.76 6.76 0 0 1-1.465.475c-.489.1-.95.15-1.384.15l7.368 6.364h-5.455l-7.355-6.365h-2.538v-3.528h7.98a4.146 4.146 0 0 0 1.207-.272 3.01 3.01 0 0 0 .95-.61c.272-.254.48-.557.625-.91.144-.361.217-.773.217-1.235v-2.225c0-.2-.027-.348-.082-.448a.447.447 0 0 0-.19-.23.478.478 0 0 0-.244-.096 2.08 2.08 0 0 0-.23-.013H24.047v15.932H20.52V12.546c0-.244.045-.475.135-.692a1.87 1.87 0 0 1 .367-.57c.163-.163.353-.29.57-.38.217-.09.452-.135.705-.135h13.394c.787 0 1.452.144 1.995.434.543.28.982.638 1.317 1.072.343.425.588.886.732 1.384.154.498.231.964.231 1.398v2.252ZM16.095 22.276H4.94v-3.555h11.155v3.555Zm1.574-7.98H3.529V30.23H0V12.546c0-.244.045-.475.136-.692.09-.217.212-.407.366-.57a1.75 1.75 0 0 1 .57-.38c.217-.09.452-.136.706-.136h15.89v3.529Z"/><mask id="a" fill="#fff"><path fill-rule="evenodd" d="M96.082.995c-.204.446-.093.693 1.105 2.463 1.61 2.376 3.602 6.424 4.59 9.324 1.177 3.458 2.731 11.337 3.424 17.364.038.33-.002.848-.089 1.15-.168.586-2.17 3.399-3.553 4.993-1.018 1.175-1.189 1.65-.869 2.417.337.81 1.491 1.16 2.739.827 1.197-.32 1.229-.313 1.374.261.338 1.341 4.025.662 6.059-1.117.426-.373 1.266-1.29 1.866-2.04 1.038-1.294 1.135-1.362 1.941-1.363 1.097 0 4.771-.886 5.761-1.39.974-.494 1.831-1.443 3.47-3.838.718-1.049 1.81-2.427 2.426-3.063 1.715-1.77 2.115-1.683 6.1 1.323 2.424 1.828 3.206 1.958 3.995.67.543-.888.491-1.444-.285-3.054-1.3-2.695-2.953-5.095-5.643-8.193l-.97-1.117 1.316-2.182c.724-1.2 1.955-2.936 2.736-3.857.781-.92 1.42-1.794 1.42-1.94 0-.379-.572-.897-.99-.897-1.181 0-7.987 3.127-8.832 4.058-.359.394-.354.416.211.864l.578.46.733-.5c.711-.485 4.949-2.67 5.178-2.67.063 0-.139.33-.45.736-.732.953-1.725 2.52-2.4 3.786-.294.553-.567 1.04-.606 1.083-.039.043-.686-.416-1.439-1.02-1.87-1.5-3.513-2.575-3.932-2.575-.727 0-.814.708-.291 2.363.775 2.452 1.605 6.792 1.453 7.6-.109.58-.396.896-1.64 1.813l-1.509 1.11.351.592c.193.326.429.592.524.592.248 0 2.585-1.687 3.108-2.244.243-.258.555-.89.693-1.405.226-.843.187-1.256-.391-4.13-.353-1.758-.642-3.265-.642-3.35 0-.24 2.285 1.607 3.801 3.072 1.8 1.741 4.03 4.658 5.39 7.048 1.055 1.856 1.552 3.22 1.173 3.22-.1 0-1.088-.687-2.195-1.528-2.334-1.771-3.654-2.492-4.567-2.492-1.652 0-3.294 1.45-5.824 5.146-.765 1.117-1.707 2.308-2.094 2.645-1.045.915-2.948 1.389-7.895 1.967-1.443.169-2.951.394-3.351.5-.401.107-1.75.916-2.999 1.798-2.062 1.454-3.436 2.084-3.787 1.735-.07-.07.103-.374.384-.677.925-.998 3.417-4.472 3.711-5.175.405-.964.364-2.094-.222-6.107-1.479-10.128-3.421-16.434-6.803-22.088-.385-.645-.354-.633 1.594.572 3.805 2.354 6.079 4.291 9.3 7.922 3.461 3.902 5.704 7.504 7.542 12.115.341.856.643 1.58.671 1.608.141.142 1.327-.426 1.327-.636 0-.297-.718-2.113-1.625-4.114-.629-1.388-.649-1.499-.318-1.74.194-.141 1.305-1.18 2.469-2.307l2.115-2.05-.226-.682c-.205-.62-.266-.66-.665-.447-.241.128-1.421 1.176-2.622 2.33l-2.183 2.095-.881-1.423c-2.863-4.626-7.864-9.856-12.211-12.771C100.386 2.205 97.412.5 96.848.5c-.377 0-.608.149-.766.495Zm15.299 34.86c0 .45-2.459 2.414-3.419 2.732-1.616.535-1.807.363-.826-.746 1.113-1.258 1.833-1.746 2.877-1.951 1.198-.235 1.368-.24 1.368-.034Z" clip-rule="evenodd"/></mask><path fill="#0697EB" fill-rule="evenodd" d="M96.082.995c-.204.446-.093.693 1.105 2.463 1.61 2.376 3.602 6.424 4.59 9.324 1.177 3.458 2.731 11.337 3.424 17.364.038.33-.002.848-.089 1.15-.168.586-2.17 3.399-3.553 4.993-1.018 1.175-1.189 1.65-.869 2.417.337.81 1.491 1.16 2.739.827 1.197-.32 1.229-.313 1.374.261.338 1.341 4.025.662 6.059-1.117.426-.373 1.266-1.29 1.866-2.04 1.038-1.294 1.135-1.362 1.941-1.363 1.097 0 4.771-.886 5.761-1.39.974-.494 1.831-1.443 3.47-3.838.718-1.049 1.81-2.427 2.426-3.063 1.715-1.77 2.115-1.683 6.1 1.323 2.424 1.828 3.206 1.958 3.995.67.543-.888.491-1.444-.285-3.054-1.3-2.695-2.953-5.095-5.643-8.193l-.97-1.117 1.316-2.182c.724-1.2 1.955-2.936 2.736-3.857.781-.92 1.42-1.794 1.42-1.94 0-.379-.572-.897-.99-.897-1.181 0-7.987 3.127-8.832 4.058-.359.394-.354.416.211.864l.578.46.733-.5c.711-.485 4.949-2.67 5.178-2.67.063 0-.139.33-.45.736-.732.953-1.725 2.52-2.4 3.786-.294.553-.567 1.04-.606 1.083-.039.043-.686-.416-1.439-1.02-1.87-1.5-3.513-2.575-3.932-2.575-.727 0-.814.708-.291 2.363.775 2.452 1.605 6.792 1.453 7.6-.109.58-.396.896-1.64 1.813l-1.509 1.11.351.592c.193.326.429.592.524.592.248 0 2.585-1.687 3.108-2.244.243-.258.555-.89.693-1.405.226-.843.187-1.256-.391-4.13-.353-1.758-.642-3.265-.642-3.35 0-.24 2.285 1.607 3.801 3.072 1.8 1.741 4.03 4.658 5.39 7.048 1.055 1.856 1.552 3.22 1.173 3.22-.1 0-1.088-.687-2.195-1.528-2.334-1.771-3.654-2.492-4.567-2.492-1.652 0-3.294 1.45-5.824 5.146-.765 1.117-1.707 2.308-2.094 2.645-1.045.915-2.948 1.389-7.895 1.967-1.443.169-2.951.394-3.351.5-.401.107-1.75.916-2.999 1.798-2.062 1.454-3.436 2.084-3.787 1.735-.07-.07.103-.374.384-.677.925-.998 3.417-4.472 3.711-5.175.405-.964.364-2.094-.222-6.107-1.479-10.128-3.421-16.434-6.803-22.088-.385-.645-.354-.633 1.594.572 3.805 2.354 6.079 4.291 9.3 7.922 3.461 3.902 5.704 7.504 7.542 12.115.341.856.643 1.58.671 1.608.141.142 1.327-.426 1.327-.636 0-.297-.718-2.113-1.625-4.114-.629-1.388-.649-1.499-.318-1.74.194-.141 1.305-1.18 2.469-2.307l2.115-2.05-.226-.682c-.205-.62-.266-.66-.665-.447-.241.128-1.421 1.176-2.622 2.33l-2.183 2.095-.881-1.423c-2.863-4.626-7.864-9.856-12.211-12.771C100.386 2.205 97.412.5 96.848.5c-.377 0-.608.149-.766.495Zm15.299 34.86c0 .45-2.459 2.414-3.419 2.732-1.616.535-1.807.363-.826-.746 1.113-1.258 1.833-1.746 2.877-1.951 1.198-.235 1.368-.24 1.368-.034Z" clip-rule="evenodd"/><path fill="#0697EB" d="m96.082.995-36.37-16.65-.005.011L96.082.996Zm1.105 2.463 33.12-22.43-33.12 22.43Zm4.59 9.324L139.641-.113l-37.864 12.895Zm3.424 17.364-39.738 4.569v.01l.002.008 39.736-4.587Zm-.089 1.15L66.68 20.206l-.004.014-.004.013 38.44 11.061Zm-3.553 4.993-30.22-26.205-.001.001 30.221 26.204Zm-.869 2.417 36.934-15.358-.003-.008-36.931 15.366Zm2.739.827L93.132.88h-.002l10.299 38.652Zm1.374.261-38.789 9.771.002.006 38.787-9.777Zm6.059-1.117 26.331 30.111.004-.003-26.335-30.108Zm1.866-2.04L81.513 11.626l-.004.004 31.219 25.007Zm1.941-1.363.01 40h.005l-.015-40Zm5.761-1.39L102.317-1.78l-.006.004 18.119 35.66Zm3.47-3.838 33.01 22.59h.001L123.9 30.046Zm2.426-3.063L97.603-.855l28.723 27.838Zm6.1 1.323L156.513-3.63l-.002-.002-24.085 31.937Zm3.995.67 34.114 20.885.002-.002-34.116-20.884Zm-.285-3.054-36.029 17.377.001.001 36.028-17.378Zm-5.643-8.193 30.205-26.224-30.205 26.224Zm-.97-1.117L95.268-4.04l-15.02 24.912 19.07 21.965 30.205-26.224Zm1.316-2.182L96.585-6.226l-.002.003L130.84 14.43Zm-5.666-2.636 29.6 26.903.006-.006-29.606-26.897Zm.211.864 24.876-31.324-.004-.003-24.872 31.327Zm.578.46L101.086 44.44l23.074 18.325 24.342-16.603-22.54-33.045Zm.733-.5-22.539-33.045h-.001l22.54 33.045Zm4.728-1.934 31.728 24.358.005-.007-31.733-24.351Zm-2.4 3.786 35.298 18.817.006-.01-35.304-18.807Zm-.606 1.083 29.587 26.918.035-.038.035-.038-29.657-26.842Zm-1.439-1.02L101.955 45.74l.002.001 25.021-31.208Zm-4.223-.212-38.14 12.056 38.14-12.056Zm1.453 7.6-39.309-7.405v.005l39.309 7.4Zm-1.64 1.813L98.846-8.473l23.722 32.207Zm-1.509 1.11L97.338-7.361l-29.149 21.47 18.465 31.138 34.405-20.401Zm.351.592L87.004 45.838l.004.007.005.007 34.397-20.416Zm3.632-1.652 29.141 27.4.004-.003-29.145-27.397Zm.693-1.405-38.633-10.37-.002.009 38.635 10.36Zm-.391-4.13L86.128 26.13v.002l39.216-7.885Zm3.159-.277-27.804 28.756.001.001 27.803-28.758Zm5.39 7.047 34.774-19.767-.002-.004-34.772 19.771Zm-1.022 1.692 24.187-31.859h-.001L132.871 26.71Zm-10.391 2.654 33.003 22.6h.001l-33.004-22.6Zm-2.094 2.645L94.059 1.896l-.003.003 26.33 30.111Zm-7.895 1.967 4.643 39.73h.003l-4.646-39.73Zm-6.35 2.298 23.063 32.68.005-.003-23.068-32.677Zm-3.787 1.735L74.087 66.311l.02.02.02.021 28.227-28.342Zm.384-.677 29.328 27.2.008-.009-29.336-27.191Zm3.711-5.175-36.883-15.48-.004.01 36.887 15.47Zm-.222-6.107-39.58 5.78 39.58-5.78ZM99.424 3.963l34.329-20.532-.004-.005L99.424 3.963Zm1.594.572 21.048-34.014-.003-.002-21.045 34.016Zm9.3 7.922L80.395 39.002l29.923-26.545Zm7.542 12.115 37.159-14.805-.003-.007-37.156 14.812Zm.671 1.608-28.43 28.138.002.002 28.428-28.14Zm-.298-4.75-36.43 16.518 36.43-16.518Zm-.318-1.74L94.371-12.647l-.005.003 23.549 32.334Zm2.469-2.307 27.832 28.729.002-.002-27.834-28.727Zm2.115-2.05 27.835 28.727 18.031-17.471-7.895-23.833-37.971 12.577Zm-.226-.682 37.971-12.577-.003-.01-37.968 12.587Zm-.665-.447 18.79 35.312.01-.006-18.8-35.306Zm-2.622 2.33 27.7 28.855h.001l-27.701-28.856Zm-2.183 2.095L82.794 39.686l26.034 42.046 35.675-34.247-27.7-28.856Zm-.881-1.423-34.01 21.055.001.002 34.009-21.057ZM103.711 4.435l-22.28 33.22 22.28-33.22Zm4.251 34.152 12.563 37.976h.001l-12.564-37.976Zm-.826-.746L77.18 11.333l-.001.002 29.957 26.506Zm2.877-1.951-7.699-39.252-.009.002 7.708 39.25ZM59.707-15.644A40.73 40.73 0 0 0 56 1.484a40.981 40.981 0 0 0 3.619 16.631 45.321 45.321 0 0 0 3.017 5.595 79.247 79.247 0 0 0 1.432 2.177l66.239-44.859c-.293-.432-.194-.296.017.04.086.135 1.175 1.827 2.275 4.276A39.02 39.02 0 0 1 136 1.155a39.269 39.269 0 0 1-3.543 16.48l-72.75-33.278Zm4.36 41.53a17.652 17.652 0 0 1-.378-.583l-.077-.129a11.441 11.441 0 0 1 .45.923c.021.048.02.047 0-.005a11.24 11.24 0 0 1-.15-.415l75.729-25.79c-2.06-6.048-5.595-13.338-9.334-18.858l-66.24 44.858Zm-.155-.21c-.245-.72-.248-.854-.06-.08.154.628.355 1.53.575 2.644.453 2.298.832 4.703 1.036 6.475l79.476-9.137c-.835-7.266-2.797-18.348-5.298-25.69L63.912 25.676Zm1.553 9.057a36.839 36.839 0 0 1-.142-7.084c.067-.87.175-1.855.349-2.94a37.81 37.81 0 0 1 1.008-4.502l76.865 22.176c1.641-5.689 2.001-11.553 1.392-16.824l-79.472 9.174Zm1.207-14.5a39.017 39.017 0 0 1 1.994-5.4 36.956 36.956 0 0 1 1.111-2.236 31.38 31.38 0 0 1 1.025-1.765c.312-.496.472-.713.395-.605-.21.297-.255.315.142-.143l60.441 52.411c1.78-2.052 3.428-4.239 4.605-5.893a68.84 68.84 0 0 0 2.174-3.237c.374-.596.964-1.56 1.6-2.736.227-.421 2.094-3.756 3.393-8.272l-76.88-22.123Zm4.666-10.148c-.39.45-5.418 5.87-8.35 14.017-4.44 12.333-2.017 23.268.77 29.969l73.863-30.73a38.283 38.283 0 0 1 2.812 11.8 38.77 38.77 0 0 1-2.174 16.058 37.445 37.445 0 0 1-4.477 8.703c-1.019 1.464-1.865 2.434-2.001 2.592L71.338 10.085Zm-7.582 43.978C69.7 68.36 81.508 75.23 90.155 77.84c8.686 2.623 16.953 2.108 23.573.344L93.13.881c5.373-1.431 12.438-1.954 20.151.375 7.673 2.317 18.735 8.606 24.343 22.092L63.756 54.063Zm49.97 24.122c.652-.174-.383.118-1.623.37-.167.034-6.812 1.64-15.074.067a39.746 39.746 0 0 1-27.38-19.876 39.26 39.26 0 0 1-3.502-8.671c-.076-.282-.13-.496-.133-.51l77.577-19.541c-.005-.02-.268-1.095-.663-2.357a40.711 40.711 0 0 0-3.186-7.481 40.276 40.276 0 0 0-10.9-12.644 40.257 40.257 0 0 0-16.85-7.508c-8.438-1.606-15.324.023-15.838.127-.969.197-1.752.392-2.126.486-.397.1-.758.197-.896.234l20.594 77.304ZM66.016 49.57c5.349 21.219 23.245 28.161 30.682 29.86 7.735 1.767 14.265.954 17.749.312 7.197-1.327 15.533-4.647 22.746-10.955L84.531 8.566c5.18-4.529 10.655-6.62 15.414-7.498 2.266-.417 7.684-1.2 14.569.372 6.587 1.505 23.896 8.03 29.075 28.577L66.016 49.571Zm71.181 19.214c3.001-2.625 5.535-5.624 6.751-7.14L81.508 11.63c.331-.412.554-.663.71-.832.095-.105.278-.302.545-.573a34.747 34.747 0 0 1 1.764-1.656l52.67 60.216Zm6.747-7.136c.353-.44-.074.108-.697.81-.53.595-2.817 3.179-6.477 5.748a39.043 39.043 0 0 1-15.055 6.38 38.372 38.372 0 0 1-5.167.635c-1.022.055-1.801.052-1.869.052l-.02-80c-.925 0-12.536-.49-23.859 7.46a42.479 42.479 0 0 0-7.335 6.563c-.96 1.079-1.787 2.122-1.953 2.329l62.432 50.023Zm-29.26 13.625c6.02-.002 11.704-1.481 12.289-1.622.638-.154 6.282-1.417 11.577-4.107L102.311-1.776a35.596 35.596 0 0 1 3.856-1.689c.652-.239 1.131-.39 1.351-.457.438-.135.661-.188.688-.194.026-.006.253-.062.713-.144.229-.04.733-.126 1.435-.211a35.65 35.65 0 0 1 4.301-.255l.029 80Zm23.859-5.726c11.333-5.755 17.327-15.39 18.367-16.911L90.89 7.455c-.6.878.014-.12 1.355-1.604 1.735-1.919 5.038-5.074 10.072-7.63l36.226 71.327Zm18.368-16.912c-.166.243-.272.386-.303.428a11.084 11.084 0 0 1-.37.456c-.082.097-.213.248-.386.442-.165.184-.439.484-.802.859L97.602-.855c-2.705 2.791-5.216 6.124-6.712 8.311l66.021 45.18Zm-1.862 2.185c-.003.004-.676.708-1.69 1.6a36.876 36.876 0 0 1-6.156 4.378 38.486 38.486 0 0 1-12.897 4.526 38.5 38.5 0 0 1-14.257-.38c-6.924-1.5-11.439-4.582-11.703-4.753-.784-.505-1.126-.796-.005.05l48.17-63.873c-.871-.657-2.757-2.085-4.79-3.397-1.514-.977-6.984-4.532-14.72-6.21-10.457-2.267-20.807-.357-29.319 4.48-5.952 3.382-9.907 7.725-10.08 7.903L155.05 54.82Zm-46.709 5.42c1.033.779 2.997 2.23 5.441 3.658 2.087 1.22 7.341 4.136 14.644 5.36 8.938 1.498 19.346.172 28.757-5.78 7.806-4.935 11.878-11.208 13.353-13.618L102.307 8.09c1.081-1.765 4.758-7.57 12.12-12.226 8.967-5.67 18.88-6.901 27.22-5.504 6.707 1.124 11.261 3.746 12.496 4.468.888.519 1.529.95 1.849 1.17.174.122.306.216.386.274l.135.1-48.173 63.87Zm62.197-10.382c2.94-4.804 7.185-13.855 6.063-25.861-.786-8.402-4.119-14.796-4.437-15.454L100.108 43.3c-.041-.084-.57-1.164-1.146-2.76a36.942 36.942 0 0 1-2.015-9.098 38.36 38.36 0 0 1 1.39-14.371 37.438 37.438 0 0 1 3.968-8.98l68.232 41.768Zm1.627-41.314c-3.291-6.823-7.247-12.18-11.466-17.04l-60.409 52.448c.671.773.766.947.603.711a10.205 10.205 0 0 1-.378-.6 11.612 11.612 0 0 1-.407-.765l72.057-34.754Zm-11.466-17.04-.97-1.117-60.41 52.448.971 1.117 60.409-52.448Zm3.081 45.76 1.316-2.183L96.583-6.223 95.267-4.04l68.512 41.306Zm1.314-2.18c-.184.305-.292.468-.296.474l.013-.019c.023-.032.01-.011-.055.073-.035.046-.101.133-.199.256-.094.117-.254.316-.474.576l-61.014-51.743c-2.368 2.792-4.824 6.321-6.483 9.072l68.508 41.312Zm-1.011 1.36a63.468 63.468 0 0 0 2.771-3.504 46.874 46.874 0 0 0 2.061-3.05 40.607 40.607 0 0 0 4.026-8.588 40.095 40.095 0 0 0 2.055-12.67h-80a39.887 39.887 0 0 1 2.04-12.597 39.562 39.562 0 0 1 1.861-4.606c.85-1.772 1.64-3.071 1.956-3.583a32.912 32.912 0 0 1 1.451-2.163c.418-.571.677-.879.765-.982l61.014 51.743Zm10.913-27.812c0-9.695-3.441-16.892-5.651-20.635a41.25 41.25 0 0 0-7.831-9.599c-3.653-3.31-13.135-10.663-27.508-10.663v80a39.235 39.235 0 0 1-17.112-3.916 38.647 38.647 0 0 1-9.093-6.134 38.722 38.722 0 0 1-7.346-9.017 39.402 39.402 0 0 1-5.459-20.036h80Zm-40.99-40.897c-6.385 0-11.473 1.617-11.835 1.722a54.805 54.805 0 0 0-4.016 1.346 84.432 84.432 0 0 0-5.388 2.264 84.998 84.998 0 0 0-5.214 2.603 55.908 55.908 0 0 0-3.562 2.116c-.458.296-4.535 2.83-8.424 7.11l59.213 53.794a38.37 38.37 0 0 1-5.047 4.65 34.578 34.578 0 0 1-2.229 1.576 24.33 24.33 0 0 1-1.569.946c-.256.14-.162.08.226-.099.393-.18.482-.204.177-.089-.114.043-.803.303-1.865.612-.531.154-1.539.433-2.86.699-.998.2-3.855.75-7.607.75v-80ZM95.572-15.11A40.993 40.993 0 0 0 91.24-9.46c-2.925 4.592-8.836 16.119-5.166 31.151C88.971 33.56 96.437 40.36 97.372 41.256a42.46 42.46 0 0 0 2.318 2.064c.405.335.76.616.821.665l49.745-62.654c-.575-.456.941.7 2.496 2.192.787.755 8.169 7.44 11.039 19.196 3.643 14.922-2.237 26.342-5.08 30.804a38.866 38.866 0 0 1-3.717 4.928c-.124.14-.217.242-.221.246l-59.2-53.807Zm4.935 59.091.579.46 49.753-62.647-.579-.46-49.753 62.647Zm47.995 2.182.732-.5-45.079-66.09-.732.5 45.079 66.09Zm.731-.499a36.82 36.82 0 0 1-2.159 1.363c-.178.103-.246.138-.153.088a45.837 45.837 0 0 1 1.351-.704c.138-.07.192-.096.169-.084-.015.007-.082.04-.193.09a36.924 36.924 0 0 1-2.647 1.092 39.34 39.34 0 0 1-6.242 1.73 39.93 39.93 0 0 1-7.486.708v-80c-5.923 0-10.492 1.397-10.853 1.498-1.422.4-2.525.795-3.05.989-1.112.409-1.986.786-2.344.943-.828.36-1.544.702-1.932.89-.877.423-1.795.887-2.564 1.284-.252.13-4.11 2.068-6.974 4.022l45.077 66.091Zm-17.36 4.283c-9.516 0-22.75-3.698-31.968-15.966-7.642-10.169-8.068-20.574-8.017-24.534.102-7.898 2.627-13.752 2.868-14.352 1.282-3.191 2.704-5.468 2.917-5.816a33.801 33.801 0 0 1 2.017-2.947l63.466 48.703a46.545 46.545 0 0 0 2.748-3.987c.294-.482 1.774-2.866 3.087-6.132.255-.637 2.789-6.52 2.891-14.438.051-3.97-.377-14.383-8.022-24.557-9.223-12.272-22.462-15.974-31.987-15.974v80ZM99.695-13.675c-2.301 2.997-4.454 6.484-5.975 9.339l70.607 37.612a13.014 13.014 0 0 1-.338.594 8.349 8.349 0 0 1-.183.275c-.086.126-.307.444-.655.897L99.695-13.675Zm-5.97 9.329c-.048.09-.057.105-.005.013a37.215 37.215 0 0 1 1.834-2.915 39.913 39.913 0 0 1 3.207-4.04l59.313 53.683c1.836-2.03 3.058-3.823 3.227-4.067a39.225 39.225 0 0 0 1.632-2.551c.259-.439.475-.821.596-1.038.271-.484.546-.99.792-1.452L93.726-4.346Zm5.105-7.02c8.02-8.815 17.626-11.707 23.48-12.61a39.97 39.97 0 0 1 21.569 2.649c2.584 1.087 4.456 2.21 4.875 2.46 1.279.761 2.178 1.402 2.337 1.515.563.399.865.642.909.678L101.957 45.74a61.36 61.36 0 0 0 2.883 2.182 44.757 44.757 0 0 0 2.97 1.938c.497.296 2.431 1.453 5.062 2.559a40.122 40.122 0 0 0 9.07 2.61c2.308.378 6.884.935 12.571.057 5.86-.904 15.469-3.798 23.491-12.616L98.83-11.365Zm53.171-5.307a73.408 73.408 0 0 0-5.613-4.103 50.08 50.08 0 0 0-4.543-2.658 42.715 42.715 0 0 0-4.873-2.135c-1.36-.497-6.743-2.474-13.926-2.474v80c-3.992 0-7.152-.605-8.96-1.025a38.921 38.921 0 0 1-4.54-1.35 37.087 37.087 0 0 1-4.242-1.85 30.205 30.205 0 0 1-2.756-1.59c-.649-.425-.826-.589-.593-.402l50.046-62.413Zm-28.955-11.37c-6.469 0-17.466 1.64-27.217 10.434-9.614 8.672-12.355 19.21-13.097 25.237-1.213 9.843 1.606 17.871 1.883 18.749l76.28-24.111c.167.526.593 1.924.945 3.877.294 1.626.962 5.829.292 11.266-.695 5.642-3.311 15.9-12.721 24.388-9.546 8.61-20.259 10.16-26.365 10.16v-80Zm-38.43 54.42c-.242-.764-.185-.703-.075-.128.04.206-.014-.031-.09-.641a30.178 30.178 0 0 1-.184-2.222 36.527 36.527 0 0 1-.027-2.742c.028-1.02.123-3.283.66-6.128l78.617 14.809c.94-4.992.69-9.11.658-9.786a49.717 49.717 0 0 0-.319-3.672 70.63 70.63 0 0 0-.738-4.64c-.461-2.411-1.206-5.746-2.223-8.961l-76.28 24.11Zm.282-11.856a38.489 38.489 0 0 1 3.278-9.833 38.368 38.368 0 0 1 5.973-8.82 35.625 35.625 0 0 1 3.755-3.599c.624-.513 1.046-.819.942-.742l47.443 64.414c.327-.241 3.873-2.74 7.189-6.407a41.458 41.458 0 0 0 10.04-20.215l-78.62-14.798ZM98.846-8.473l-1.508 1.111 47.443 64.413 1.508-1.11L98.846-8.473Zm-12.193 53.72.351.591 68.812-40.803-.351-.592-68.812 40.803Zm.36.605a42.822 42.822 0 0 0 4.736 6.505 41.007 41.007 0 0 0 5.452 5.136 40.328 40.328 0 0 0 6.856 4.327 40.095 40.095 0 0 0 17.877 4.208v-80a39.905 39.905 0 0 1 17.793 4.184 39.7 39.7 0 0 1 6.75 4.258 39.036 39.036 0 0 1 5.192 4.882 37.222 37.222 0 0 1 4.139 5.669L87.013 45.852Zm34.921 20.176c8.455 0 14.798-2.828 15.08-2.942a41.2 41.2 0 0 0 3.909-1.828 44.851 44.851 0 0 0 3.008-1.76 60.446 60.446 0 0 0 2.867-1.951c.162-.117 4.066-2.832 7.385-6.362L95.901-3.617c1.297-1.379 2.374-2.313 2.641-2.545.429-.372.749-.63.893-.745.29-.231.461-.356.537-.41.026-.02.376-.274.998-.67a34.94 34.94 0 0 1 2.341-1.362 38.759 38.759 0 0 1 3.682-1.719 39.897 39.897 0 0 1 14.941-2.904v80Zm32.253-14.847a42.54 42.54 0 0 0 7.119-10.318 44.526 44.526 0 0 0 3.064-8.123L87.1 12.017a35.474 35.474 0 0 1 4.325-9.866 38.313 38.313 0 0 1 4.472-5.764l58.29 54.793Zm10.181-18.434a43.169 43.169 0 0 0 1.295-15.442c-.293-3.089-.952-6.185-1.104-6.941l-78.43 15.768c.141.704.176.895.174.884a30.81 30.81 0 0 1-.284-2.17 36.369 36.369 0 0 1 .009-6.825c.274-2.908.835-5.119 1.074-6.011l77.266 20.737Zm.191-22.382c-.159-.794-.296-1.49-.385-1.952l-.058-.308.021.121.058.339c.019.119.077.479.142.952a40.501 40.501 0 0 1 .268 2.61c.035.492.097 1.498.097 2.772h-80c0 2.17.187 3.875.213 4.127a40.766 40.766 0 0 0 .32 2.4c.063.387.123.72.154.892.07.39.148.803.217 1.163.144.751.329 1.687.522 2.65l78.431-15.766Zm.143 4.534c0 8.033-2.716 21.35-14.948 31.172-10.748 8.631-22.121 8.955-26.622 8.775-8.542-.34-14.759-3.471-15.164-3.659-3.102-1.44-5.283-2.973-5.423-3.069a30.087 30.087 0 0 1-1.273-.915 15.008 15.008 0 0 1-.382-.298c-.018-.014.025.032-.191-.177l55.608-57.513a80.013 80.013 0 0 0-5.129-4.528 55.243 55.243 0 0 0-3.558-2.662c-.378-.257-2.749-1.908-5.982-3.408-.471-.218-6.738-3.365-15.315-3.707-4.518-.18-15.904.147-26.66 8.785C87.421-6.475 84.701 6.85 84.701 14.899h80ZM100.7 46.73c-.547-.529-.865-.889-.96-.998a5.64 5.64 0 0 1-.121-.144l-.03-.036c0-.002-.002-.004-.006-.009a10.95 10.95 0 0 1-.463-.752l69.545-39.542c-3.058-5.379-7.564-11.398-12.36-16.034L100.7 46.729Zm-1.582-1.943c-.007-.012-.815-1.382-1.685-3.769-.183-.504-1.802-4.719-2.165-10.53-.145-2.321-.593-10.84 4.177-20.308a39.888 39.888 0 0 1 35.62-21.94v80a40.105 40.105 0 0 0 35.823-22.064c4.813-9.55 4.38-18.19 4.225-20.668-.382-6.125-2.12-10.797-2.513-11.874-1.287-3.533-2.871-6.513-3.933-8.38L99.118 44.785Zm35.948-56.547a39.954 39.954 0 0 1 14.926 2.893 39.538 39.538 0 0 1 3.663 1.699 37.706 37.706 0 0 1 2.406 1.383c.68.426 1.122.736 1.142.75.156.109.086.063-.145-.112L108.683 58.57a86.693 86.693 0 0 0 2.806 2.047c.418.29 1.195.825 2.122 1.406.392.245 1.398.87 2.71 1.562a40.48 40.48 0 0 0 3.76 1.745c.188.076 6.535 2.91 14.985 2.91v-80Zm21.991 6.612c-1.671-1.268-4.463-3.319-7.842-5.163-2.836-1.547-10.481-5.469-20.911-5.469v80c-5.025 0-9.075-.987-11.762-1.874a34.103 34.103 0 0 1-5.648-2.432c-1.907-1.04-2.872-1.845-2.209-1.342l48.372-63.72ZM128.304-15.78c-13.974 0-23.845 6.597-29.067 11.211-4.722 4.172-8 8.763-9.762 11.336l66.009 45.198c.769-1.123-.423.896-3.278 3.418-3.356 2.966-11.581 8.837-23.902 8.837v-80ZM89.475 6.766c.144-.21.264-.374.45-.608.092-.117.35-.44.75-.898.204-.232.544-.613.994-1.083a37.304 37.304 0 0 1 2.39-2.281l52.654 60.229c3.331-2.912 5.752-6.08 5.945-6.323a69.638 69.638 0 0 0 2.825-3.837l-66.008-45.2Zm4.581-4.867c6.33-5.535 12.612-7.204 14.178-7.593 1.446-.36 1.923-.329-.389-.058l9.292 79.458c2.635-.308 6.537-.802 10.433-1.772 4.015-1 11.771-3.363 19.147-9.812L94.056 1.9Zm13.792-7.652c-.637.075-5.252.58-8.998 1.577l20.579 77.308a37.7 37.7 0 0 1-2.147.504c-.352.071-.61.117-.722.137-.226.04-.316.052-.227.039.165-.025.48-.068.801-.105l-9.286-79.46ZM98.85-4.176c-4.73 1.259-8.315 3.206-8.538 3.32A53.379 53.379 0 0 0 87.4.775a70.093 70.093 0 0 0-4.327 2.823l46.137 65.355c-.13.092-.316.22-.691.445-.168.1-.692.412-1.474.817-.389.2-1.102.56-2.041.971a38.964 38.964 0 0 1-5.574 1.946L98.85-4.176Zm-15.773 7.77c.056-.04.35-.247.855-.554a29.133 29.133 0 0 1 3.005-1.582c1.082-.497 4.66-2.105 9.721-2.892 3.075-.478 19.929-2.835 33.923 11.102L74.128 66.352c14.17 14.112 31.326 11.807 34.821 11.264a43.083 43.083 0 0 0 11.326-3.436c3.922-1.798 7.102-3.935 8.929-5.224L83.077 3.593Zm47.545 6.115c8.517 8.507 10.985 18.408 11.552 24.635a39.816 39.816 0 0 1-1.011 13.227 39.39 39.39 0 0 1-3.932 9.881 37.596 37.596 0 0 1-5.165 7.08L73.409 10.134a42.377 42.377 0 0 0-5.81 7.933 40.646 40.646 0 0 0-4.071 10.198 40.166 40.166 0 0 0-1.024 13.34c.57 6.258 3.048 16.183 11.583 24.707L130.622 9.71Zm1.452 54.815c2.375-2.562 4.547-5.582 5.259-6.575a87.246 87.246 0 0 0 1.96-2.843c.325-.494.787-1.21 1.284-2.043.203-.338 1.546-2.54 2.76-5.436L69.562 16.688a38.12 38.12 0 0 1 1.599-3.35c.326-.604.596-1.065.748-1.32.3-.503.513-.824.548-.878.09-.136.047-.066-.13.18-.163.227-.287.392-.321.436-.016.02.057-.075.207-.258.094-.114.527-.643 1.188-1.356l58.673 54.382Zm11.259-16.887c3.168-7.55 3.514-14.338 3.35-18.846-.124-3.392-.616-6.739-.876-8.52l-79.16 11.56c.125.861.174 1.246.188 1.367.02.174-.06-.449-.099-1.493a33.942 33.942 0 0 1 .342-6.056 36.831 36.831 0 0 1 2.488-8.97l73.767 30.958Zm2.474-27.365c-1.864-12.764-4.891-24.864-12.054-36.841L65.096 24.495l.007.012c.005.01.08.18.208.595.284.922.77 2.861 1.335 6.728l79.161-11.558Zm-12.058-36.846c-.1-.17.255.414.656 1.149.044.082 1.893 3.294 3.198 7.722.589 1.998 2.278 8.065 1.355 15.933-1.144 9.746-6.62 22.646-20.208 30.235-10.842 6.056-20.93 5.189-24.28 4.783a39.709 39.709 0 0 1-8.635-2.044c-2.78-.997-4.791-2.09-5.129-2.27-.664-.354-1.128-.63-1.202-.674-.132-.078-.133-.081.468.29l42.091-68.031c-.372-.23-1.107-.687-1.781-1.086a49.123 49.123 0 0 0-1.876-1.059c-.518-.276-2.667-1.434-5.549-2.468a40.3 40.3 0 0 0-8.761-2.077c-3.384-.41-13.496-1.274-24.355 4.792C66.135-23.781 60.65-10.864 59.503-1.096c-.926 7.891.767 13.987 1.367 16.02 1.327 4.5 3.22 7.808 3.33 8.007.271.498.501.894.626 1.107.128.22.237.402.273.462l68.65-41.074Zm-53.78 55.123c.385.238.49.317.432.275a7.924 7.924 0 0 1-.453-.357c-.197-.168-.294-.267-.257-.23.056.056.269.274.704.765l59.845-53.09c-5.584-6.294-10.797-10.827-18.174-15.391L79.97 38.549Zm.426.453c.26.293.381.45.413.492.028.036-.006-.005-.068-.106a3.11 3.11 0 0 1-.135-.238c-.02-.041.013.021.098.234L155.016 9.76C151.378.634 146.617-6.9 140.24-14.088l-59.845 53.09Zm.305.375c.23.575.474 1.178.7 1.718.1.24.269.642.465 1.086a40.563 40.563 0 0 0 2.819 5.315c.205.326 2.138 3.51 5.417 6.822L146.96-1.958a39.962 39.962 0 0 1 6.724 9.055c.453.834.773 1.5.885 1.731.264.55.449.972.491 1.065.12.274.187.436.166.385-.018-.043-.095-.23-.207-.511L80.7 39.377Zm9.403 14.943c7.28 7.354 15.395 9.962 19.893 10.949a40.222 40.222 0 0 0 10.658.882 40.796 40.796 0 0 0 8.89-1.451 42.89 42.89 0 0 0 6.986-2.632 43.02 43.02 0 0 0 6.306-3.707 40.91 40.91 0 0 0 6.328-5.555 40.279 40.279 0 0 0 5.623-7.75 40.083 40.083 0 0 0 5.071-19.512h-80c0-9.18 3.128-15.986 5.044-19.425a39.739 39.739 0 0 1 5.547-7.65c2.61-2.82 5.034-4.6 6.056-5.326a37.071 37.071 0 0 1 5.459-3.223 37.171 37.171 0 0 1 6.087-2.28 39.22 39.22 0 0 1 8.552-1.387 39.771 39.771 0 0 1 10.539.875c4.465.98 12.555 3.576 19.816 10.912L90.103 54.32Zm69.755-28.776c0-5.685-1.303-10.18-1.328-10.277a44.279 44.279 0 0 0-.867-2.905 58.5 58.5 0 0 0-1.073-2.927 100.987 100.987 0 0 0-1.927-4.523l-72.86 33.036c.108.239.204.457.28.634.08.187.11.267.098.235-.007-.019-.041-.105-.095-.25-.049-.13-.153-.416-.287-.814a35.301 35.301 0 0 1-.678-2.291 38.573 38.573 0 0 1-.625-2.83 39.591 39.591 0 0 1-.638-7.088h80Zm-5.194-20.632c-.195-.43.001-.01.254.61.065.159 1.375 3.216 2.142 7.403.923 5.044 1.664 14.98-3.949 25.615-4.671 8.849-11.573 13.43-11.648 13.484L94.366-12.644c-.24.176-7.264 4.86-12.004 13.841-5.683 10.767-4.96 20.862-3.994 26.138.809 4.418 2.222 7.779 2.457 8.355.423 1.04.858 1.994.978 2.258l72.861-33.036Zm-13.205 47.115c1.471-1.071 2.597-2.056 2.672-2.12.364-.314.671-.589.864-.762.4-.36.788-.72 1.102-1.014.651-.608 1.395-1.318 2.119-2.02L92.551-11.345c-.44.426-.832.8-1.076 1.027-.134.125-.133.122-.032.031.043-.038.222-.2.484-.425a36.556 36.556 0 0 1 1.318-1.083c.251-.197.64-.497 1.126-.851l47.088 64.674Zm6.759-5.917 2.116-2.05-55.67-57.454-2.115 2.05 55.669 57.454ZM160.47 2.756l-.226-.682-75.942 25.155.226.682L160.47 2.756Zm-.229-.693c-.023-.069-.704-2.216-1.837-4.65-.734-1.576-4.567-10.09-14.045-16.474-12.366-8.33-25.115-7.437-32.289-5.628a40.614 40.614 0 0 0-6.67 2.317 41.939 41.939 0 0 0-2.591 1.269l37.599 70.613a37.76 37.76 0 0 1-2.322 1.135 39.33 39.33 0 0 1-6.452 2.237c-7.044 1.777-19.691 2.678-31.967-5.59-9.387-6.323-13.141-14.724-13.793-16.124a37.976 37.976 0 0 1-1.208-2.902c-.198-.536-.332-.94-.36-1.026L160.24 2.063Zm-57.422-23.171c-2.95 1.569-5.09 3.212-5.317 3.381a46.01 46.01 0 0 0-1.647 1.295 61.535 61.535 0 0 0-1.764 1.513c-.918.815-1.894 1.72-2.805 2.596l55.401 57.712a26.777 26.777 0 0 1 .537-.501l-.117.102c-.066.056-.216.185-.43.361a37.163 37.163 0 0 1-2.712 2.018 39.276 39.276 0 0 1-3.567 2.147l-37.579-70.624Zm-11.533 8.785-2.183 2.095 55.4 57.713 2.183-2.096-55.4-57.712Zm59.526 9.895-.881-1.423-68.018 42.114.881 1.423 68.018-42.114Zm-.879-1.42c-5.741-9.273-14.674-18.722-23.942-24.938l-44.56 66.442a9.465 9.465 0 0 1-.508-.363c-.072-.055-.081-.066-.035-.026.105.092.313.283.573.555.259.27.466.513.597.678.06.077.08.106.064.083a6.396 6.396 0 0 1-.21-.322l68.021-42.11Zm-23.942-24.938c-2.238-1.5-4.623-3.007-6.852-4.284a62.995 62.995 0 0 0-4.296-2.265 45.754 45.754 0 0 0-4.146-1.73c-.487-.175-6.274-2.435-13.85-2.435v80c-4.455 0-7.875-.762-9.314-1.112a38.17 38.17 0 0 1-3.892-1.167 34.235 34.235 0 0 1-3.103-1.284c-.904-.43-1.37-.709-1.189-.604.231.132.995.593 2.082 1.323l44.56-66.442ZM96.848-39.5c-5.456 0-13.805 1.11-22.181 6.526-8.338 5.39-12.744 12.488-14.955 17.32l72.74 33.299a39.166 39.166 0 0 1-14.353 16.565 39.18 39.18 0 0 1-21.251 6.29v-80ZM71.38 35.856a39.76 39.76 0 0 1 3.713-16.788c1.345-2.89 2.759-5 3.56-6.131a37.097 37.097 0 0 1 3.659-4.404 29.632 29.632 0 0 1 2.753-2.514c.513-.41 1.212-.936 2.151-1.542.13-.084 3.342-2.264 8.18-3.865l25.129 75.95c5.319-1.76 9.198-4.304 10.059-4.86a54.092 54.092 0 0 0 4.412-3.179 50.449 50.449 0 0 0 4.654-4.201 42.938 42.938 0 0 0 4.241-5.08 40.956 40.956 0 0 0 3.721-6.396 40.253 40.253 0 0 0 3.768-16.99h-80ZM95.399.61c.176-.058.612-.2 1.223-.371a35.543 35.543 0 0 1 3.244-.744 38.763 38.763 0 0 1 8.762-.573c3.149.15 14.482.95 24.746 10.212 12.92 11.66 14.032 26.863 12.715 35.56-1.104 7.288-3.98 12.348-4.852 13.853a37.415 37.415 0 0 1-2.858 4.247 32.727 32.727 0 0 1-1.286 1.553L77.179 11.335c-.445.502-2.928 3.25-5.17 7.119a40.589 40.589 0 0 0-5.018 14.262c-1.334 8.806-.199 24.093 12.785 35.81 10.328 9.32 21.765 10.151 25.06 10.308 4.403.208 7.865-.36 9.324-.626 3.106-.564 5.606-1.394 6.365-1.645L95.399.611ZM137.09 64.35c-.318.359-2.437 2.782-6.038 5.225a36.35 36.35 0 0 1-13.333 5.565l-15.415-78.5C88.931-.734 80.967 7.054 77.18 11.333l59.911 53.017Zm-19.38 10.792c2.065-.405-1.556.453-5.562.553-.785.02-12.6.787-24.07-7.408-15.765-11.266-16.698-27.85-16.698-32.431h80c0-4.684-.955-21.344-16.79-32.66-11.538-8.244-23.47-7.5-24.448-7.476-2.999.076-5.398.484-5.886.564-.845.139-1.604.287-1.943.354l15.397 78.504Z" mask="url(#a)"/></svg>