<svg width="137" height="41" viewBox="0 0 137 41" fill="none" xmlns="http://www.w3.org/2000/svg">
<path d="M85.5618 28.7223C85.5618 28.9756 85.512 29.2108 85.4125 29.4279C85.322 29.6451 85.1954 29.835 85.0325 29.9979C84.8787 30.1517 84.6933 30.2738 84.4762 30.3643C84.259 30.4548 84.0283 30.5 83.7841 30.5C83.5669 30.5 83.3453 30.4593 83.1191 30.3779C82.902 30.2964 82.7075 30.1653 82.5356 29.9843L69.6436 16.5224V30.2286H66.1152V12.2748C66.1152 11.9129 66.2148 11.5872 66.4138 11.2977C66.6219 10.9992 66.8842 10.7775 67.2009 10.6328C67.5356 10.497 67.8794 10.4654 68.2322 10.5378C68.5851 10.6011 68.8881 10.7639 69.1415 11.0263L82.0335 24.4747V10.7685H85.5618V28.7223Z" fill="#0697EB"/>
<path d="M63.9045 30.2287H58.897L50.9582 22.2764H48.4748V18.7209H50.9582L58.897 10.7686H63.9045L53.903 20.4986L63.9045 30.2287ZM47.0635 30.2287H43.5352V10.7686H47.0635V30.2287Z" fill="#0697EB"/>
<path d="M39.9661 17.3095C39.9661 18.1147 39.8666 18.834 39.6675 19.4673C39.4685 20.1006 39.1971 20.6615 38.8533 21.15C38.5186 21.6295 38.1295 22.0411 37.6862 22.3849C37.2429 22.7287 36.777 23.0137 36.2885 23.2399C35.809 23.457 35.3204 23.6153 34.8229 23.7148C34.3343 23.8144 33.8729 23.8641 33.4387 23.8641L40.8075 30.2287H35.3521L27.9969 23.8641H25.4592V20.3358H33.4387C33.882 20.2996 34.2846 20.2091 34.6464 20.0644C35.0174 19.9106 35.334 19.707 35.5964 19.4537C35.8678 19.2004 36.0759 18.8973 36.2206 18.5445C36.3654 18.1826 36.4378 17.7709 36.4378 17.3095V15.084C36.4378 14.8849 36.4106 14.7357 36.3563 14.6362C36.3111 14.5276 36.2478 14.4507 36.1663 14.4055C36.094 14.3512 36.0125 14.3195 35.9221 14.3105C35.8407 14.3014 35.7638 14.2969 35.6914 14.2969H24.0479V30.2287H20.5195V12.5463C20.5195 12.302 20.5648 12.0713 20.6552 11.8542C20.7457 11.6371 20.8678 11.4471 21.0216 11.2842C21.1845 11.1214 21.3745 10.9947 21.5916 10.9043C21.8087 10.8138 22.044 10.7686 22.2973 10.7686H35.6914C36.4785 10.7686 37.1434 10.9133 37.6862 11.2028C38.2291 11.4833 38.6678 11.8406 39.0026 12.2749C39.3464 12.7001 39.5906 13.1615 39.7354 13.6591C39.8892 14.1567 39.9661 14.6226 39.9661 15.0568V17.3095Z" fill="#0697EB"/>
<path d="M16.0946 22.2762H4.93967V18.7208H16.0946V22.2762ZM17.6688 14.2968H3.52834V30.2286H0V12.5462C0 12.3019 0.0452351 12.0712 0.135705 11.8541C0.226175 11.637 0.34831 11.447 0.502109 11.2841C0.664956 11.1213 0.854943 10.9946 1.07207 10.9041C1.2892 10.8137 1.52442 10.7684 1.77774 10.7684H17.6688V14.2968Z" fill="#0697EB"/>
<mask id="path-5-inside-1_1_99" fill="white">
<path fill-rule="evenodd" clip-rule="evenodd" d="M96.0818 0.995286C95.8779 1.44092 95.9889 1.68796 97.1874 3.45764C98.7964 5.83357 100.789 9.88229 101.777 12.782C102.954 16.2402 104.508 24.1195 105.201 30.1464C105.239 30.4769 105.199 30.9939 105.112 31.2954C104.944 31.8817 102.942 34.6946 101.559 36.2894C100.541 37.4635 100.37 37.9381 100.69 38.7056C101.027 39.5166 102.181 39.8652 103.429 39.5327C104.626 39.2137 104.658 39.2197 104.803 39.7942C105.141 41.1354 108.828 40.4557 110.862 38.6772C111.288 38.3045 112.128 37.3865 112.728 36.6372C113.766 35.3427 113.863 35.2745 114.669 35.2743C115.766 35.2739 119.44 34.3875 120.43 33.8842C121.404 33.3897 122.261 32.4411 123.9 30.0461C124.618 28.997 125.71 27.6185 126.326 26.9829C128.041 25.2134 128.441 25.3003 132.426 28.3056C134.85 30.1335 135.632 30.2644 136.421 28.9751C136.964 28.0879 136.912 27.5321 136.136 25.922C134.836 23.2271 133.183 20.8274 130.493 17.7291L129.523 16.6121L130.839 14.4297C131.563 13.2295 132.794 11.4942 133.575 10.5732C134.356 9.65214 134.995 8.77935 134.995 8.63342C134.995 8.25432 134.423 7.73632 134.005 7.73632C132.824 7.73632 126.018 10.8626 125.173 11.7937C124.814 12.1881 124.819 12.21 125.384 12.658L125.962 13.1177L126.695 12.6184C127.406 12.1332 131.644 9.94742 131.873 9.94742C131.936 9.94742 131.734 10.2787 131.423 10.6837C130.691 11.6367 129.698 13.2032 129.023 14.4701C128.729 15.0229 128.456 15.5101 128.417 15.553C128.378 15.5958 127.731 15.1369 126.978 14.5334C125.108 13.0335 123.465 11.9575 123.046 11.9575C122.319 11.9575 122.232 12.6657 122.755 14.3214C123.53 16.7727 124.36 21.1135 124.208 21.9203C124.099 22.5004 123.812 22.8174 122.568 23.734L121.059 24.8448L121.41 25.4364C121.603 25.7618 121.839 26.0281 121.934 26.0281C122.182 26.0281 124.519 24.3409 125.042 23.7841C125.285 23.5258 125.597 22.8934 125.735 22.3786C125.961 21.5364 125.922 21.1231 125.344 18.2481C124.991 16.4911 124.702 14.9841 124.702 14.8993C124.702 14.6589 126.987 16.5063 128.503 17.9715C130.303 19.712 132.533 22.6287 133.893 25.0191C134.948 26.875 135.445 28.2392 135.066 28.2392C134.966 28.2392 133.978 27.5516 132.871 26.711C130.537 24.9395 129.217 24.219 128.304 24.219C126.652 24.219 125.01 25.6693 122.48 29.3653C121.715 30.4821 120.773 31.6725 120.386 32.0104C119.341 32.9245 117.438 33.3985 112.491 33.977C111.048 34.1457 109.54 34.371 109.14 34.4775C108.739 34.5841 107.39 35.3927 106.141 36.2746C104.079 37.7293 102.705 38.3594 102.354 38.0103C102.284 37.9405 102.457 37.6356 102.738 37.3329C103.663 36.3345 106.155 32.861 106.449 32.1579C106.854 31.1937 106.813 30.0642 106.227 26.051C104.748 15.9234 102.806 9.61656 99.4243 3.96298C99.0386 3.31835 99.0699 3.3296 101.018 4.53485C104.823 6.88947 107.097 8.82619 110.318 12.457C113.779 16.3592 116.022 19.9611 117.86 24.572C118.201 25.4281 118.503 26.1517 118.531 26.1799C118.672 26.3222 119.858 25.754 119.858 25.5441C119.858 25.2474 119.14 23.4309 118.233 21.43C117.604 20.0421 117.584 19.9313 117.915 19.6901C118.109 19.5486 119.22 18.5102 120.384 17.3829L122.499 15.3332L122.273 14.6514C122.068 14.0317 122.007 13.9911 121.608 14.2036C121.367 14.332 120.187 15.3803 118.986 16.5331L116.803 18.6288L115.922 17.2062C113.059 12.5802 108.058 7.34998 103.711 4.43495C100.386 2.20476 97.4124 0.5 96.8479 0.5C96.4705 0.5 96.2404 0.648747 96.0818 0.995286ZM111.381 35.8559C111.381 36.3055 108.922 38.2694 107.962 38.5872C106.346 39.1218 106.155 38.9498 107.136 37.8414C108.249 36.5829 108.969 36.0951 110.013 35.89C111.211 35.655 111.381 35.6506 111.381 35.8559Z"/>
</mask>
<path fill-rule="evenodd" clip-rule="evenodd" d="M96.0818 0.995286C95.8779 1.44092 95.9889 1.68796 97.1874 3.45764C98.7964 5.83357 100.789 9.88229 101.777 12.782C102.954 16.2402 104.508 24.1195 105.201 30.1464C105.239 30.4769 105.199 30.9939 105.112 31.2954C104.944 31.8817 102.942 34.6946 101.559 36.2894C100.541 37.4635 100.37 37.9381 100.69 38.7056C101.027 39.5166 102.181 39.8652 103.429 39.5327C104.626 39.2137 104.658 39.2197 104.803 39.7942C105.141 41.1354 108.828 40.4557 110.862 38.6772C111.288 38.3045 112.128 37.3865 112.728 36.6372C113.766 35.3427 113.863 35.2745 114.669 35.2743C115.766 35.2739 119.44 34.3875 120.43 33.8842C121.404 33.3897 122.261 32.4411 123.9 30.0461C124.618 28.997 125.71 27.6185 126.326 26.9829C128.041 25.2134 128.441 25.3003 132.426 28.3056C134.85 30.1335 135.632 30.2644 136.421 28.9751C136.964 28.0879 136.912 27.5321 136.136 25.922C134.836 23.2271 133.183 20.8274 130.493 17.7291L129.523 16.6121L130.839 14.4297C131.563 13.2295 132.794 11.4942 133.575 10.5732C134.356 9.65214 134.995 8.77935 134.995 8.63342C134.995 8.25432 134.423 7.73632 134.005 7.73632C132.824 7.73632 126.018 10.8626 125.173 11.7937C124.814 12.1881 124.819 12.21 125.384 12.658L125.962 13.1177L126.695 12.6184C127.406 12.1332 131.644 9.94742 131.873 9.94742C131.936 9.94742 131.734 10.2787 131.423 10.6837C130.691 11.6367 129.698 13.2032 129.023 14.4701C128.729 15.0229 128.456 15.5101 128.417 15.553C128.378 15.5958 127.731 15.1369 126.978 14.5334C125.108 13.0335 123.465 11.9575 123.046 11.9575C122.319 11.9575 122.232 12.6657 122.755 14.3214C123.53 16.7727 124.36 21.1135 124.208 21.9203C124.099 22.5004 123.812 22.8174 122.568 23.734L121.059 24.8448L121.41 25.4364C121.603 25.7618 121.839 26.0281 121.934 26.0281C122.182 26.0281 124.519 24.3409 125.042 23.7841C125.285 23.5258 125.597 22.8934 125.735 22.3786C125.961 21.5364 125.922 21.1231 125.344 18.2481C124.991 16.4911 124.702 14.9841 124.702 14.8993C124.702 14.6589 126.987 16.5063 128.503 17.9715C130.303 19.712 132.533 22.6287 133.893 25.0191C134.948 26.875 135.445 28.2392 135.066 28.2392C134.966 28.2392 133.978 27.5516 132.871 26.711C130.537 24.9395 129.217 24.219 128.304 24.219C126.652 24.219 125.01 25.6693 122.48 29.3653C121.715 30.4821 120.773 31.6725 120.386 32.0104C119.341 32.9245 117.438 33.3985 112.491 33.977C111.048 34.1457 109.54 34.371 109.14 34.4775C108.739 34.5841 107.39 35.3927 106.141 36.2746C104.079 37.7293 102.705 38.3594 102.354 38.0103C102.284 37.9405 102.457 37.6356 102.738 37.3329C103.663 36.3345 106.155 32.861 106.449 32.1579C106.854 31.1937 106.813 30.0642 106.227 26.051C104.748 15.9234 102.806 9.61656 99.4243 3.96298C99.0386 3.31835 99.0699 3.3296 101.018 4.53485C104.823 6.88947 107.097 8.82619 110.318 12.457C113.779 16.3592 116.022 19.9611 117.86 24.572C118.201 25.4281 118.503 26.1517 118.531 26.1799C118.672 26.3222 119.858 25.754 119.858 25.5441C119.858 25.2474 119.14 23.4309 118.233 21.43C117.604 20.0421 117.584 19.9313 117.915 19.6901C118.109 19.5486 119.22 18.5102 120.384 17.3829L122.499 15.3332L122.273 14.6514C122.068 14.0317 122.007 13.9911 121.608 14.2036C121.367 14.332 120.187 15.3803 118.986 16.5331L116.803 18.6288L115.922 17.2062C113.059 12.5802 108.058 7.34998 103.711 4.43495C100.386 2.20476 97.4124 0.5 96.8479 0.5C96.4705 0.5 96.2404 0.648747 96.0818 0.995286ZM111.381 35.8559C111.381 36.3055 108.922 38.2694 107.962 38.5872C106.346 39.1218 106.155 38.9498 107.136 37.8414C108.249 36.5829 108.969 36.0951 110.013 35.89C111.211 35.655 111.381 35.6506 111.381 35.8559Z" fill="#0697EB"/>
<path d="M96.0818 0.995286L59.7116 -15.6542L59.7068 -15.6438L96.0818 0.995286ZM97.1874 3.45764L130.307 -18.9714L130.307 -18.9718L97.1874 3.45764ZM101.777 12.782L139.641 -0.112751L139.641 -0.113227L101.777 12.782ZM105.201 30.1464L65.4628 34.7149L65.4639 34.7241L65.4649 34.7333L105.201 30.1464ZM105.112 31.2954L66.6798 20.2073L66.676 20.2205L66.6722 20.2336L105.112 31.2954ZM101.559 36.2894L71.3391 10.0838L71.338 10.0851L101.559 36.2894ZM100.69 38.7056L137.624 23.3477L137.621 23.3405L100.69 38.7056ZM103.429 39.5327L93.1322 0.880738L93.1299 0.881351L103.429 39.5327ZM104.803 39.7942L66.0143 49.565L66.016 49.5714L104.803 39.7942ZM110.862 38.6772L137.193 68.7882L137.197 68.785L110.862 38.6772ZM112.728 36.6372L81.5125 11.6258L81.5089 11.6302L112.728 36.6372ZM114.669 35.2743L114.679 75.2743H114.684L114.669 35.2743ZM120.43 33.8842L102.317 -1.77987L102.311 -1.77647L120.43 33.8842ZM123.9 30.0461L156.91 52.6368L156.911 52.6362L123.9 30.0461ZM126.326 26.9829L97.6026 -0.85528L97.6022 -0.854876L126.326 26.9829ZM132.426 28.3056L156.513 -3.62921L156.511 -3.63052L132.426 28.3056ZM136.421 28.9751L170.535 49.8614L170.537 49.8587L136.421 28.9751ZM136.136 25.922L100.107 43.2988L100.108 43.3004L136.136 25.922ZM130.493 17.7291L160.698 -8.49459L160.698 -8.49466L130.493 17.7291ZM129.523 16.6121L95.2675 -4.04058L80.2486 20.8707L99.3188 42.8358L129.523 16.6121ZM130.839 14.4297L96.5851 -6.22619L96.5832 -6.22293L130.839 14.4297ZM125.173 11.7937L154.773 38.6974L154.779 38.6908L125.173 11.7937ZM125.384 12.658L150.26 -18.6655L150.256 -18.6687L125.384 12.658ZM125.962 13.1177L101.086 44.4412L124.16 62.766L148.502 46.1628L125.962 13.1177ZM126.695 12.6184L104.156 -20.4273L104.155 -20.4267L126.695 12.6184ZM131.423 10.6837L163.151 35.0422L163.156 35.0354L131.423 10.6837ZM129.023 14.4701L164.321 33.2866L164.327 33.2765L129.023 14.4701ZM128.417 15.553L158.004 42.4714L158.039 42.4332L158.074 42.3948L128.417 15.553ZM126.978 14.5334L101.955 45.7398L101.957 45.7413L126.978 14.5334ZM122.755 14.3214L84.6151 26.3769L84.6152 26.3769L122.755 14.3214ZM124.208 21.9203L84.8992 14.5161L84.8983 14.5213L124.208 21.9203ZM122.568 23.734L98.846 -8.473L98.8456 -8.47265L122.568 23.734ZM121.059 24.8448L97.3375 -7.36187L68.189 14.1076L86.6535 45.2465L121.059 24.8448ZM121.41 25.4364L87.0043 45.8381L87.0084 45.8451L87.0126 45.8521L121.41 25.4364ZM125.042 23.7841L154.183 51.1849L154.187 51.1806L125.042 23.7841ZM125.735 22.3786L87.1023 12.0098L87.1002 12.0177L125.735 22.3786ZM125.344 18.2481L86.1284 26.1313L86.1286 26.1325L125.344 18.2481ZM128.503 17.9715L100.699 46.7279L100.7 46.7292L128.503 17.9715ZM133.893 25.0191L168.667 5.25206L168.665 5.24833L133.893 25.0191ZM132.871 26.711L157.058 -5.14776L157.057 -5.14876L132.871 26.711ZM122.48 29.3653L155.483 51.9648L155.484 51.9644L122.48 29.3653ZM120.386 32.0104L94.0592 1.89589L94.056 1.89865L120.386 32.0104ZM112.491 33.977L117.134 73.7066L117.137 73.7063L112.491 33.977ZM106.141 36.2746L129.204 68.9557L129.209 68.9521L106.141 36.2746ZM102.354 38.0103L74.0868 66.3114L74.1072 66.3318L74.1277 66.3521L102.354 38.0103ZM102.738 37.3329L132.066 64.5326L132.074 64.524L102.738 37.3329ZM106.449 32.1579L69.5658 16.6787L69.5618 16.6883L106.449 32.1579ZM106.227 26.051L66.6465 31.8304L66.6467 31.8317L106.227 26.051ZM99.4243 3.96298L133.753 -16.5691L133.749 -16.5744L99.4243 3.96298ZM101.018 4.53485L122.066 -29.4794L122.063 -29.4812L101.018 4.53485ZM110.318 12.457L80.3951 39.0021L80.3953 39.0023L110.318 12.457ZM117.86 24.572L155.019 9.76678L155.016 9.76025L117.86 24.572ZM118.531 26.1799L90.101 54.3179L90.1033 54.3203L118.531 26.1799ZM118.233 21.43L81.8029 37.9476L81.8032 37.9482L118.233 21.43ZM117.915 19.6901L94.3709 -12.647L94.3664 -12.6437L117.915 19.6901ZM120.384 17.3829L148.216 46.1117L148.218 46.1097L120.384 17.3829ZM122.499 15.3332L150.334 44.06L168.365 26.589L160.47 2.75567L122.499 15.3332ZM122.273 14.6514L160.244 2.07385L160.241 2.06339L122.273 14.6514ZM121.608 14.2036L140.398 49.5157L140.408 49.5103L121.608 14.2036ZM118.986 16.5331L146.686 45.3895L146.687 45.3894L118.986 16.5331ZM116.803 18.6288L82.7942 39.6859L108.828 81.7316L144.503 47.4853L116.803 18.6288ZM115.922 17.2062L81.9118 38.2606L81.9135 38.2633L115.922 17.2062ZM103.711 4.43495L81.4315 37.6555L81.4319 37.6558L103.711 4.43495ZM107.962 38.5872L120.525 76.5631L120.526 76.5626L107.962 38.5872ZM107.136 37.8414L77.1804 11.3332L77.1786 11.3352L107.136 37.8414ZM110.013 35.89L102.314 -3.36212L102.305 -3.36032L110.013 35.89ZM59.7068 -15.6438C58.4751 -12.9512 55.9663 -6.7958 56.0003 1.48371C56.0324 9.28704 58.3035 15.1863 59.6188 18.1154C60.8707 20.9034 62.1997 23.0167 62.6365 23.7101C63.1994 24.6036 63.7613 25.4348 64.0676 25.8871L130.307 -18.9718C130.014 -19.4044 130.113 -19.2676 130.324 -18.9321C130.41 -18.7967 131.499 -17.1049 132.599 -14.6555C133.762 -12.0651 135.969 -6.42174 136 1.15463C136.033 9.20719 133.587 15.1646 132.457 17.6344L59.7068 -15.6438ZM64.0674 25.8867C63.9671 25.7387 63.8871 25.6162 63.8271 25.5228C63.7669 25.4289 63.721 25.3551 63.6893 25.3033C63.6282 25.2034 63.6035 25.159 63.6123 25.1745C63.6198 25.1878 63.6459 25.2347 63.6871 25.313C63.7279 25.3904 63.7753 25.4833 63.8263 25.5868C63.8772 25.6902 63.9253 25.7916 63.9684 25.8853C64.0117 25.9797 64.0434 26.052 64.0628 26.0977C64.083 26.145 64.0814 26.1435 64.0612 26.0915C64.0426 26.0432 63.9892 25.9032 63.9122 25.6773L139.641 -0.113227C137.581 -6.16098 134.046 -13.4509 130.307 -18.9714L64.0674 25.8867ZM63.9121 25.6768C63.6667 24.9563 63.6639 24.8215 63.8528 25.5951C64.0064 26.2244 64.2067 27.126 64.4265 28.2403C64.8797 30.5382 65.2591 32.943 65.4628 34.7149L144.939 25.5779C144.104 18.3121 142.142 7.23047 139.641 -0.112751L63.9121 25.6768ZM65.4649 34.7333C65.0984 31.5585 65.2141 29.0518 65.3225 27.6491C65.3898 26.7794 65.4978 25.7937 65.6717 24.7082C65.8328 23.7028 66.1277 22.1209 66.6798 20.2073L143.545 42.3834C145.186 36.6942 145.546 30.8298 144.937 25.5595L65.4649 34.7333ZM66.6722 20.2336C67.4277 17.6082 68.2902 15.6565 68.666 14.8325C69.123 13.8305 69.5299 13.0543 69.777 12.5971C70.2655 11.693 70.6607 11.0577 70.8022 10.8322C71.1138 10.3358 71.2745 10.1186 71.1975 10.2268C70.9862 10.5239 70.9422 10.5416 71.3391 10.0838L131.78 62.495C133.56 60.4425 135.208 58.2563 136.385 56.6016C137.002 55.7339 137.781 54.604 138.559 53.3654C138.933 52.7688 139.523 51.8051 140.159 50.6287C140.386 50.2077 142.253 46.8732 143.552 42.3571L66.6722 20.2336ZM71.338 10.0851C70.9481 10.5349 65.9202 15.9549 62.9875 24.1015C58.5476 36.4348 60.9707 47.3698 63.7585 54.0706L137.621 23.3405C138.543 25.5557 140.019 29.689 140.433 35.1405C140.878 40.9959 139.962 46.4682 138.259 51.1985C136.724 55.4625 134.786 58.4592 133.782 59.9017C132.763 61.3659 131.917 62.3362 131.781 62.4937L71.338 10.0851ZM63.7556 54.0635C69.7005 68.3605 81.5082 75.2292 90.155 77.8402C98.8415 80.4633 107.108 79.9481 113.728 78.1841L93.1299 0.881351C98.5025 -0.550253 105.568 -1.07341 113.281 1.25569C120.954 3.57279 132.016 9.86168 137.624 23.3477L63.7556 54.0635ZM113.726 78.1847C114.378 78.0109 113.343 78.303 112.103 78.5553C111.936 78.5891 105.291 80.1957 97.0289 78.6225C91.9257 77.6508 86.0013 75.4707 80.3985 71.2074C74.9346 67.0499 71.6026 62.2982 69.6487 58.7464C67.8345 55.4488 66.9196 52.6475 66.5742 51.543C66.3684 50.8848 66.2237 50.3591 66.1473 50.075C66.0715 49.7927 66.0179 49.5793 66.0143 49.565L143.591 30.0235C143.586 30.0037 143.323 28.9293 142.928 27.6669C142.549 26.4534 141.598 23.5599 139.742 20.1859C137.746 16.5577 134.366 11.7455 128.842 7.54239C123.179 3.23355 117.183 1.02272 111.992 0.0343404C103.554 -1.57232 96.6676 0.0566748 96.1543 0.161107C95.185 0.358299 94.4015 0.552976 94.0278 0.64738C93.6314 0.747543 93.27 0.844015 93.1322 0.880738L113.726 78.1847ZM66.016 49.5714C71.3645 70.7896 89.2615 77.7322 96.6977 79.431C104.433 81.198 110.963 80.3851 114.447 79.7429C121.644 78.4164 129.98 75.096 137.193 68.7882L84.5309 8.5662C89.7103 4.03697 95.1858 1.94563 99.9453 1.0683C102.211 0.650678 107.629 -0.132671 114.514 1.44018C121.101 2.94477 138.41 9.46945 143.589 30.0171L66.016 49.5714ZM137.197 68.785C140.198 66.1602 142.732 63.1614 143.948 61.6441L81.5089 11.6302C81.839 11.218 82.0624 10.9675 82.2178 10.7977C82.3132 10.6934 82.4959 10.4965 82.7631 10.2254C82.9002 10.0862 83.1021 9.88449 83.3593 9.63795C83.6008 9.40646 84.0024 9.02849 84.5272 8.56943L137.197 68.785ZM143.944 61.6486C144.297 61.2085 143.87 61.7573 143.247 62.4588C142.717 63.0544 140.43 65.6376 136.77 68.2069C132.223 71.3995 127.071 73.5592 121.715 74.5877C119.461 75.0205 117.624 75.164 116.548 75.222C115.526 75.277 114.747 75.2743 114.679 75.2743L114.659 -4.72566C113.734 -4.72543 102.123 -5.216 90.8001 2.73384C86.8859 5.48207 84.3295 8.32503 83.4648 9.29745C82.5058 10.3758 81.6784 11.4186 81.5125 11.6258L143.944 61.6486ZM114.684 75.2743C120.704 75.2721 126.388 73.7928 126.973 73.6517C127.611 73.4977 133.255 72.235 138.55 69.5448L102.311 -1.77647C104.204 -2.73831 105.699 -3.29284 106.167 -3.46465C106.819 -3.70378 107.298 -3.85455 107.518 -3.922C107.956 -4.05679 108.179 -4.10956 108.206 -4.11603C108.232 -4.12229 108.459 -4.17827 108.919 -4.25964C109.148 -4.30027 109.652 -4.38584 110.354 -4.47129C110.852 -4.532 112.477 -4.72487 114.655 -4.72566L114.684 75.2743ZM138.543 69.5482C149.876 63.7927 155.87 54.1575 156.91 52.6368L90.8904 7.45534C90.2899 8.33291 90.9036 7.33517 92.2453 5.85122C93.9803 3.93229 97.2832 0.776814 102.317 -1.77987L138.543 69.5482ZM156.911 52.6362C156.745 52.8789 156.639 53.0219 156.608 53.0641C156.569 53.1158 156.541 53.1528 156.51 53.1917C156.485 53.2234 156.397 53.3343 156.238 53.5205C156.156 53.6172 156.025 53.7682 155.852 53.962C155.687 54.146 155.413 54.446 155.05 54.8207L97.6022 -0.854876C94.897 1.93639 92.3865 5.26915 90.89 7.45601L156.911 52.6362ZM155.049 54.8211C155.046 54.8245 154.373 55.529 153.359 56.4219C152.347 57.3136 150.243 59.071 147.203 60.7986C143.959 62.6416 139.618 64.4709 134.306 65.3247C128.96 66.1838 124.087 65.8208 120.049 64.9454C113.125 63.4441 108.61 60.3631 108.346 60.1924C107.562 59.6868 107.22 59.3964 108.341 60.2416L156.511 -3.63052C155.64 -4.28787 153.754 -5.71612 151.721 -7.02801C150.207 -8.0049 144.737 -11.5605 137.001 -13.238C126.544 -15.5052 116.194 -13.5945 107.682 -8.75772C101.73 -5.37583 97.775 -1.03316 97.6026 -0.85528L155.049 54.8211ZM108.34 60.2403C109.373 61.0199 111.337 62.4703 113.781 63.8986C115.868 65.1182 121.122 68.0352 128.425 69.2592C137.363 70.7569 147.771 69.4307 157.182 63.4796C164.988 58.5439 169.06 52.2711 170.535 49.8614L102.307 8.08883C103.388 6.32381 107.065 0.518083 114.427 -4.13669C123.394 -9.80677 133.307 -11.0383 141.647 -9.64059C148.354 -8.51669 152.908 -5.89454 154.143 -5.17333C155.031 -4.65411 155.672 -4.22244 155.992 -4.00212C156.166 -3.88133 156.298 -3.78711 156.378 -3.7286C156.459 -3.66966 156.506 -3.63425 156.513 -3.62921L108.34 60.2403ZM170.537 49.8587C173.477 45.0553 177.722 36.0043 176.6 23.9977C175.814 15.5963 172.481 9.20151 172.163 8.54363L100.108 43.3004C100.067 43.2162 99.5387 42.1362 98.9623 40.5402C98.3772 38.9201 97.3451 35.7051 96.9467 31.4415C96.5077 26.7443 96.9331 21.8506 98.3379 17.071C99.6242 12.6942 101.401 9.56824 102.305 8.09154L170.537 49.8587ZM172.164 8.5452C168.873 1.72215 164.917 -3.63455 160.698 -8.49459L100.289 43.9527C100.96 44.7262 101.055 44.9003 100.892 44.6645C100.804 44.5358 100.67 44.3308 100.514 44.064C100.358 43.7951 100.22 43.5327 100.107 43.2988L172.164 8.5452ZM160.698 -8.49466L159.728 -9.61167L99.3188 42.8358L100.289 43.9528L160.698 -8.49466ZM163.779 37.2647L165.095 35.0824L96.5832 -6.22293L95.2675 -4.04058L163.779 37.2647ZM165.093 35.0856C164.909 35.3904 164.801 35.5529 164.797 35.5591C164.781 35.5829 164.789 35.5698 164.81 35.5402C164.833 35.5076 164.82 35.5287 164.755 35.6133C164.72 35.659 164.654 35.7461 164.556 35.869C164.462 35.9864 164.302 36.1854 164.082 36.4447L103.068 -15.2984C100.7 -12.506 98.2439 -8.97699 96.5851 -6.22619L165.093 35.0856ZM164.082 36.4447C164.951 35.4201 165.92 34.2157 166.853 32.9415C167.266 32.3777 168.057 31.2774 168.914 29.8901C169.302 29.2615 170.148 27.8627 171.036 26.0121C171.475 25.0948 172.227 23.444 172.94 21.3018C173.463 19.7319 174.995 14.9641 174.995 8.63342H94.995C94.995 2.32103 96.522 -2.42293 97.0348 -3.96357C97.7381 -6.07647 98.4757 -7.69267 98.8964 -8.57032C99.7456 -10.3417 100.536 -11.6411 100.852 -12.153C101.565 -13.3068 102.147 -14.104 102.303 -14.3162C102.721 -14.8873 102.98 -15.1948 103.068 -15.2984L164.082 36.4447ZM174.995 8.63342C174.995 -1.06165 171.554 -8.25922 169.344 -12.0018C166.911 -16.124 164.078 -19.2774 161.513 -21.6008C157.86 -24.9103 148.378 -32.2637 134.005 -32.2637V47.7363C126.255 47.7363 120.309 45.4751 116.893 43.8197C113.213 42.0361 110.202 39.8616 107.8 37.6862C105.431 35.5397 102.767 32.5869 100.454 28.6685C98.3646 25.1296 94.995 18.1389 94.995 8.63342H174.995ZM134.005 -32.2637C127.62 -32.2637 122.532 -30.647 122.17 -30.5417C120.506 -30.0589 119.085 -29.5468 118.154 -29.1964C116.215 -28.4664 114.328 -27.65 112.766 -26.9324C111.199 -26.2129 109.359 -25.3167 107.552 -24.3287C106.68 -23.8515 105.399 -23.1268 103.99 -22.2135C103.532 -21.9167 99.4545 -19.3836 95.566 -15.1035L154.779 38.6908C152.539 41.1562 150.507 42.7472 149.732 43.3416C148.745 44.0983 147.941 44.6335 147.503 44.9175C146.633 45.4817 146.032 45.8094 145.934 45.8626C145.678 46.0025 145.772 45.9425 146.16 45.7641C146.553 45.5837 146.642 45.5604 146.337 45.6751C146.223 45.7179 145.534 45.9784 144.472 46.2866C143.941 46.4409 142.933 46.7196 141.612 46.9855C140.614 47.1862 137.757 47.7363 134.005 47.7363V-32.2637ZM95.5721 -15.1101C95.5428 -15.0779 95.0425 -14.5318 94.4721 -13.8552C93.9415 -13.2257 92.6333 -11.6482 91.2387 -9.45892C88.3137 -4.86737 82.4033 6.65958 86.0733 21.6923C88.9705 33.56 96.4372 40.3588 97.372 41.2556C98.424 42.2646 99.3142 43.0089 99.6902 43.3201C100.095 43.6554 100.45 43.936 100.511 43.9847L150.256 -18.6687C149.681 -19.1249 151.197 -17.9686 152.752 -16.4768C153.539 -15.7224 160.921 -9.03781 163.791 2.71916C167.434 17.6411 161.554 29.0606 158.711 33.5231C157.358 35.6479 156.104 37.1555 155.639 37.7065C155.351 38.0478 155.119 38.3111 154.994 38.4512C154.87 38.5909 154.777 38.693 154.773 38.6974L95.5721 -15.1101ZM100.507 43.9815L101.086 44.4412L150.839 -18.2058L150.26 -18.6655L100.507 43.9815ZM148.502 46.1628L149.234 45.6635L104.155 -20.4267L103.423 -19.9274L148.502 46.1628ZM149.233 45.6642C148.462 46.1898 147.86 46.5579 147.647 46.6878C147.369 46.8565 147.165 46.9751 147.074 47.0272C146.896 47.1298 146.828 47.1653 146.921 47.1149C147.09 47.0224 147.414 46.8504 147.8 46.6513C147.98 46.5582 148.142 46.476 148.272 46.4108C148.41 46.3412 148.464 46.3153 148.441 46.3267C148.426 46.3335 148.359 46.3663 148.248 46.4179C148.151 46.4626 147.922 46.5688 147.603 46.7079C147.384 46.8034 146.625 47.1335 145.601 47.5104C145.119 47.6877 144.053 48.0711 142.661 48.4623C141.956 48.6604 140.804 48.964 139.359 49.2398C138.151 49.4704 135.406 49.9474 131.873 49.9474V-30.0526C125.95 -30.0526 121.381 -28.6563 121.02 -28.5549C119.598 -28.1554 118.495 -27.7597 117.97 -27.5662C116.858 -27.157 115.984 -26.7796 115.626 -26.6234C114.798 -26.2623 114.082 -25.9206 113.694 -25.7337C112.817 -25.3104 111.899 -24.8463 111.13 -24.4494C110.878 -24.3195 107.02 -22.3808 104.156 -20.4273L149.233 45.6642ZM131.873 49.9474C122.357 49.9474 109.123 46.2488 99.9048 33.9813C92.2631 23.8123 91.8372 13.4073 91.8883 9.44682C91.9901 1.54925 94.5153 -4.30526 94.7561 -4.90461C96.0381 -8.0961 97.46 -10.3725 97.6731 -10.7206C98.5719 -12.1888 99.339 -13.2111 99.6896 -13.668L163.156 35.0354C163.817 34.1735 164.841 32.783 165.904 31.048C166.198 30.5664 167.678 28.1819 168.991 24.9156C169.246 24.2789 171.78 18.3953 171.882 10.4781C171.933 6.50772 171.505 -3.90482 163.86 -14.0789C154.637 -26.3513 141.398 -30.0526 131.873 -30.0526V49.9474ZM99.6948 -13.6748C97.3938 -10.6776 95.2407 -7.19062 93.7202 -4.33622L164.327 33.2765C164.2 33.5141 164.115 33.6607 164.081 33.7188C164.043 33.7834 164.015 33.8292 163.989 33.8703C163.965 33.9084 163.907 33.9987 163.806 34.1454C163.72 34.2712 163.499 34.589 163.151 35.0422L99.6948 -13.6748ZM93.7256 -4.34638C93.677 -4.25533 93.6683 -4.24149 93.7196 -4.33312C93.7314 -4.3542 93.8528 -4.57191 94.0405 -4.88983C94.1199 -5.02439 94.3507 -5.41422 94.6687 -5.91532C94.8214 -6.15597 95.1342 -6.64377 95.5533 -7.24838C95.7665 -7.55584 96.1014 -8.02998 96.5305 -8.59679C96.9 -9.08478 97.6785 -10.0931 98.7608 -11.2889L158.074 42.3948C159.91 40.3657 161.132 38.5722 161.301 38.328C161.729 37.7113 162.052 37.2081 162.216 36.9489C162.558 36.4108 162.818 35.9716 162.933 35.7767C163.192 35.3381 163.408 34.956 163.529 34.7387C163.8 34.2545 164.075 33.7483 164.321 33.2866L93.7256 -4.34638ZM98.8303 -11.3655C106.85 -20.1807 116.456 -23.0728 122.31 -23.9764C127.993 -24.8535 132.563 -24.2962 134.864 -23.9195C139.467 -23.1661 142.848 -21.7604 143.879 -21.3272C146.463 -20.2404 148.335 -19.1172 148.754 -18.8678C150.033 -18.1057 150.932 -17.4645 151.091 -17.352C151.654 -16.953 151.956 -16.7096 152 -16.6744L101.957 45.7413C102.753 46.3799 103.755 47.1545 104.84 47.9231C105.259 48.2203 106.375 49.006 107.81 49.8609C108.307 50.1567 110.241 51.3135 112.872 52.4196C113.925 52.8624 117.325 54.2742 121.942 55.0299C124.25 55.4077 128.826 55.9652 134.513 55.0874C140.373 54.1831 149.982 51.2893 158.004 42.4714L98.8303 -11.3655ZM152.001 -16.673C150.364 -17.986 148.431 -19.438 146.388 -20.7761C145.438 -21.3982 143.832 -22.4141 141.845 -23.4344C140.877 -23.9317 139.167 -24.7683 136.972 -25.5692C135.612 -26.0657 130.229 -28.0425 123.046 -28.0425V51.9575C119.054 51.9575 115.894 51.3521 114.086 50.9319C112.138 50.4794 110.58 49.9599 109.546 49.5825C107.528 48.8464 106.03 48.1056 105.304 47.7325C103.801 46.9609 102.801 46.3077 102.548 46.1421C101.899 45.717 101.722 45.553 101.955 45.7398L152.001 -16.673ZM123.046 -28.0425C116.577 -28.0425 105.58 -26.4036 95.8295 -17.6086C86.2154 -8.93689 83.4743 1.60173 82.7319 7.62805C81.5194 17.4711 84.3378 25.4993 84.6151 26.3769L160.895 2.26588C161.062 2.79241 161.488 4.18975 161.84 6.1425C162.134 7.7685 162.802 11.9718 162.132 17.409C161.437 23.0514 158.821 33.3095 149.411 41.7966C139.865 50.4071 129.152 51.9575 123.046 51.9575V-28.0425ZM84.6152 26.3769C84.3736 25.6126 84.4309 25.6742 84.5407 26.2489C84.5801 26.4547 84.5265 26.2176 84.4517 25.6078C84.4176 25.3302 84.3218 24.5193 84.2672 23.3861C84.2396 22.8109 84.2072 21.8511 84.2399 20.6444C84.2676 19.6239 84.3634 17.3607 84.8992 14.5161L163.517 29.3245C164.457 24.3327 164.207 20.2153 164.175 19.5393C164.101 18.0046 163.959 16.7031 163.856 15.8668C163.645 14.1396 163.364 12.5128 163.118 11.2261C162.657 8.8159 161.912 5.48146 160.895 2.2658L84.6152 26.3769ZM84.8983 14.5213C85.3599 12.0684 86.2695 8.5707 88.1762 4.68785C90.0676 0.836436 92.2944 -2.08181 94.1486 -4.13176C95.8443 -6.00641 97.32 -7.24975 97.9044 -7.73101C98.5278 -8.24444 98.9499 -8.54952 98.846 -8.473L146.289 55.941C146.616 55.6999 150.162 53.2005 153.478 49.5337C158.818 43.6305 162.143 36.6218 163.518 29.3193L84.8983 14.5213ZM98.8456 -8.47265L97.3375 -7.36187L144.781 57.0515L146.289 55.9407L98.8456 -8.47265ZM86.6535 45.2465L87.0043 45.8381L155.816 5.03464L155.465 4.44307L86.6535 45.2465ZM87.0126 45.8521C88.1713 47.8043 89.7208 50.0644 91.7486 52.3568C92.6823 53.4123 94.5309 55.4051 97.2013 57.493C98.5298 58.5317 100.864 60.2292 104.057 61.8199C106.791 63.1819 113.206 66.0281 121.934 66.0281V-13.9719C130.638 -13.9719 137.025 -11.1339 139.727 -9.78777C142.888 -8.21297 145.187 -6.53878 146.477 -5.53011C149.07 -3.50236 150.83 -1.59651 151.669 -0.648263C153.507 1.42961 154.842 3.3938 155.808 5.02066L87.0126 45.8521ZM121.934 66.0281C130.389 66.0281 136.732 63.2001 137.014 63.0858C138.861 62.338 140.268 61.6069 140.923 61.2579C142.331 60.5082 143.433 59.8159 143.931 59.4987C145.077 58.7692 146.09 58.0576 146.798 57.5469C146.96 57.4296 150.864 54.7151 154.183 51.1849L95.9014 -3.61678C97.1979 -4.99562 98.2754 -5.9302 98.5424 -6.16203C98.9709 -6.5341 99.291 -6.79202 99.4346 -6.90655C99.7251 -7.13812 99.8962 -7.26259 99.9718 -7.31715C99.9984 -7.33636 100.348 -7.59142 100.97 -7.98707C101.206 -8.13742 102.081 -8.69358 103.311 -9.34886C103.877 -9.65064 105.208 -10.3449 106.993 -11.0677C107.893 -11.4321 109.425 -12.0154 111.387 -12.5533C113.003 -12.9962 116.877 -13.9719 121.934 -13.9719V66.0281ZM154.187 51.1806C158.365 46.7359 160.584 42.3273 161.306 40.8629C162.371 38.7018 163.508 35.9552 164.37 32.7395L87.1002 12.0177C87.8245 9.31677 88.7359 7.14377 89.55 5.49213C89.9967 4.58591 90.609 3.44145 91.4245 2.15164C92.1184 1.0542 93.5856 -1.15313 95.8974 -3.6125L154.187 51.1806ZM164.368 32.7474C165.568 28.2737 166.217 23.1567 165.663 17.3045C165.37 14.216 164.711 11.1203 164.559 10.3636L86.1286 26.1325C86.27 26.8357 86.3049 27.0272 86.303 27.0162C86.2971 26.9837 86.26 26.7754 86.2121 26.4512C86.1644 26.1293 86.0877 25.5702 86.0192 24.8468C85.8738 23.3124 85.7532 20.9285 86.0277 18.0215C86.3024 15.1131 86.8628 12.9021 87.1023 12.0098L164.368 32.7474ZM164.559 10.3648C164.4 9.57081 164.263 8.87504 164.174 8.41263C164.127 8.16475 164.111 8.07648 164.116 8.10487C164.119 8.12 164.126 8.16262 164.137 8.226C164.147 8.28259 164.168 8.40327 164.195 8.56503C164.214 8.68401 164.272 9.04398 164.337 9.51711C164.368 9.74515 164.429 10.2079 164.49 10.797C164.521 11.097 164.566 11.5597 164.605 12.127C164.64 12.6187 164.702 13.6246 164.702 14.8993H84.7017C84.7017 17.0684 84.8886 18.7741 84.9147 19.0257C84.9767 19.6256 85.0398 20.1018 85.0731 20.346C85.1422 20.8514 85.2071 21.2541 85.235 21.4259C85.2981 21.8129 85.3577 22.1459 85.3887 22.3176C85.459 22.7073 85.5374 23.1215 85.6062 23.4806C85.7504 24.2321 85.9348 25.1683 86.1284 26.1313L164.559 10.3648ZM164.702 14.8993C164.702 22.932 161.986 36.2481 149.754 46.0709C139.006 54.702 127.633 55.0259 123.132 54.8462C114.59 54.5052 108.373 51.375 107.968 51.187C104.866 49.7478 102.685 48.2139 102.545 48.1185C101.892 47.6728 101.437 47.3291 101.272 47.2033C101.065 47.0458 100.934 46.9409 100.89 46.9048C100.872 46.8907 100.915 46.9369 100.699 46.7279L156.307 -10.7849C154.575 -12.4591 152.717 -14.0692 151.178 -15.3133C150.509 -15.8543 149.193 -16.9018 147.62 -17.9748C147.242 -18.2324 144.871 -19.8827 141.638 -21.3827C141.167 -21.6011 134.9 -24.7477 126.323 -25.0901C121.805 -25.2705 110.419 -24.9434 99.6623 -16.3054C87.4218 -6.47552 84.7017 6.85149 84.7017 14.8993H164.702ZM100.7 46.7292C100.153 46.2 99.8354 45.8402 99.7405 45.7311C99.6771 45.6583 99.6375 45.6103 99.6188 45.5873C99.5995 45.5636 99.5908 45.5522 99.5897 45.5508C99.5885 45.5492 99.5871 45.5474 99.5833 45.542C99.5796 45.5369 99.5657 45.5176 99.5408 45.4805C99.5078 45.4314 99.3557 45.204 99.1202 44.7898L168.665 5.24833C165.607 -0.130687 161.101 -6.15035 156.305 -10.7863L100.7 46.7292ZM99.1181 44.7861C99.1114 44.7743 98.3029 43.4044 97.4332 41.0172C97.2497 40.5135 95.6306 36.298 95.2682 30.487C95.1234 28.1659 94.6746 19.6473 99.4454 10.1786C102.181 4.74868 106.826 -1.31471 114.117 -5.81481C121.415 -10.3195 128.94 -11.7608 135.066 -11.7608V68.2392C141.239 68.2392 148.804 66.7873 156.136 62.2617C163.461 57.7407 168.133 51.6462 170.889 46.1754C175.701 36.6248 175.268 27.9851 175.113 25.5071C174.731 19.3823 172.993 14.7098 172.6 13.6331C171.313 10.0998 169.729 7.1197 168.667 5.25206L99.1181 44.7861ZM135.066 -11.7608C140.152 -11.7608 144.045 -10.7737 145.632 -10.3386C147.58 -9.80441 149.102 -9.2264 149.992 -8.86754C151.76 -8.15483 153.086 -7.46922 153.655 -7.16916C154.889 -6.51774 155.794 -5.95309 156.061 -5.78578C156.741 -5.36011 157.183 -5.04987 157.203 -5.03602C157.359 -4.92733 157.289 -4.97257 157.058 -5.14776L108.683 58.5697C109.56 59.2351 110.537 59.954 111.489 60.6167C111.907 60.9075 112.684 61.4422 113.611 62.0231C114.003 62.268 115.009 62.8929 116.321 63.5852C116.928 63.9057 118.287 64.6069 120.081 65.3301C120.269 65.4059 126.616 68.2392 135.066 68.2392V-11.7608ZM157.057 -5.14876C155.386 -6.41716 152.594 -8.46777 149.215 -10.3117C146.379 -11.8592 138.734 -15.781 128.304 -15.781V64.219C123.279 64.219 119.229 63.2318 116.542 62.3452C113.887 61.4694 111.942 60.4849 110.894 59.9131C108.987 58.8722 108.022 58.0676 108.685 58.5707L157.057 -5.14876ZM128.304 -15.781C114.33 -15.781 104.459 -9.18433 99.2365 -4.56984C94.5149 -0.398139 91.237 4.19335 89.4753 6.76615L155.484 51.9644C156.253 50.8413 155.061 52.8596 152.206 55.3822C148.85 58.3476 140.625 64.219 128.304 64.219V-15.781ZM89.4755 6.76578C89.6194 6.55574 89.7394 6.39176 89.9242 6.15822C90.0171 6.04077 90.2746 5.71821 90.6755 5.26034C90.8788 5.02817 91.2187 4.64711 91.669 4.17697C92.0533 3.7757 92.8921 2.91618 94.0592 1.89589L146.713 62.1248C150.044 59.2132 152.465 56.0454 152.658 55.8016C153.602 54.6092 154.575 53.2916 155.483 51.9648L89.4755 6.76578ZM94.056 1.89865C100.386 -3.63638 106.668 -5.30457 108.234 -5.69443C109.68 -6.05475 110.157 -6.02257 107.845 -5.75226L117.137 73.7063C119.772 73.3981 123.674 72.904 127.57 71.9336C131.585 70.9335 139.341 68.5713 146.717 62.1221L94.056 1.89865ZM107.848 -5.7526C107.211 -5.67814 102.596 -5.17361 98.8505 -4.1765L119.429 73.1316C118.83 73.2911 118.344 73.4045 118.044 73.4724C117.725 73.5445 117.464 73.5991 117.282 73.6358C116.93 73.7072 116.672 73.7533 116.56 73.7731C116.334 73.8129 116.244 73.8251 116.333 73.8117C116.498 73.7871 116.813 73.7442 117.134 73.7066L107.848 -5.7526ZM98.8505 -4.1765C94.1197 -2.91723 90.535 -0.970463 90.3121 -0.855238C89.1245 -0.241437 88.1104 0.34711 87.3989 0.77342C85.937 1.6494 84.451 2.62323 83.0717 3.59696L129.209 68.9521C129.079 69.0441 128.893 69.1726 128.518 69.3972C128.35 69.4978 127.826 69.8091 127.044 70.2138C126.655 70.4147 125.942 70.774 125.003 71.1852C124.522 71.3961 123.846 71.6802 123.021 71.9876C122.242 72.2782 120.998 72.7139 119.429 73.1316L98.8505 -4.1765ZM83.0767 3.59341C83.1328 3.55381 83.4268 3.34737 83.932 3.03989C84.3702 2.77316 85.4174 2.15415 86.9367 1.45763C88.0194 0.961294 91.5978 -0.647328 96.6584 -1.43417C99.7329 -1.91219 116.587 -4.26888 130.581 9.66841L74.1277 66.3521C88.2972 80.464 105.454 78.1595 108.949 77.616C114.431 76.7638 118.547 74.9722 120.275 74.1801C124.197 72.3819 127.377 70.2454 129.204 68.9557L83.0767 3.59341ZM130.622 9.70917C139.139 18.216 141.607 28.1167 142.174 34.3438C142.721 40.3418 141.78 45.0914 141.163 47.5715C139.925 52.5484 138.003 56.0863 137.231 57.4522C135.388 60.7106 133.44 63.0518 132.066 64.5326L73.4088 10.1331C71.7548 11.9166 69.5801 14.5617 67.5981 18.0656C66.756 19.5544 64.7869 23.2005 63.5277 28.2636C62.9001 30.7868 61.9548 35.5741 62.5042 41.6033C63.0744 47.8617 65.5524 57.7871 74.0868 66.3114L130.622 9.70917ZM132.074 64.524C134.449 61.9623 136.621 58.9418 137.333 57.9488C137.932 57.114 138.624 56.122 139.293 55.1055C139.618 54.6116 140.08 53.8953 140.577 53.0635C140.78 52.725 142.123 50.5224 143.337 47.6275L69.5618 16.6883C70.2525 15.0413 70.8996 13.8221 71.1608 13.3377C71.4865 12.7335 71.7568 12.2734 71.909 12.0189C72.2099 11.5155 72.4219 11.1937 72.4572 11.1399C72.5469 11.0036 72.5035 11.0742 72.3268 11.3205C72.1644 11.5469 72.0397 11.7121 72.006 11.7558C71.9903 11.7761 72.0632 11.6808 72.2127 11.4983C72.3065 11.3839 72.7395 10.8552 73.4008 10.1418L132.074 64.524ZM143.333 47.6371C146.501 40.0873 146.847 33.299 146.683 28.7906C146.559 25.3995 146.067 22.0523 145.807 20.2704L66.6467 31.8317C66.7723 32.6922 66.821 33.0767 66.8352 33.1983C66.8555 33.3717 66.7742 32.749 66.7362 31.705C66.6973 30.638 66.6732 28.4526 67.0777 25.6492C67.5266 22.5375 68.3774 19.5104 69.5658 16.6787L143.333 47.6371ZM145.807 20.2716C143.943 7.50804 140.916 -4.59227 133.753 -16.5691L65.096 24.4951C65.1101 24.5186 65.102 24.5048 65.1028 24.5066C65.1077 24.5176 65.183 24.6872 65.3108 25.1022C65.5948 26.0245 66.0818 27.9635 66.6465 31.8304L145.807 20.2716ZM133.749 -16.5744C133.649 -16.7431 134.004 -16.1596 134.405 -15.4253C134.449 -15.3435 136.298 -12.1306 137.603 -7.70283C138.192 -5.70491 139.881 0.361945 138.958 8.23019C137.814 17.976 132.338 30.8759 118.75 38.4651C107.908 44.5209 97.8205 43.654 94.4705 43.248C90.3003 42.7426 87.1662 41.682 85.8351 41.2043C83.0549 40.2066 81.0436 39.1147 80.7063 38.9345C80.0424 38.5798 79.578 38.3038 79.504 38.2599C79.3718 38.1816 79.3712 38.1789 79.9725 38.5509L122.063 -29.4812C121.691 -29.7118 120.956 -30.1679 120.282 -30.5672C119.937 -30.7715 119.25 -31.1748 118.406 -31.6259C117.888 -31.9025 115.739 -33.0598 112.857 -34.0939C111.475 -34.5898 108.299 -35.6614 104.096 -36.1709C100.712 -36.5809 90.6005 -37.4449 79.7406 -31.3794C66.1353 -23.7806 60.6499 -10.8643 59.5034 -1.09576C58.5771 6.79525 60.2704 12.8913 60.87 14.9246C62.1965 19.4232 64.0903 22.7315 64.1996 22.9314C64.4712 23.4286 64.7012 23.8254 64.8257 24.0383C64.9539 24.2577 65.0631 24.4401 65.0991 24.5003L133.749 -16.5744ZM79.9697 38.5491C80.3543 38.7871 80.4597 38.8661 80.4006 38.8239C80.3693 38.8016 80.306 38.7555 80.2197 38.6883C80.1327 38.6206 80.0402 38.5455 79.948 38.4669C79.7511 38.2992 79.6537 38.1997 79.6908 38.2369C79.7471 38.2935 79.9599 38.5115 80.3951 39.0021L140.24 -14.0881C134.656 -20.3823 129.443 -24.9145 122.066 -29.4794L79.9697 38.5491ZM80.3953 39.0023C80.6547 39.2947 80.7763 39.4519 80.8083 39.4941C80.8356 39.5301 80.8025 39.4888 80.7398 39.3881C80.6762 39.2859 80.6285 39.1971 80.6051 39.1502C80.5844 39.1089 80.6183 39.1713 80.703 39.3838L155.016 9.76025C151.378 0.634368 146.617 -6.90017 140.24 -14.0883L80.3953 39.0023ZM80.7004 39.3773C80.9294 39.9519 81.1741 40.5549 81.3995 41.0949C81.4998 41.3352 81.6689 41.7373 81.8646 42.181C81.9435 42.36 82.1599 42.8491 82.4472 43.4476C82.5701 43.7037 82.9003 44.3876 83.3607 45.2364C83.58 45.6408 84.0405 46.4759 84.6832 47.4961C84.8886 47.8221 86.8224 51.0053 90.101 54.3179L146.96 -1.95816C148.908 0.00921106 150.223 1.75443 150.819 2.56908C151.52 3.52787 152.047 4.33871 152.371 4.85436C153.011 5.87011 153.468 6.69943 153.684 7.09678C154.137 7.93149 154.457 8.59609 154.569 8.82808C154.833 9.3783 155.018 9.79953 155.06 9.89335C155.18 10.1667 155.247 10.3292 155.226 10.278C155.208 10.2351 155.131 10.0482 155.019 9.76678L80.7004 39.3773ZM90.1033 54.3203C97.3824 61.6736 105.498 64.282 109.996 65.269C114.66 66.2924 118.511 66.2594 120.654 66.1507C124.918 65.9345 128.193 65.0763 129.544 64.6996C132.64 63.8359 135.072 62.7662 136.53 62.0677C138.011 61.3579 140.302 60.1609 142.836 58.3612C143.971 57.5545 146.489 55.6965 149.164 52.8063C150.514 51.3476 152.731 48.7451 154.787 45.0555C156.721 41.585 159.858 34.7511 159.858 25.5441H79.8577C79.8577 16.3633 82.9856 9.55847 84.9017 6.11925C86.9399 2.46096 89.1319 -0.107923 90.4491 -1.53129C93.0584 -4.3508 95.4826 -6.13114 96.5048 -6.85725C98.8113 -8.49578 100.797 -9.52029 101.964 -10.0796C103.108 -10.6276 105.217 -11.5688 108.051 -12.3594C109.271 -12.6996 112.43 -13.5351 116.603 -13.7466C118.7 -13.853 122.511 -13.8882 127.142 -12.872C131.607 -11.8922 139.697 -9.29603 146.958 -1.96049L90.1033 54.3203ZM159.858 25.5441C159.858 19.8591 158.555 15.3649 158.53 15.2667C158.191 13.9677 157.851 12.9221 157.663 12.3624C157.266 11.174 156.863 10.1266 156.59 9.43505C156.005 7.95407 155.329 6.37938 154.663 4.91187L81.8032 37.9482C81.9112 38.1865 82.0069 38.4048 82.0826 38.5821C82.1625 38.7691 82.1937 38.8489 82.1812 38.8172C82.1738 38.7983 82.1396 38.7116 82.0858 38.5668C82.0375 38.4367 81.933 38.1514 81.7995 37.7526C81.6936 37.4361 81.4167 36.5967 81.1206 35.4618C80.9723 34.8931 80.7259 33.8974 80.4956 32.6316C80.3203 31.6681 79.8577 29.0034 79.8577 25.5441H159.858ZM154.664 4.91249C154.469 4.48244 154.665 4.90111 154.918 5.52264C154.983 5.68056 156.293 8.7384 157.06 12.9255C157.983 17.9693 158.724 27.9053 153.111 38.5401C148.44 47.389 141.538 51.9691 141.463 52.024L94.3664 -12.6437C94.1255 -12.4683 87.1018 -7.78385 82.3615 1.19704C76.6786 11.9638 77.402 22.0594 78.3679 27.3346C79.177 31.753 80.5897 35.1139 80.8245 35.6905C81.248 36.7307 81.6832 37.6837 81.8029 37.9476L154.664 4.91249ZM141.459 52.0272C142.93 50.9556 144.056 49.971 144.131 49.9065C144.495 49.5926 144.802 49.318 144.995 49.1448C145.395 48.7841 145.783 48.4246 146.097 48.1313C146.748 47.5228 147.492 46.8131 148.216 46.1117L92.551 -11.3458C92.1115 -10.92 91.7186 -10.5469 91.4747 -10.3189C91.3411 -10.194 91.3422 -10.1969 91.4432 -10.2879C91.4858 -10.3263 91.665 -10.4877 91.927 -10.7134C92.0586 -10.8267 92.2966 -11.03 92.6049 -11.2827C92.7632 -11.4124 92.9814 -11.5892 93.2452 -11.7961C93.4962 -11.9931 93.8848 -12.293 94.3709 -12.647L141.459 52.0272ZM148.218 46.1097L150.334 44.06L94.6644 -13.3935L92.549 -11.3438L148.218 46.1097ZM160.47 2.75567L160.244 2.07385L84.3021 27.229L84.528 27.9108L160.47 2.75567ZM160.241 2.06339C160.218 1.9943 159.537 -0.153249 158.404 -2.58786C157.67 -4.16316 153.837 -12.6769 144.359 -19.0606C131.993 -27.3901 119.244 -26.498 112.07 -24.6887C108.956 -23.9035 106.595 -22.9076 105.4 -22.3724C104.141 -21.8088 103.174 -21.2978 102.809 -21.1031L140.408 49.5103C140.142 49.6518 139.265 50.1177 138.086 50.6452C136.971 51.1444 134.682 52.1134 131.634 52.8822C124.59 54.6588 111.943 55.56 99.6673 47.2915C90.2803 40.9688 86.5256 32.5682 85.874 31.1681C85.255 29.838 84.85 28.7673 84.6656 28.2663C84.4679 27.7295 84.3344 27.3264 84.3056 27.2395L160.241 2.06339ZM102.819 -21.1085C99.8691 -19.539 97.7288 -17.8963 97.5023 -17.7267C96.7767 -17.1834 96.1932 -16.7102 95.8547 -16.4318C95.1496 -15.8518 94.5265 -15.3065 94.0908 -14.9194C93.1732 -14.1042 92.1974 -13.1983 91.2858 -12.3232L146.687 45.3894C146.815 45.2662 146.941 45.1473 147.051 45.0454C147.166 44.9392 147.226 44.8856 147.224 44.8878C147.22 44.8905 147.18 44.9263 147.107 44.9895C147.041 45.0464 146.891 45.1746 146.677 45.351C146.502 45.4952 146.059 45.8563 145.449 46.3132C145.141 46.5442 144.626 46.9224 143.965 47.3691C143.426 47.7339 142.141 48.5884 140.398 49.5157L102.819 -21.1085ZM91.286 -12.3234L89.1028 -10.2277L144.503 47.4853L146.686 45.3895L91.286 -12.3234ZM150.812 -2.42829L149.931 -3.85083L81.9135 38.2633L82.7942 39.6859L150.812 -2.42829ZM149.933 -3.84814C144.192 -13.1214 135.259 -22.5704 125.991 -28.7859L81.4319 37.6558C81.1598 37.4734 80.9911 37.346 80.9226 37.2931C80.8513 37.2381 80.8417 37.2274 80.888 37.2675C80.9934 37.3586 81.2014 37.5499 81.4612 37.8217C81.7198 38.092 81.9271 38.335 82.058 38.5002C82.1184 38.5766 82.1385 38.6061 82.1221 38.5829C82.1073 38.562 82.0325 38.4557 81.9118 38.2606L149.933 -3.84814ZM125.991 -28.7856C123.753 -30.2867 121.368 -31.7928 119.139 -33.0703C118.092 -33.6709 116.568 -34.5161 114.843 -35.3346C114.024 -35.7236 112.547 -36.4004 110.697 -37.0653C110.21 -37.2403 104.423 -39.5 96.8479 -39.5V40.5C92.3921 40.5 88.9722 39.7376 87.5326 39.3876C85.7896 38.9639 84.4317 38.5049 83.6405 38.2206C82.0739 37.6576 80.9479 37.1313 80.5385 36.937C79.6344 36.5079 79.1673 36.2282 79.3494 36.3326C79.5804 36.465 80.3443 36.9264 81.4315 37.6555L125.991 -28.7856ZM96.8479 -39.5C91.3924 -39.5 83.0431 -38.3892 74.6668 -32.9742C66.3285 -27.5838 61.9233 -20.4858 59.7116 -15.6542L132.452 17.6448C130.399 22.1298 126.188 28.9802 118.099 34.2096C109.972 39.4636 101.926 40.5 96.8479 40.5V-39.5ZM71.3809 35.8559C71.3809 27.5404 73.9893 21.4385 75.0935 19.0679C76.4392 16.1789 77.8525 14.0674 78.6548 12.937C80.2685 10.6635 81.7442 9.11771 82.3127 8.53341C83.6184 7.19147 84.6522 6.349 85.0659 6.01851C85.5785 5.609 86.2775 5.08329 87.2172 4.47709C87.3475 4.39305 90.5587 2.21266 95.3973 0.611762L120.526 76.5626C125.845 74.8028 129.724 72.2577 130.585 71.702C132.256 70.6242 133.75 69.5198 134.997 68.5234C136.146 67.606 137.854 66.1684 139.651 64.3218C140.465 63.4852 142.14 61.7097 143.892 59.2416C144.763 58.0138 146.23 55.8137 147.613 52.8464C148.753 50.3974 151.381 44.2276 151.381 35.8559H71.3809ZM95.3988 0.611256C95.5752 0.552901 96.0115 0.410903 96.6218 0.23976C97.1681 0.086583 98.3282 -0.22498 99.8657 -0.504197C101.095 -0.727427 104.37 -1.27866 108.628 -1.07662C111.777 -0.927188 123.11 -0.127832 133.374 9.13482C146.294 20.7948 147.406 35.9982 146.089 44.6946C144.985 51.9826 142.109 57.0432 141.237 58.5479C140.023 60.6449 138.889 62.1406 138.379 62.7953C137.788 63.5534 137.313 64.0988 137.093 64.3477L77.1786 11.3352C76.7342 11.8375 74.2506 14.5847 72.0099 18.4536C71.0437 20.1219 68.1111 25.3187 66.9908 32.7163C65.6573 41.5223 66.7922 56.8087 79.7762 68.526C90.1037 77.8461 101.541 78.6771 104.836 78.8335C109.239 79.0424 112.701 78.4733 114.16 78.2083C117.266 77.6444 119.766 76.8143 120.525 76.5631L95.3988 0.611256ZM137.091 64.3496C136.773 64.7085 134.654 67.1325 131.053 69.5747C126.671 72.5467 122.007 74.2986 117.72 75.1404L102.305 -3.36032C88.9314 -0.734091 80.967 7.05418 77.1804 11.3332L137.091 64.3496ZM117.711 75.1422C119.776 74.7373 116.155 75.5948 112.149 75.6953C111.364 75.715 99.5489 76.4819 88.0799 68.2865C72.314 57.0207 71.3809 40.437 71.3809 35.8559H151.381C151.381 31.1721 150.426 14.512 134.591 3.1966C123.053 -5.04832 111.121 -4.30409 110.143 -4.27956C107.144 -4.20435 104.745 -3.79577 104.257 -3.71582C103.412 -3.57717 102.653 -3.42854 102.314 -3.36212L117.711 75.1422Z" fill="#0697EB" mask="url(#path-5-inside-1_1_99)"/>
</svg>
